<?xml version="1.0" encoding="utf-8" standalone="no"?>
<!DOCTYPE svg PUBLIC "-//W3C//DTD SVG 1.1//EN"
  "http://www.w3.org/Graphics/SVG/1.1/DTD/svg11.dtd">
<svg xmlns:xlink="http://www.w3.org/1999/xlink" width="756pt" height="576pt" viewBox="0 0 756 576" xmlns="http://www.w3.org/2000/svg" version="1.1">
 <metadata>
  <rdf:RDF xmlns:dc="http://purl.org/dc/elements/1.1/" xmlns:cc="http://creativecommons.org/ns#" xmlns:rdf="http://www.w3.org/1999/02/22-rdf-syntax-ns#">
   <cc:Work>
    <dc:type rdf:resource="http://purl.org/dc/dcmitype/StillImage"/>
    <dc:date>2023-01-31T17:06:32.505950</dc:date>
    <dc:format>image/svg+xml</dc:format>
    <dc:creator>
     <cc:Agent>
      <dc:title>Matplotlib v3.6.0, https://matplotlib.org/</dc:title>
     </cc:Agent>
    </dc:creator>
   </cc:Work>
  </rdf:RDF>
 </metadata>
 <defs>
  <style type="text/css">*{stroke-linejoin: round; stroke-linecap: butt}</style>
 </defs>
 <g id="figure_1">
  <g id="patch_1">
   <path d="M 0 576 
L 756 576 
L 756 0 
L 0 0 
z
" style="fill: #ffffff"/>
  </g>
  <g id="axes_1">
   <g id="patch_2">
    <path d="M 112.54 422.407117 
L 728.177768 422.407117 
L 728.177768 25.92 
L 112.54 25.92 
z
" style="fill: #ffffff"/>
   </g>
   <g id="matplotlib.axis_1">
    <g id="xtick_1">
     <g id="line2d_1">
      <defs>
       <path id="mea6d651cf7" d="M 0 0 
L 0 6 
" style="stroke: #262626; stroke-width: 1.25"/>
      </defs>
      <g>
       <use xlink:href="#mea6d651cf7" x="156.514126" y="422.407117" style="fill: #262626; stroke: #262626; stroke-width: 1.25"/>
      </g>
     </g>
     <g id="text_1">
      <!-- 0.00-0.05 -->
      <g style="fill: #262626" transform="translate(125.049642 515.757607) rotate(-45) scale(0.24 -0.24)">
       <defs>
        <path id="ArialMT-30" d="M 266 2259 
Q 266 3072 433 3567 
Q 600 4063 929 4331 
Q 1259 4600 1759 4600 
Q 2128 4600 2406 4451 
Q 2684 4303 2865 4023 
Q 3047 3744 3150 3342 
Q 3253 2941 3253 2259 
Q 3253 1453 3087 958 
Q 2922 463 2592 192 
Q 2263 -78 1759 -78 
Q 1097 -78 719 397 
Q 266 969 266 2259 
z
M 844 2259 
Q 844 1131 1108 757 
Q 1372 384 1759 384 
Q 2147 384 2411 759 
Q 2675 1134 2675 2259 
Q 2675 3391 2411 3762 
Q 2147 4134 1753 4134 
Q 1366 4134 1134 3806 
Q 844 3388 844 2259 
z
" transform="scale(0.015625)"/>
        <path id="ArialMT-2e" d="M 581 0 
L 581 641 
L 1222 641 
L 1222 0 
L 581 0 
z
" transform="scale(0.015625)"/>
        <path id="ArialMT-2d" d="M 203 1375 
L 203 1941 
L 1931 1941 
L 1931 1375 
L 203 1375 
z
" transform="scale(0.015625)"/>
        <path id="ArialMT-35" d="M 266 1200 
L 856 1250 
Q 922 819 1161 601 
Q 1400 384 1738 384 
Q 2144 384 2425 690 
Q 2706 997 2706 1503 
Q 2706 1984 2436 2262 
Q 2166 2541 1728 2541 
Q 1456 2541 1237 2417 
Q 1019 2294 894 2097 
L 366 2166 
L 809 4519 
L 3088 4519 
L 3088 3981 
L 1259 3981 
L 1013 2750 
Q 1425 3038 1878 3038 
Q 2478 3038 2890 2622 
Q 3303 2206 3303 1553 
Q 3303 931 2941 478 
Q 2500 -78 1738 -78 
Q 1113 -78 717 272 
Q 322 622 266 1200 
z
" transform="scale(0.015625)"/>
       </defs>
       <use xlink:href="#ArialMT-30"/>
       <use xlink:href="#ArialMT-2e" x="55.615234"/>
       <use xlink:href="#ArialMT-30" x="83.398438"/>
       <use xlink:href="#ArialMT-30" x="139.013672"/>
       <use xlink:href="#ArialMT-2d" x="194.628906"/>
       <use xlink:href="#ArialMT-30" x="227.929688"/>
       <use xlink:href="#ArialMT-2e" x="283.544922"/>
       <use xlink:href="#ArialMT-30" x="311.328125"/>
       <use xlink:href="#ArialMT-35" x="366.943359"/>
      </g>
     </g>
    </g>
    <g id="xtick_2">
     <g id="line2d_2">
      <g>
       <use xlink:href="#mea6d651cf7" x="244.462379" y="422.407117" style="fill: #262626; stroke: #262626; stroke-width: 1.25"/>
      </g>
     </g>
     <g id="text_2">
      <!-- 0.05-0.10 -->
      <g style="fill: #262626" transform="translate(212.997895 515.757607) rotate(-45) scale(0.24 -0.24)">
       <defs>
        <path id="ArialMT-31" d="M 2384 0 
L 1822 0 
L 1822 3584 
Q 1619 3391 1289 3197 
Q 959 3003 697 2906 
L 697 3450 
Q 1169 3672 1522 3987 
Q 1875 4303 2022 4600 
L 2384 4600 
L 2384 0 
z
" transform="scale(0.015625)"/>
       </defs>
       <use xlink:href="#ArialMT-30"/>
       <use xlink:href="#ArialMT-2e" x="55.615234"/>
       <use xlink:href="#ArialMT-30" x="83.398438"/>
       <use xlink:href="#ArialMT-35" x="139.013672"/>
       <use xlink:href="#ArialMT-2d" x="194.628906"/>
       <use xlink:href="#ArialMT-30" x="227.929688"/>
       <use xlink:href="#ArialMT-2e" x="283.544922"/>
       <use xlink:href="#ArialMT-31" x="311.328125"/>
       <use xlink:href="#ArialMT-30" x="366.943359"/>
      </g>
     </g>
    </g>
    <g id="xtick_3">
     <g id="line2d_3">
      <g>
       <use xlink:href="#mea6d651cf7" x="332.410631" y="422.407117" style="fill: #262626; stroke: #262626; stroke-width: 1.25"/>
      </g>
     </g>
     <g id="text_3">
      <!-- 0.10-0.12 -->
      <g style="fill: #262626" transform="translate(300.946147 515.757607) rotate(-45) scale(0.24 -0.24)">
       <defs>
        <path id="ArialMT-32" d="M 3222 541 
L 3222 0 
L 194 0 
Q 188 203 259 391 
Q 375 700 629 1000 
Q 884 1300 1366 1694 
Q 2113 2306 2375 2664 
Q 2638 3022 2638 3341 
Q 2638 3675 2398 3904 
Q 2159 4134 1775 4134 
Q 1369 4134 1125 3890 
Q 881 3647 878 3216 
L 300 3275 
Q 359 3922 746 4261 
Q 1134 4600 1788 4600 
Q 2447 4600 2831 4234 
Q 3216 3869 3216 3328 
Q 3216 3053 3103 2787 
Q 2991 2522 2730 2228 
Q 2469 1934 1863 1422 
Q 1356 997 1212 845 
Q 1069 694 975 541 
L 3222 541 
z
" transform="scale(0.015625)"/>
       </defs>
       <use xlink:href="#ArialMT-30"/>
       <use xlink:href="#ArialMT-2e" x="55.615234"/>
       <use xlink:href="#ArialMT-31" x="83.398438"/>
       <use xlink:href="#ArialMT-30" x="139.013672"/>
       <use xlink:href="#ArialMT-2d" x="194.628906"/>
       <use xlink:href="#ArialMT-30" x="227.929688"/>
       <use xlink:href="#ArialMT-2e" x="283.544922"/>
       <use xlink:href="#ArialMT-31" x="311.328125"/>
       <use xlink:href="#ArialMT-32" x="366.943359"/>
      </g>
     </g>
    </g>
    <g id="xtick_4">
     <g id="line2d_4">
      <g>
       <use xlink:href="#mea6d651cf7" x="420.358884" y="422.407117" style="fill: #262626; stroke: #262626; stroke-width: 1.25"/>
      </g>
     </g>
     <g id="text_4">
      <!-- 0.12-0.15 -->
      <g style="fill: #262626" transform="translate(388.8944 515.757607) rotate(-45) scale(0.24 -0.24)">
       <use xlink:href="#ArialMT-30"/>
       <use xlink:href="#ArialMT-2e" x="55.615234"/>
       <use xlink:href="#ArialMT-31" x="83.398438"/>
       <use xlink:href="#ArialMT-32" x="139.013672"/>
       <use xlink:href="#ArialMT-2d" x="194.628906"/>
       <use xlink:href="#ArialMT-30" x="227.929688"/>
       <use xlink:href="#ArialMT-2e" x="283.544922"/>
       <use xlink:href="#ArialMT-31" x="311.328125"/>
       <use xlink:href="#ArialMT-35" x="366.943359"/>
      </g>
     </g>
    </g>
    <g id="xtick_5">
     <g id="line2d_5">
      <g>
       <use xlink:href="#mea6d651cf7" x="508.307137" y="422.407117" style="fill: #262626; stroke: #262626; stroke-width: 1.25"/>
      </g>
     </g>
     <g id="text_5">
      <!-- 0.15-0.20 -->
      <g style="fill: #262626" transform="translate(476.842653 515.757607) rotate(-45) scale(0.24 -0.24)">
       <use xlink:href="#ArialMT-30"/>
       <use xlink:href="#ArialMT-2e" x="55.615234"/>
       <use xlink:href="#ArialMT-31" x="83.398438"/>
       <use xlink:href="#ArialMT-35" x="139.013672"/>
       <use xlink:href="#ArialMT-2d" x="194.628906"/>
       <use xlink:href="#ArialMT-30" x="227.929688"/>
       <use xlink:href="#ArialMT-2e" x="283.544922"/>
       <use xlink:href="#ArialMT-32" x="311.328125"/>
       <use xlink:href="#ArialMT-30" x="366.943359"/>
      </g>
     </g>
    </g>
    <g id="xtick_6">
     <g id="line2d_6">
      <g>
       <use xlink:href="#mea6d651cf7" x="596.255389" y="422.407117" style="fill: #262626; stroke: #262626; stroke-width: 1.25"/>
      </g>
     </g>
     <g id="text_6">
      <!-- 0.20-0.22 -->
      <g style="fill: #262626" transform="translate(564.790905 515.757607) rotate(-45) scale(0.24 -0.24)">
       <use xlink:href="#ArialMT-30"/>
       <use xlink:href="#ArialMT-2e" x="55.615234"/>
       <use xlink:href="#ArialMT-32" x="83.398438"/>
       <use xlink:href="#ArialMT-30" x="139.013672"/>
       <use xlink:href="#ArialMT-2d" x="194.628906"/>
       <use xlink:href="#ArialMT-30" x="227.929688"/>
       <use xlink:href="#ArialMT-2e" x="283.544922"/>
       <use xlink:href="#ArialMT-32" x="311.328125"/>
       <use xlink:href="#ArialMT-32" x="366.943359"/>
      </g>
     </g>
    </g>
    <g id="xtick_7">
     <g id="line2d_7">
      <g>
       <use xlink:href="#mea6d651cf7" x="684.203642" y="422.407117" style="fill: #262626; stroke: #262626; stroke-width: 1.25"/>
      </g>
     </g>
     <g id="text_7">
      <!-- 0.22-0.27 -->
      <g style="fill: #262626" transform="translate(652.739158 515.757607) rotate(-45) scale(0.24 -0.24)">
       <defs>
        <path id="ArialMT-37" d="M 303 3981 
L 303 4522 
L 3269 4522 
L 3269 4084 
Q 2831 3619 2401 2847 
Q 1972 2075 1738 1259 
Q 1569 684 1522 0 
L 944 0 
Q 953 541 1156 1306 
Q 1359 2072 1739 2783 
Q 2119 3494 2547 3981 
L 303 3981 
z
" transform="scale(0.015625)"/>
       </defs>
       <use xlink:href="#ArialMT-30"/>
       <use xlink:href="#ArialMT-2e" x="55.615234"/>
       <use xlink:href="#ArialMT-32" x="83.398438"/>
       <use xlink:href="#ArialMT-32" x="139.013672"/>
       <use xlink:href="#ArialMT-2d" x="194.628906"/>
       <use xlink:href="#ArialMT-30" x="227.929688"/>
       <use xlink:href="#ArialMT-2e" x="283.544922"/>
       <use xlink:href="#ArialMT-32" x="311.328125"/>
       <use xlink:href="#ArialMT-37" x="366.943359"/>
      </g>
     </g>
    </g>
    <g id="text_8">
     <!-- Influence Team Strength -->
     <g style="fill: #262626" transform="translate(281.232009 544.601756) scale(0.24 -0.24)">
      <defs>
       <path id="Arial-BoldMT-49" d="M 438 0 
L 438 4581 
L 1363 4581 
L 1363 0 
L 438 0 
z
" transform="scale(0.015625)"/>
       <path id="Arial-BoldMT-6e" d="M 3478 0 
L 2600 0 
L 2600 1694 
Q 2600 2231 2544 2389 
Q 2488 2547 2361 2634 
Q 2234 2722 2056 2722 
Q 1828 2722 1647 2597 
Q 1466 2472 1398 2265 
Q 1331 2059 1331 1503 
L 1331 0 
L 453 0 
L 453 3319 
L 1269 3319 
L 1269 2831 
Q 1703 3394 2363 3394 
Q 2653 3394 2893 3289 
Q 3134 3184 3257 3021 
Q 3381 2859 3429 2653 
Q 3478 2447 3478 2063 
L 3478 0 
z
" transform="scale(0.015625)"/>
       <path id="Arial-BoldMT-66" d="M 75 3319 
L 563 3319 
L 563 3569 
Q 563 3988 652 4194 
Q 741 4400 980 4529 
Q 1219 4659 1584 4659 
Q 1959 4659 2319 4547 
L 2200 3934 
Q 1991 3984 1797 3984 
Q 1606 3984 1523 3895 
Q 1441 3806 1441 3553 
L 1441 3319 
L 2097 3319 
L 2097 2628 
L 1441 2628 
L 1441 0 
L 563 0 
L 563 2628 
L 75 2628 
L 75 3319 
z
" transform="scale(0.015625)"/>
       <path id="Arial-BoldMT-6c" d="M 459 0 
L 459 4581 
L 1338 4581 
L 1338 0 
L 459 0 
z
" transform="scale(0.015625)"/>
       <path id="Arial-BoldMT-75" d="M 2644 0 
L 2644 497 
Q 2463 231 2167 78 
Q 1872 -75 1544 -75 
Q 1209 -75 943 72 
Q 678 219 559 484 
Q 441 750 441 1219 
L 441 3319 
L 1319 3319 
L 1319 1794 
Q 1319 1094 1367 936 
Q 1416 778 1544 686 
Q 1672 594 1869 594 
Q 2094 594 2272 717 
Q 2450 841 2515 1023 
Q 2581 1206 2581 1919 
L 2581 3319 
L 3459 3319 
L 3459 0 
L 2644 0 
z
" transform="scale(0.015625)"/>
       <path id="Arial-BoldMT-65" d="M 2381 1056 
L 3256 909 
Q 3088 428 2723 176 
Q 2359 -75 1813 -75 
Q 947 -75 531 491 
Q 203 944 203 1634 
Q 203 2459 634 2926 
Q 1066 3394 1725 3394 
Q 2466 3394 2894 2905 
Q 3322 2416 3303 1406 
L 1103 1406 
Q 1113 1016 1316 798 
Q 1519 581 1822 581 
Q 2028 581 2168 693 
Q 2309 806 2381 1056 
z
M 2431 1944 
Q 2422 2325 2234 2523 
Q 2047 2722 1778 2722 
Q 1491 2722 1303 2513 
Q 1116 2303 1119 1944 
L 2431 1944 
z
" transform="scale(0.015625)"/>
       <path id="Arial-BoldMT-63" d="M 3353 2338 
L 2488 2181 
Q 2444 2441 2289 2572 
Q 2134 2703 1888 2703 
Q 1559 2703 1364 2476 
Q 1169 2250 1169 1719 
Q 1169 1128 1367 884 
Q 1566 641 1900 641 
Q 2150 641 2309 783 
Q 2469 925 2534 1272 
L 3397 1125 
Q 3263 531 2881 228 
Q 2500 -75 1859 -75 
Q 1131 -75 698 384 
Q 266 844 266 1656 
Q 266 2478 700 2936 
Q 1134 3394 1875 3394 
Q 2481 3394 2839 3133 
Q 3197 2872 3353 2338 
z
" transform="scale(0.015625)"/>
       <path id="Arial-BoldMT-20" transform="scale(0.015625)"/>
       <path id="Arial-BoldMT-54" d="M 1497 0 
L 1497 3806 
L 138 3806 
L 138 4581 
L 3778 4581 
L 3778 3806 
L 2422 3806 
L 2422 0 
L 1497 0 
z
" transform="scale(0.015625)"/>
       <path id="Arial-BoldMT-61" d="M 1116 2306 
L 319 2450 
Q 453 2931 781 3162 
Q 1109 3394 1756 3394 
Q 2344 3394 2631 3255 
Q 2919 3116 3036 2902 
Q 3153 2688 3153 2116 
L 3144 1091 
Q 3144 653 3186 445 
Q 3228 238 3344 0 
L 2475 0 
Q 2441 88 2391 259 
Q 2369 338 2359 363 
Q 2134 144 1878 34 
Q 1622 -75 1331 -75 
Q 819 -75 523 203 
Q 228 481 228 906 
Q 228 1188 362 1408 
Q 497 1628 739 1745 
Q 981 1863 1438 1950 
Q 2053 2066 2291 2166 
L 2291 2253 
Q 2291 2506 2166 2614 
Q 2041 2722 1694 2722 
Q 1459 2722 1328 2630 
Q 1197 2538 1116 2306 
z
M 2291 1594 
Q 2122 1538 1756 1459 
Q 1391 1381 1278 1306 
Q 1106 1184 1106 997 
Q 1106 813 1243 678 
Q 1381 544 1594 544 
Q 1831 544 2047 700 
Q 2206 819 2256 991 
Q 2291 1103 2291 1419 
L 2291 1594 
z
" transform="scale(0.015625)"/>
       <path id="Arial-BoldMT-6d" d="M 394 3319 
L 1203 3319 
L 1203 2866 
Q 1638 3394 2238 3394 
Q 2556 3394 2790 3262 
Q 3025 3131 3175 2866 
Q 3394 3131 3647 3262 
Q 3900 3394 4188 3394 
Q 4553 3394 4806 3245 
Q 5059 3097 5184 2809 
Q 5275 2597 5275 2122 
L 5275 0 
L 4397 0 
L 4397 1897 
Q 4397 2391 4306 2534 
Q 4184 2722 3931 2722 
Q 3747 2722 3584 2609 
Q 3422 2497 3350 2280 
Q 3278 2063 3278 1594 
L 3278 0 
L 2400 0 
L 2400 1819 
Q 2400 2303 2353 2443 
Q 2306 2584 2207 2653 
Q 2109 2722 1941 2722 
Q 1738 2722 1575 2612 
Q 1413 2503 1342 2297 
Q 1272 2091 1272 1613 
L 1272 0 
L 394 0 
L 394 3319 
z
" transform="scale(0.015625)"/>
       <path id="Arial-BoldMT-53" d="M 231 1491 
L 1131 1578 
Q 1213 1125 1461 912 
Q 1709 700 2131 700 
Q 2578 700 2804 889 
Q 3031 1078 3031 1331 
Q 3031 1494 2936 1608 
Q 2841 1722 2603 1806 
Q 2441 1863 1863 2006 
Q 1119 2191 819 2459 
Q 397 2838 397 3381 
Q 397 3731 595 4036 
Q 794 4341 1167 4500 
Q 1541 4659 2069 4659 
Q 2931 4659 3367 4281 
Q 3803 3903 3825 3272 
L 2900 3231 
Q 2841 3584 2645 3739 
Q 2450 3894 2059 3894 
Q 1656 3894 1428 3728 
Q 1281 3622 1281 3444 
Q 1281 3281 1419 3166 
Q 1594 3019 2269 2859 
Q 2944 2700 3267 2529 
Q 3591 2359 3773 2064 
Q 3956 1769 3956 1334 
Q 3956 941 3737 597 
Q 3519 253 3119 86 
Q 2719 -81 2122 -81 
Q 1253 -81 787 320 
Q 322 722 231 1491 
z
" transform="scale(0.015625)"/>
       <path id="Arial-BoldMT-74" d="M 1981 3319 
L 1981 2619 
L 1381 2619 
L 1381 1281 
Q 1381 875 1398 808 
Q 1416 741 1477 697 
Q 1538 653 1625 653 
Q 1747 653 1978 738 
L 2053 56 
Q 1747 -75 1359 -75 
Q 1122 -75 931 4 
Q 741 84 652 211 
Q 563 338 528 553 
Q 500 706 500 1172 
L 500 2619 
L 97 2619 
L 97 3319 
L 500 3319 
L 500 3978 
L 1381 4491 
L 1381 3319 
L 1981 3319 
z
" transform="scale(0.015625)"/>
       <path id="Arial-BoldMT-72" d="M 1300 0 
L 422 0 
L 422 3319 
L 1238 3319 
L 1238 2847 
Q 1447 3181 1614 3287 
Q 1781 3394 1994 3394 
Q 2294 3394 2572 3228 
L 2300 2463 
Q 2078 2606 1888 2606 
Q 1703 2606 1575 2504 
Q 1447 2403 1373 2137 
Q 1300 1872 1300 1025 
L 1300 0 
z
" transform="scale(0.015625)"/>
       <path id="Arial-BoldMT-67" d="M 378 -219 
L 1381 -341 
Q 1406 -516 1497 -581 
Q 1622 -675 1891 -675 
Q 2234 -675 2406 -572 
Q 2522 -503 2581 -350 
Q 2622 -241 2622 53 
L 2622 538 
Q 2228 0 1628 0 
Q 959 0 569 566 
Q 263 1013 263 1678 
Q 263 2513 664 2953 
Q 1066 3394 1663 3394 
Q 2278 3394 2678 2853 
L 2678 3319 
L 3500 3319 
L 3500 341 
Q 3500 -247 3403 -537 
Q 3306 -828 3131 -993 
Q 2956 -1159 2664 -1253 
Q 2372 -1347 1925 -1347 
Q 1081 -1347 728 -1058 
Q 375 -769 375 -325 
Q 375 -281 378 -219 
z
M 1163 1728 
Q 1163 1200 1367 954 
Q 1572 709 1872 709 
Q 2194 709 2416 961 
Q 2638 1213 2638 1706 
Q 2638 2222 2425 2472 
Q 2213 2722 1888 2722 
Q 1572 2722 1367 2476 
Q 1163 2231 1163 1728 
z
" transform="scale(0.015625)"/>
       <path id="Arial-BoldMT-68" d="M 1334 4581 
L 1334 2897 
Q 1759 3394 2350 3394 
Q 2653 3394 2897 3281 
Q 3141 3169 3264 2994 
Q 3388 2819 3433 2606 
Q 3478 2394 3478 1947 
L 3478 0 
L 2600 0 
L 2600 1753 
Q 2600 2275 2550 2415 
Q 2500 2556 2373 2639 
Q 2247 2722 2056 2722 
Q 1838 2722 1666 2615 
Q 1494 2509 1414 2295 
Q 1334 2081 1334 1663 
L 1334 0 
L 456 0 
L 456 4581 
L 1334 4581 
z
" transform="scale(0.015625)"/>
      </defs>
      <use xlink:href="#Arial-BoldMT-49"/>
      <use xlink:href="#Arial-BoldMT-6e" x="27.783203"/>
      <use xlink:href="#Arial-BoldMT-66" x="88.867188"/>
      <use xlink:href="#Arial-BoldMT-6c" x="122.167969"/>
      <use xlink:href="#Arial-BoldMT-75" x="149.951172"/>
      <use xlink:href="#Arial-BoldMT-65" x="211.035156"/>
      <use xlink:href="#Arial-BoldMT-6e" x="266.650391"/>
      <use xlink:href="#Arial-BoldMT-63" x="327.734375"/>
      <use xlink:href="#Arial-BoldMT-65" x="383.349609"/>
      <use xlink:href="#Arial-BoldMT-20" x="438.964844"/>
      <use xlink:href="#Arial-BoldMT-54" x="466.748047"/>
      <use xlink:href="#Arial-BoldMT-65" x="520.457031"/>
      <use xlink:href="#Arial-BoldMT-61" x="576.072266"/>
      <use xlink:href="#Arial-BoldMT-6d" x="631.6875"/>
      <use xlink:href="#Arial-BoldMT-20" x="720.603516"/>
      <use xlink:href="#Arial-BoldMT-53" x="748.386719"/>
      <use xlink:href="#Arial-BoldMT-74" x="815.085938"/>
      <use xlink:href="#Arial-BoldMT-72" x="848.386719"/>
      <use xlink:href="#Arial-BoldMT-65" x="887.302734"/>
      <use xlink:href="#Arial-BoldMT-6e" x="942.917969"/>
      <use xlink:href="#Arial-BoldMT-67" x="1004.001953"/>
      <use xlink:href="#Arial-BoldMT-74" x="1065.085938"/>
      <use xlink:href="#Arial-BoldMT-68" x="1098.386719"/>
     </g>
    </g>
   </g>
   <g id="matplotlib.axis_2">
    <g id="ytick_1">
     <g id="line2d_8">
      <defs>
       <path id="m60eb38d353" d="M 0 0 
L -6 0 
" style="stroke: #262626; stroke-width: 1.25"/>
      </defs>
      <g>
       <use xlink:href="#m60eb38d353" x="112.54" y="422.407117" style="fill: #262626; stroke: #262626; stroke-width: 1.25"/>
      </g>
     </g>
     <g id="text_9">
      <!-- 0 -->
      <g style="fill: #262626" transform="translate(89.69375 430.996492) scale(0.24 -0.24)">
       <use xlink:href="#ArialMT-30"/>
      </g>
     </g>
    </g>
    <g id="ytick_2">
     <g id="line2d_9">
      <g>
       <use xlink:href="#m60eb38d353" x="112.54" y="332.296409" style="fill: #262626; stroke: #262626; stroke-width: 1.25"/>
      </g>
     </g>
     <g id="text_10">
      <!-- 5 -->
      <g style="fill: #262626" transform="translate(89.69375 340.885784) scale(0.24 -0.24)">
       <use xlink:href="#ArialMT-35"/>
      </g>
     </g>
    </g>
    <g id="ytick_3">
     <g id="line2d_10">
      <g>
       <use xlink:href="#m60eb38d353" x="112.54" y="242.1857" style="fill: #262626; stroke: #262626; stroke-width: 1.25"/>
      </g>
     </g>
     <g id="text_11">
      <!-- 10 -->
      <g style="fill: #262626" transform="translate(76.3475 250.775075) scale(0.24 -0.24)">
       <use xlink:href="#ArialMT-31"/>
       <use xlink:href="#ArialMT-30" x="55.615234"/>
      </g>
     </g>
    </g>
    <g id="ytick_4">
     <g id="line2d_11">
      <g>
       <use xlink:href="#m60eb38d353" x="112.54" y="152.074992" style="fill: #262626; stroke: #262626; stroke-width: 1.25"/>
      </g>
     </g>
     <g id="text_12">
      <!-- 15 -->
      <g style="fill: #262626" transform="translate(76.3475 160.664367) scale(0.24 -0.24)">
       <use xlink:href="#ArialMT-31"/>
       <use xlink:href="#ArialMT-35" x="55.615234"/>
      </g>
     </g>
    </g>
    <g id="ytick_5">
     <g id="line2d_12">
      <g>
       <use xlink:href="#m60eb38d353" x="112.54" y="61.964283" style="fill: #262626; stroke: #262626; stroke-width: 1.25"/>
      </g>
     </g>
     <g id="text_13">
      <!-- 20 -->
      <g style="fill: #262626" transform="translate(76.3475 70.553658) scale(0.24 -0.24)">
       <use xlink:href="#ArialMT-32"/>
       <use xlink:href="#ArialMT-30" x="55.615234"/>
      </g>
     </g>
    </g>
    <g id="text_14">
     <!-- Number of PCs -->
     <g style="fill: #262626" transform="translate(63.61125 310.839183) rotate(-90) scale(0.24 -0.24)">
      <defs>
       <path id="Arial-BoldMT-4e" d="M 475 0 
L 475 4581 
L 1375 4581 
L 3250 1522 
L 3250 4581 
L 4109 4581 
L 4109 0 
L 3181 0 
L 1334 2988 
L 1334 0 
L 475 0 
z
" transform="scale(0.015625)"/>
       <path id="Arial-BoldMT-62" d="M 422 0 
L 422 4581 
L 1300 4581 
L 1300 2931 
Q 1706 3394 2263 3394 
Q 2869 3394 3266 2955 
Q 3663 2516 3663 1694 
Q 3663 844 3258 384 
Q 2853 -75 2275 -75 
Q 1991 -75 1714 67 
Q 1438 209 1238 488 
L 1238 0 
L 422 0 
z
M 1294 1731 
Q 1294 1216 1456 969 
Q 1684 619 2063 619 
Q 2353 619 2558 867 
Q 2763 1116 2763 1650 
Q 2763 2219 2556 2470 
Q 2350 2722 2028 2722 
Q 1713 2722 1503 2476 
Q 1294 2231 1294 1731 
z
" transform="scale(0.015625)"/>
       <path id="Arial-BoldMT-6f" d="M 256 1706 
Q 256 2144 472 2553 
Q 688 2963 1083 3178 
Q 1478 3394 1966 3394 
Q 2719 3394 3200 2905 
Q 3681 2416 3681 1669 
Q 3681 916 3195 420 
Q 2709 -75 1972 -75 
Q 1516 -75 1102 131 
Q 688 338 472 736 
Q 256 1134 256 1706 
z
M 1156 1659 
Q 1156 1166 1390 903 
Q 1625 641 1969 641 
Q 2313 641 2545 903 
Q 2778 1166 2778 1666 
Q 2778 2153 2545 2415 
Q 2313 2678 1969 2678 
Q 1625 2678 1390 2415 
Q 1156 2153 1156 1659 
z
" transform="scale(0.015625)"/>
       <path id="Arial-BoldMT-50" d="M 466 0 
L 466 4581 
L 1950 4581 
Q 2794 4581 3050 4513 
Q 3444 4409 3709 4064 
Q 3975 3719 3975 3172 
Q 3975 2750 3822 2462 
Q 3669 2175 3433 2011 
Q 3197 1847 2953 1794 
Q 2622 1728 1994 1728 
L 1391 1728 
L 1391 0 
L 466 0 
z
M 1391 3806 
L 1391 2506 
L 1897 2506 
Q 2444 2506 2628 2578 
Q 2813 2650 2917 2803 
Q 3022 2956 3022 3159 
Q 3022 3409 2875 3571 
Q 2728 3734 2503 3775 
Q 2338 3806 1838 3806 
L 1391 3806 
z
" transform="scale(0.015625)"/>
       <path id="Arial-BoldMT-43" d="M 3397 1684 
L 4294 1400 
Q 4088 650 3608 286 
Q 3128 -78 2391 -78 
Q 1478 -78 890 545 
Q 303 1169 303 2250 
Q 303 3394 893 4026 
Q 1484 4659 2447 4659 
Q 3288 4659 3813 4163 
Q 4125 3869 4281 3319 
L 3366 3100 
Q 3284 3456 3026 3662 
Q 2769 3869 2400 3869 
Q 1891 3869 1573 3503 
Q 1256 3138 1256 2319 
Q 1256 1450 1568 1081 
Q 1881 713 2381 713 
Q 2750 713 3015 947 
Q 3281 1181 3397 1684 
z
" transform="scale(0.015625)"/>
       <path id="Arial-BoldMT-73" d="M 150 947 
L 1031 1081 
Q 1088 825 1259 692 
Q 1431 559 1741 559 
Q 2081 559 2253 684 
Q 2369 772 2369 919 
Q 2369 1019 2306 1084 
Q 2241 1147 2013 1200 
Q 950 1434 666 1628 
Q 272 1897 272 2375 
Q 272 2806 612 3100 
Q 953 3394 1669 3394 
Q 2350 3394 2681 3172 
Q 3013 2950 3138 2516 
L 2309 2363 
Q 2256 2556 2107 2659 
Q 1959 2763 1684 2763 
Q 1338 2763 1188 2666 
Q 1088 2597 1088 2488 
Q 1088 2394 1175 2328 
Q 1294 2241 1995 2081 
Q 2697 1922 2975 1691 
Q 3250 1456 3250 1038 
Q 3250 581 2869 253 
Q 2488 -75 1741 -75 
Q 1063 -75 667 200 
Q 272 475 150 947 
z
" transform="scale(0.015625)"/>
      </defs>
      <use xlink:href="#Arial-BoldMT-4e"/>
      <use xlink:href="#Arial-BoldMT-75" x="72.216797"/>
      <use xlink:href="#Arial-BoldMT-6d" x="133.300781"/>
      <use xlink:href="#Arial-BoldMT-62" x="222.216797"/>
      <use xlink:href="#Arial-BoldMT-65" x="283.300781"/>
      <use xlink:href="#Arial-BoldMT-72" x="338.916016"/>
      <use xlink:href="#Arial-BoldMT-20" x="377.832031"/>
      <use xlink:href="#Arial-BoldMT-6f" x="405.615234"/>
      <use xlink:href="#Arial-BoldMT-66" x="466.699219"/>
      <use xlink:href="#Arial-BoldMT-20" x="500"/>
      <use xlink:href="#Arial-BoldMT-50" x="527.783203"/>
      <use xlink:href="#Arial-BoldMT-43" x="594.482422"/>
      <use xlink:href="#Arial-BoldMT-73" x="666.699219"/>
     </g>
    </g>
   </g>
   <g id="patch_3">
    <path d="M 121.334825 79.986425 
L 191.693427 79.986425 
L 191.693427 61.964283 
L 121.334825 61.964283 
L 121.334825 79.986425 
z
" clip-path="url(#p343e7acd4f)" style="fill: #e6f2e3; stroke: #202020; stroke-width: 1.5; stroke-linejoin: miter"/>
   </g>
   <g id="patch_4">
    <path d="M 209.283078 314.274267 
L 279.64168 314.274267 
L 279.64168 233.174629 
L 209.283078 233.174629 
L 209.283078 314.274267 
z
" clip-path="url(#p343e7acd4f)" style="fill: #cae4c5; stroke: #202020; stroke-width: 1.5; stroke-linejoin: miter"/>
   </g>
   <g id="patch_5">
    <path d="M 297.23133 368.340692 
L 367.589932 368.340692 
L 367.589932 354.824086 
L 297.23133 354.824086 
L 297.23133 368.340692 
z
" clip-path="url(#p343e7acd4f)" style="fill: #a7d1a2; stroke: #202020; stroke-width: 1.5; stroke-linejoin: miter"/>
   </g>
   <g id="patch_6">
    <path d="M 385.179583 386.362834 
L 455.538185 386.362834 
L 455.538185 372.846227 
L 385.179583 372.846227 
L 385.179583 386.362834 
z
" clip-path="url(#p343e7acd4f)" style="fill: #7dba7f; stroke: #202020; stroke-width: 1.5; stroke-linejoin: miter"/>
   </g>
   <g id="patch_7">
    <path d="M 473.127835 404.384975 
L 543.486438 404.384975 
L 543.486438 390.868369 
L 473.127835 390.868369 
L 473.127835 404.384975 
z
" clip-path="url(#p343e7acd4f)" style="fill: #4e9d63; stroke: #202020; stroke-width: 1.5; stroke-linejoin: miter"/>
   </g>
   <g id="patch_8">
    <path d="M 561.076088 404.384975 
L 631.43469 404.384975 
L 631.43469 386.362834 
L 561.076088 386.362834 
L 561.076088 404.384975 
z
" clip-path="url(#p343e7acd4f)" style="fill: #2f7d49; stroke: #202020; stroke-width: 1.5; stroke-linejoin: miter"/>
   </g>
   <g id="patch_9">
    <path d="M 649.024341 404.384975 
L 719.382943 404.384975 
L 719.382943 404.384975 
L 649.024341 404.384975 
L 649.024341 404.384975 
z
" clip-path="url(#p343e7acd4f)" style="fill: #0d5e2e; stroke: #202020; stroke-width: 1.5; stroke-linejoin: miter"/>
   </g>
   <g id="line2d_13">
    <path d="M 156.514126 79.986425 
L 156.514126 98.008567 
" clip-path="url(#p343e7acd4f)" style="fill: none; stroke: #202020; stroke-width: 1.5; stroke-linecap: round"/>
   </g>
   <g id="line2d_14">
    <path d="M 156.514126 61.964283 
L 156.514126 43.942142 
" clip-path="url(#p343e7acd4f)" style="fill: none; stroke: #202020; stroke-width: 1.5; stroke-linecap: round"/>
   </g>
   <g id="line2d_15">
    <path d="M 138.924476 98.008567 
L 174.103777 98.008567 
" clip-path="url(#p343e7acd4f)" style="fill: none; stroke: #202020; stroke-width: 1.5; stroke-linecap: round"/>
   </g>
   <g id="line2d_16">
    <path d="M 138.924476 43.942142 
L 174.103777 43.942142 
" clip-path="url(#p343e7acd4f)" style="fill: none; stroke: #202020; stroke-width: 1.5; stroke-linecap: round"/>
   </g>
   <g id="line2d_17">
    <defs>
     <path id="m930a7bceb6" d="M 0 3.535534 
L 2.12132 0 
L 0 -3.535534 
L -2.12132 0 
z
" style="stroke: #202020; stroke-linejoin: miter"/>
    </defs>
    <g clip-path="url(#p343e7acd4f)">
     <use xlink:href="#m930a7bceb6" x="156.514126" y="116.030708" style="fill: #202020; stroke: #202020; stroke-linejoin: miter"/>
    </g>
   </g>
   <g id="line2d_18">
    <path d="M 244.462379 314.274267 
L 244.462379 350.31855 
" clip-path="url(#p343e7acd4f)" style="fill: none; stroke: #202020; stroke-width: 1.5; stroke-linecap: round"/>
   </g>
   <g id="line2d_19">
    <path d="M 244.462379 233.174629 
L 244.462379 152.074992 
" clip-path="url(#p343e7acd4f)" style="fill: none; stroke: #202020; stroke-width: 1.5; stroke-linecap: round"/>
   </g>
   <g id="line2d_20">
    <path d="M 226.872728 350.31855 
L 262.052029 350.31855 
" clip-path="url(#p343e7acd4f)" style="fill: none; stroke: #202020; stroke-width: 1.5; stroke-linecap: round"/>
   </g>
   <g id="line2d_21">
    <path d="M 226.872728 152.074992 
L 262.052029 152.074992 
" clip-path="url(#p343e7acd4f)" style="fill: none; stroke: #202020; stroke-width: 1.5; stroke-linecap: round"/>
   </g>
   <g id="line2d_22"/>
   <g id="line2d_23">
    <path d="M 332.410631 368.340692 
L 332.410631 386.362834 
" clip-path="url(#p343e7acd4f)" style="fill: none; stroke: #202020; stroke-width: 1.5; stroke-linecap: round"/>
   </g>
   <g id="line2d_24">
    <path d="M 332.410631 354.824086 
L 332.410631 350.31855 
" clip-path="url(#p343e7acd4f)" style="fill: none; stroke: #202020; stroke-width: 1.5; stroke-linecap: round"/>
   </g>
   <g id="line2d_25">
    <path d="M 314.820981 386.362834 
L 350.000282 386.362834 
" clip-path="url(#p343e7acd4f)" style="fill: none; stroke: #202020; stroke-width: 1.5; stroke-linecap: round"/>
   </g>
   <g id="line2d_26">
    <path d="M 314.820981 350.31855 
L 350.000282 350.31855 
" clip-path="url(#p343e7acd4f)" style="fill: none; stroke: #202020; stroke-width: 1.5; stroke-linecap: round"/>
   </g>
   <g id="line2d_27">
    <g clip-path="url(#p343e7acd4f)">
     <use xlink:href="#m930a7bceb6" x="332.410631" y="206.141417" style="fill: #202020; stroke: #202020; stroke-linejoin: miter"/>
     <use xlink:href="#m930a7bceb6" x="332.410631" y="296.252125" style="fill: #202020; stroke: #202020; stroke-linejoin: miter"/>
    </g>
   </g>
   <g id="line2d_28">
    <path d="M 420.358884 386.362834 
L 420.358884 386.362834 
" clip-path="url(#p343e7acd4f)" style="fill: none; stroke: #202020; stroke-width: 1.5; stroke-linecap: round"/>
   </g>
   <g id="line2d_29">
    <path d="M 420.358884 372.846227 
L 420.358884 368.340692 
" clip-path="url(#p343e7acd4f)" style="fill: none; stroke: #202020; stroke-width: 1.5; stroke-linecap: round"/>
   </g>
   <g id="line2d_30">
    <path d="M 402.769233 386.362834 
L 437.948534 386.362834 
" clip-path="url(#p343e7acd4f)" style="fill: none; stroke: #202020; stroke-width: 1.5; stroke-linecap: round"/>
   </g>
   <g id="line2d_31">
    <path d="M 402.769233 368.340692 
L 437.948534 368.340692 
" clip-path="url(#p343e7acd4f)" style="fill: none; stroke: #202020; stroke-width: 1.5; stroke-linecap: round"/>
   </g>
   <g id="line2d_32">
    <g clip-path="url(#p343e7acd4f)">
     <use xlink:href="#m930a7bceb6" x="420.358884" y="350.31855" style="fill: #202020; stroke: #202020; stroke-linejoin: miter"/>
     <use xlink:href="#m930a7bceb6" x="420.358884" y="314.274267" style="fill: #202020; stroke: #202020; stroke-linejoin: miter"/>
    </g>
   </g>
   <g id="line2d_33">
    <path d="M 508.307137 404.384975 
L 508.307137 404.384975 
" clip-path="url(#p343e7acd4f)" style="fill: none; stroke: #202020; stroke-width: 1.5; stroke-linecap: round"/>
   </g>
   <g id="line2d_34">
    <path d="M 508.307137 390.868369 
L 508.307137 386.362834 
" clip-path="url(#p343e7acd4f)" style="fill: none; stroke: #202020; stroke-width: 1.5; stroke-linecap: round"/>
   </g>
   <g id="line2d_35">
    <path d="M 490.717486 404.384975 
L 525.896787 404.384975 
" clip-path="url(#p343e7acd4f)" style="fill: none; stroke: #202020; stroke-width: 1.5; stroke-linecap: round"/>
   </g>
   <g id="line2d_36">
    <path d="M 490.717486 386.362834 
L 525.896787 386.362834 
" clip-path="url(#p343e7acd4f)" style="fill: none; stroke: #202020; stroke-width: 1.5; stroke-linecap: round"/>
   </g>
   <g id="line2d_37"/>
   <g id="line2d_38">
    <path d="M 596.255389 404.384975 
L 596.255389 404.384975 
" clip-path="url(#p343e7acd4f)" style="fill: none; stroke: #202020; stroke-width: 1.5; stroke-linecap: round"/>
   </g>
   <g id="line2d_39">
    <path d="M 596.255389 386.362834 
L 596.255389 386.362834 
" clip-path="url(#p343e7acd4f)" style="fill: none; stroke: #202020; stroke-width: 1.5; stroke-linecap: round"/>
   </g>
   <g id="line2d_40">
    <path d="M 578.665739 404.384975 
L 613.84504 404.384975 
" clip-path="url(#p343e7acd4f)" style="fill: none; stroke: #202020; stroke-width: 1.5; stroke-linecap: round"/>
   </g>
   <g id="line2d_41">
    <path d="M 578.665739 386.362834 
L 613.84504 386.362834 
" clip-path="url(#p343e7acd4f)" style="fill: none; stroke: #202020; stroke-width: 1.5; stroke-linecap: round"/>
   </g>
   <g id="line2d_42"/>
   <g id="line2d_43">
    <path d="M 684.203642 404.384975 
L 684.203642 404.384975 
" clip-path="url(#p343e7acd4f)" style="fill: none; stroke: #202020; stroke-width: 1.5; stroke-linecap: round"/>
   </g>
   <g id="line2d_44">
    <path d="M 684.203642 404.384975 
L 684.203642 404.384975 
" clip-path="url(#p343e7acd4f)" style="fill: none; stroke: #202020; stroke-width: 1.5; stroke-linecap: round"/>
   </g>
   <g id="line2d_45">
    <path d="M 666.613991 404.384975 
L 701.793292 404.384975 
" clip-path="url(#p343e7acd4f)" style="fill: none; stroke: #202020; stroke-width: 1.5; stroke-linecap: round"/>
   </g>
   <g id="line2d_46">
    <path d="M 666.613991 404.384975 
L 701.793292 404.384975 
" clip-path="url(#p343e7acd4f)" style="fill: none; stroke: #202020; stroke-width: 1.5; stroke-linecap: round"/>
   </g>
   <g id="line2d_47">
    <g clip-path="url(#p343e7acd4f)">
     <use xlink:href="#m930a7bceb6" x="684.203642" y="386.362834" style="fill: #202020; stroke: #202020; stroke-linejoin: miter"/>
    </g>
   </g>
   <g id="line2d_48">
    <path d="M 121.334825 79.986425 
L 191.693427 79.986425 
" clip-path="url(#p343e7acd4f)" style="fill: none; stroke: #202020; stroke-width: 1.5; stroke-linecap: round"/>
   </g>
   <g id="line2d_49">
    <path d="M 209.283078 296.252125 
L 279.64168 296.252125 
" clip-path="url(#p343e7acd4f)" style="fill: none; stroke: #202020; stroke-width: 1.5; stroke-linecap: round"/>
   </g>
   <g id="line2d_50">
    <path d="M 297.23133 368.340692 
L 367.589932 368.340692 
" clip-path="url(#p343e7acd4f)" style="fill: none; stroke: #202020; stroke-width: 1.5; stroke-linecap: round"/>
   </g>
   <g id="line2d_51">
    <path d="M 385.179583 386.362834 
L 455.538185 386.362834 
" clip-path="url(#p343e7acd4f)" style="fill: none; stroke: #202020; stroke-width: 1.5; stroke-linecap: round"/>
   </g>
   <g id="line2d_52">
    <path d="M 473.127835 404.384975 
L 543.486438 404.384975 
" clip-path="url(#p343e7acd4f)" style="fill: none; stroke: #202020; stroke-width: 1.5; stroke-linecap: round"/>
   </g>
   <g id="line2d_53">
    <path d="M 561.076088 395.373904 
L 631.43469 395.373904 
" clip-path="url(#p343e7acd4f)" style="fill: none; stroke: #202020; stroke-width: 1.5; stroke-linecap: round"/>
   </g>
   <g id="line2d_54">
    <path d="M 649.024341 404.384975 
L 719.382943 404.384975 
" clip-path="url(#p343e7acd4f)" style="fill: none; stroke: #202020; stroke-width: 1.5; stroke-linecap: round"/>
   </g>
   <g id="patch_10">
    <path d="M 112.54 422.407117 
L 112.54 25.92 
" style="fill: none; stroke: #000000; stroke-width: 1.25; stroke-linejoin: miter; stroke-linecap: square"/>
   </g>
   <g id="patch_11">
    <path d="M 728.177768 422.407117 
L 728.177768 25.92 
" style="fill: none; stroke: #000000; stroke-width: 1.25; stroke-linejoin: miter; stroke-linecap: square"/>
   </g>
   <g id="patch_12">
    <path d="M 112.54 422.407117 
L 728.177768 422.407117 
" style="fill: none; stroke: #000000; stroke-width: 1.25; stroke-linejoin: miter; stroke-linecap: square"/>
   </g>
   <g id="patch_13">
    <path d="M 112.54 25.92 
L 728.177768 25.92 
" style="fill: none; stroke: #000000; stroke-width: 1.25; stroke-linejoin: miter; stroke-linecap: square"/>
   </g>
  </g>
 </g>
 <defs>
  <clipPath id="p343e7acd4f">
   <rect x="112.54" y="25.92" width="615.637768" height="396.487117"/>
  </clipPath>
 </defs>
</svg>
