<?xml version="1.0" encoding="utf-8" standalone="no"?>
<!DOCTYPE svg PUBLIC "-//W3C//DTD SVG 1.1//EN"
  "http://www.w3.org/Graphics/SVG/1.1/DTD/svg11.dtd">
<svg xmlns:xlink="http://www.w3.org/1999/xlink" width="1152pt" height="648pt" viewBox="0 0 1152 648" xmlns="http://www.w3.org/2000/svg" version="1.1">
 <metadata>
  <rdf:RDF xmlns:dc="http://purl.org/dc/elements/1.1/" xmlns:cc="http://creativecommons.org/ns#" xmlns:rdf="http://www.w3.org/1999/02/22-rdf-syntax-ns#">
   <cc:Work>
    <dc:type rdf:resource="http://purl.org/dc/dcmitype/StillImage"/>
    <dc:date>2023-01-26T16:32:01.554755</dc:date>
    <dc:format>image/svg+xml</dc:format>
    <dc:creator>
     <cc:Agent>
      <dc:title>Matplotlib v3.6.0, https://matplotlib.org/</dc:title>
     </cc:Agent>
    </dc:creator>
   </cc:Work>
  </rdf:RDF>
 </metadata>
 <defs>
  <style type="text/css">*{stroke-linejoin: round; stroke-linecap: butt}</style>
 </defs>
 <g id="figure_1">
  <g id="patch_1">
   <path d="M 0 648 
L 1152 648 
L 1152 0 
L 0 0 
z
" style="fill: #ffffff"/>
  </g>
  <g id="axes_1">
   <g id="patch_2">
    <path d="M 83.83 496.182666 
L 1123.92 496.182666 
L 1123.92 28.08 
L 83.83 28.08 
z
" style="fill: #ffffff"/>
   </g>
   <g id="matplotlib.axis_1">
    <g id="xtick_1">
     <g id="line2d_1">
      <defs>
       <path id="m4cb925d57f" d="M 0 0 
L 0 6 
" style="stroke: #262626; stroke-width: 1.25"/>
      </defs>
      <g>
       <use xlink:href="#m4cb925d57f" x="232.209829" y="496.182666" style="fill: #262626; stroke: #262626; stroke-width: 1.25"/>
      </g>
     </g>
     <g id="text_1">
      <!-- 0.2 -->
      <g style="fill: #262626" transform="translate(214.139829 524.292979) scale(0.26 -0.26)">
       <defs>
        <path id="ArialMT-30" d="M 266 2259 
Q 266 3072 433 3567 
Q 600 4063 929 4331 
Q 1259 4600 1759 4600 
Q 2128 4600 2406 4451 
Q 2684 4303 2865 4023 
Q 3047 3744 3150 3342 
Q 3253 2941 3253 2259 
Q 3253 1453 3087 958 
Q 2922 463 2592 192 
Q 2263 -78 1759 -78 
Q 1097 -78 719 397 
Q 266 969 266 2259 
z
M 844 2259 
Q 844 1131 1108 757 
Q 1372 384 1759 384 
Q 2147 384 2411 759 
Q 2675 1134 2675 2259 
Q 2675 3391 2411 3762 
Q 2147 4134 1753 4134 
Q 1366 4134 1134 3806 
Q 844 3388 844 2259 
z
" transform="scale(0.015625)"/>
        <path id="ArialMT-2e" d="M 581 0 
L 581 641 
L 1222 641 
L 1222 0 
L 581 0 
z
" transform="scale(0.015625)"/>
        <path id="ArialMT-32" d="M 3222 541 
L 3222 0 
L 194 0 
Q 188 203 259 391 
Q 375 700 629 1000 
Q 884 1300 1366 1694 
Q 2113 2306 2375 2664 
Q 2638 3022 2638 3341 
Q 2638 3675 2398 3904 
Q 2159 4134 1775 4134 
Q 1369 4134 1125 3890 
Q 881 3647 878 3216 
L 300 3275 
Q 359 3922 746 4261 
Q 1134 4600 1788 4600 
Q 2447 4600 2831 4234 
Q 3216 3869 3216 3328 
Q 3216 3053 3103 2787 
Q 2991 2522 2730 2228 
Q 2469 1934 1863 1422 
Q 1356 997 1212 845 
Q 1069 694 975 541 
L 3222 541 
z
" transform="scale(0.015625)"/>
       </defs>
       <use xlink:href="#ArialMT-30"/>
       <use xlink:href="#ArialMT-2e" x="55.615234"/>
       <use xlink:href="#ArialMT-32" x="83.398438"/>
      </g>
     </g>
    </g>
    <g id="xtick_2">
     <g id="line2d_2">
      <g>
       <use xlink:href="#m4cb925d57f" x="428.883573" y="496.182666" style="fill: #262626; stroke: #262626; stroke-width: 1.25"/>
      </g>
     </g>
     <g id="text_2">
      <!-- 0.4 -->
      <g style="fill: #262626" transform="translate(410.813573 524.292979) scale(0.26 -0.26)">
       <defs>
        <path id="ArialMT-34" d="M 2069 0 
L 2069 1097 
L 81 1097 
L 81 1613 
L 2172 4581 
L 2631 4581 
L 2631 1613 
L 3250 1613 
L 3250 1097 
L 2631 1097 
L 2631 0 
L 2069 0 
z
M 2069 1613 
L 2069 3678 
L 634 1613 
L 2069 1613 
z
" transform="scale(0.015625)"/>
       </defs>
       <use xlink:href="#ArialMT-30"/>
       <use xlink:href="#ArialMT-2e" x="55.615234"/>
       <use xlink:href="#ArialMT-34" x="83.398438"/>
      </g>
     </g>
    </g>
    <g id="xtick_3">
     <g id="line2d_3">
      <g>
       <use xlink:href="#m4cb925d57f" x="625.557316" y="496.182666" style="fill: #262626; stroke: #262626; stroke-width: 1.25"/>
      </g>
     </g>
     <g id="text_3">
      <!-- 0.6 -->
      <g style="fill: #262626" transform="translate(607.487316 524.292979) scale(0.26 -0.26)">
       <defs>
        <path id="ArialMT-36" d="M 3184 3459 
L 2625 3416 
Q 2550 3747 2413 3897 
Q 2184 4138 1850 4138 
Q 1581 4138 1378 3988 
Q 1113 3794 959 3422 
Q 806 3050 800 2363 
Q 1003 2672 1297 2822 
Q 1591 2972 1913 2972 
Q 2475 2972 2870 2558 
Q 3266 2144 3266 1488 
Q 3266 1056 3080 686 
Q 2894 316 2569 119 
Q 2244 -78 1831 -78 
Q 1128 -78 684 439 
Q 241 956 241 2144 
Q 241 3472 731 4075 
Q 1159 4600 1884 4600 
Q 2425 4600 2770 4297 
Q 3116 3994 3184 3459 
z
M 888 1484 
Q 888 1194 1011 928 
Q 1134 663 1356 523 
Q 1578 384 1822 384 
Q 2178 384 2434 671 
Q 2691 959 2691 1453 
Q 2691 1928 2437 2201 
Q 2184 2475 1800 2475 
Q 1419 2475 1153 2201 
Q 888 1928 888 1484 
z
" transform="scale(0.015625)"/>
       </defs>
       <use xlink:href="#ArialMT-30"/>
       <use xlink:href="#ArialMT-2e" x="55.615234"/>
       <use xlink:href="#ArialMT-36" x="83.398438"/>
      </g>
     </g>
    </g>
    <g id="xtick_4">
     <g id="line2d_4">
      <g>
       <use xlink:href="#m4cb925d57f" x="822.231059" y="496.182666" style="fill: #262626; stroke: #262626; stroke-width: 1.25"/>
      </g>
     </g>
     <g id="text_4">
      <!-- 0.8 -->
      <g style="fill: #262626" transform="translate(804.161059 524.292979) scale(0.26 -0.26)">
       <defs>
        <path id="ArialMT-38" d="M 1131 2484 
Q 781 2613 612 2850 
Q 444 3088 444 3419 
Q 444 3919 803 4259 
Q 1163 4600 1759 4600 
Q 2359 4600 2725 4251 
Q 3091 3903 3091 3403 
Q 3091 3084 2923 2848 
Q 2756 2613 2416 2484 
Q 2838 2347 3058 2040 
Q 3278 1734 3278 1309 
Q 3278 722 2862 322 
Q 2447 -78 1769 -78 
Q 1091 -78 675 323 
Q 259 725 259 1325 
Q 259 1772 486 2073 
Q 713 2375 1131 2484 
z
M 1019 3438 
Q 1019 3113 1228 2906 
Q 1438 2700 1772 2700 
Q 2097 2700 2305 2904 
Q 2513 3109 2513 3406 
Q 2513 3716 2298 3927 
Q 2084 4138 1766 4138 
Q 1444 4138 1231 3931 
Q 1019 3725 1019 3438 
z
M 838 1322 
Q 838 1081 952 856 
Q 1066 631 1291 507 
Q 1516 384 1775 384 
Q 2178 384 2440 643 
Q 2703 903 2703 1303 
Q 2703 1709 2433 1975 
Q 2163 2241 1756 2241 
Q 1359 2241 1098 1978 
Q 838 1716 838 1322 
z
" transform="scale(0.015625)"/>
       </defs>
       <use xlink:href="#ArialMT-30"/>
       <use xlink:href="#ArialMT-2e" x="55.615234"/>
       <use xlink:href="#ArialMT-38" x="83.398438"/>
      </g>
     </g>
    </g>
    <g id="xtick_5">
     <g id="line2d_5">
      <g>
       <use xlink:href="#m4cb925d57f" x="1018.904803" y="496.182666" style="fill: #262626; stroke: #262626; stroke-width: 1.25"/>
      </g>
     </g>
     <g id="text_5">
      <!-- 1.0 -->
      <g style="fill: #262626" transform="translate(1000.834803 524.292979) scale(0.26 -0.26)">
       <defs>
        <path id="ArialMT-31" d="M 2384 0 
L 1822 0 
L 1822 3584 
Q 1619 3391 1289 3197 
Q 959 3003 697 2906 
L 697 3450 
Q 1169 3672 1522 3987 
Q 1875 4303 2022 4600 
L 2384 4600 
L 2384 0 
z
" transform="scale(0.015625)"/>
       </defs>
       <use xlink:href="#ArialMT-31"/>
       <use xlink:href="#ArialMT-2e" x="55.615234"/>
       <use xlink:href="#ArialMT-30" x="83.398438"/>
      </g>
     </g>
    </g>
    <g id="text_6">
     <!-- PC1 Variance -->
     <g style="fill: #262626" transform="translate(521.489531 556.070791) scale(0.26 -0.26)">
      <defs>
       <path id="Arial-BoldMT-50" d="M 466 0 
L 466 4581 
L 1950 4581 
Q 2794 4581 3050 4513 
Q 3444 4409 3709 4064 
Q 3975 3719 3975 3172 
Q 3975 2750 3822 2462 
Q 3669 2175 3433 2011 
Q 3197 1847 2953 1794 
Q 2622 1728 1994 1728 
L 1391 1728 
L 1391 0 
L 466 0 
z
M 1391 3806 
L 1391 2506 
L 1897 2506 
Q 2444 2506 2628 2578 
Q 2813 2650 2917 2803 
Q 3022 2956 3022 3159 
Q 3022 3409 2875 3571 
Q 2728 3734 2503 3775 
Q 2338 3806 1838 3806 
L 1391 3806 
z
" transform="scale(0.015625)"/>
       <path id="Arial-BoldMT-43" d="M 3397 1684 
L 4294 1400 
Q 4088 650 3608 286 
Q 3128 -78 2391 -78 
Q 1478 -78 890 545 
Q 303 1169 303 2250 
Q 303 3394 893 4026 
Q 1484 4659 2447 4659 
Q 3288 4659 3813 4163 
Q 4125 3869 4281 3319 
L 3366 3100 
Q 3284 3456 3026 3662 
Q 2769 3869 2400 3869 
Q 1891 3869 1573 3503 
Q 1256 3138 1256 2319 
Q 1256 1450 1568 1081 
Q 1881 713 2381 713 
Q 2750 713 3015 947 
Q 3281 1181 3397 1684 
z
" transform="scale(0.015625)"/>
       <path id="Arial-BoldMT-31" d="M 2519 0 
L 1641 0 
L 1641 3309 
Q 1159 2859 506 2644 
L 506 3441 
Q 850 3553 1253 3867 
Q 1656 4181 1806 4600 
L 2519 4600 
L 2519 0 
z
" transform="scale(0.015625)"/>
       <path id="Arial-BoldMT-20" transform="scale(0.015625)"/>
       <path id="Arial-BoldMT-56" d="M 1634 0 
L -3 4581 
L 1000 4581 
L 2159 1191 
L 3281 4581 
L 4263 4581 
L 2622 0 
L 1634 0 
z
" transform="scale(0.015625)"/>
       <path id="Arial-BoldMT-61" d="M 1116 2306 
L 319 2450 
Q 453 2931 781 3162 
Q 1109 3394 1756 3394 
Q 2344 3394 2631 3255 
Q 2919 3116 3036 2902 
Q 3153 2688 3153 2116 
L 3144 1091 
Q 3144 653 3186 445 
Q 3228 238 3344 0 
L 2475 0 
Q 2441 88 2391 259 
Q 2369 338 2359 363 
Q 2134 144 1878 34 
Q 1622 -75 1331 -75 
Q 819 -75 523 203 
Q 228 481 228 906 
Q 228 1188 362 1408 
Q 497 1628 739 1745 
Q 981 1863 1438 1950 
Q 2053 2066 2291 2166 
L 2291 2253 
Q 2291 2506 2166 2614 
Q 2041 2722 1694 2722 
Q 1459 2722 1328 2630 
Q 1197 2538 1116 2306 
z
M 2291 1594 
Q 2122 1538 1756 1459 
Q 1391 1381 1278 1306 
Q 1106 1184 1106 997 
Q 1106 813 1243 678 
Q 1381 544 1594 544 
Q 1831 544 2047 700 
Q 2206 819 2256 991 
Q 2291 1103 2291 1419 
L 2291 1594 
z
" transform="scale(0.015625)"/>
       <path id="Arial-BoldMT-72" d="M 1300 0 
L 422 0 
L 422 3319 
L 1238 3319 
L 1238 2847 
Q 1447 3181 1614 3287 
Q 1781 3394 1994 3394 
Q 2294 3394 2572 3228 
L 2300 2463 
Q 2078 2606 1888 2606 
Q 1703 2606 1575 2504 
Q 1447 2403 1373 2137 
Q 1300 1872 1300 1025 
L 1300 0 
z
" transform="scale(0.015625)"/>
       <path id="Arial-BoldMT-69" d="M 459 3769 
L 459 4581 
L 1338 4581 
L 1338 3769 
L 459 3769 
z
M 459 0 
L 459 3319 
L 1338 3319 
L 1338 0 
L 459 0 
z
" transform="scale(0.015625)"/>
       <path id="Arial-BoldMT-6e" d="M 3478 0 
L 2600 0 
L 2600 1694 
Q 2600 2231 2544 2389 
Q 2488 2547 2361 2634 
Q 2234 2722 2056 2722 
Q 1828 2722 1647 2597 
Q 1466 2472 1398 2265 
Q 1331 2059 1331 1503 
L 1331 0 
L 453 0 
L 453 3319 
L 1269 3319 
L 1269 2831 
Q 1703 3394 2363 3394 
Q 2653 3394 2893 3289 
Q 3134 3184 3257 3021 
Q 3381 2859 3429 2653 
Q 3478 2447 3478 2063 
L 3478 0 
z
" transform="scale(0.015625)"/>
       <path id="Arial-BoldMT-63" d="M 3353 2338 
L 2488 2181 
Q 2444 2441 2289 2572 
Q 2134 2703 1888 2703 
Q 1559 2703 1364 2476 
Q 1169 2250 1169 1719 
Q 1169 1128 1367 884 
Q 1566 641 1900 641 
Q 2150 641 2309 783 
Q 2469 925 2534 1272 
L 3397 1125 
Q 3263 531 2881 228 
Q 2500 -75 1859 -75 
Q 1131 -75 698 384 
Q 266 844 266 1656 
Q 266 2478 700 2936 
Q 1134 3394 1875 3394 
Q 2481 3394 2839 3133 
Q 3197 2872 3353 2338 
z
" transform="scale(0.015625)"/>
       <path id="Arial-BoldMT-65" d="M 2381 1056 
L 3256 909 
Q 3088 428 2723 176 
Q 2359 -75 1813 -75 
Q 947 -75 531 491 
Q 203 944 203 1634 
Q 203 2459 634 2926 
Q 1066 3394 1725 3394 
Q 2466 3394 2894 2905 
Q 3322 2416 3303 1406 
L 1103 1406 
Q 1113 1016 1316 798 
Q 1519 581 1822 581 
Q 2028 581 2168 693 
Q 2309 806 2381 1056 
z
M 2431 1944 
Q 2422 2325 2234 2523 
Q 2047 2722 1778 2722 
Q 1491 2722 1303 2513 
Q 1116 2303 1119 1944 
L 2431 1944 
z
" transform="scale(0.015625)"/>
      </defs>
      <use xlink:href="#Arial-BoldMT-50"/>
      <use xlink:href="#Arial-BoldMT-43" x="66.699219"/>
      <use xlink:href="#Arial-BoldMT-31" x="138.916016"/>
      <use xlink:href="#Arial-BoldMT-20" x="194.53125"/>
      <use xlink:href="#Arial-BoldMT-56" x="222.314453"/>
      <use xlink:href="#Arial-BoldMT-61" x="283.513672"/>
      <use xlink:href="#Arial-BoldMT-72" x="339.128906"/>
      <use xlink:href="#Arial-BoldMT-69" x="378.044922"/>
      <use xlink:href="#Arial-BoldMT-61" x="405.828125"/>
      <use xlink:href="#Arial-BoldMT-6e" x="461.443359"/>
      <use xlink:href="#Arial-BoldMT-63" x="522.527344"/>
      <use xlink:href="#Arial-BoldMT-65" x="578.142578"/>
     </g>
    </g>
   </g>
   <g id="matplotlib.axis_2">
    <g id="ytick_1">
     <g id="line2d_6">
      <defs>
       <path id="m35786f53ac" d="M 0 0 
L -6 0 
" style="stroke: #262626; stroke-width: 1.25"/>
      </defs>
      <g>
       <use xlink:href="#m35786f53ac" x="83.83" y="496.182666" style="fill: #262626; stroke: #262626; stroke-width: 1.25"/>
      </g>
     </g>
     <g id="text_7">
      <!-- 0 -->
      <g style="fill: #262626" transform="translate(59.871563 505.487823) scale(0.26 -0.26)">
       <use xlink:href="#ArialMT-30"/>
      </g>
     </g>
    </g>
    <g id="ytick_2">
     <g id="line2d_7">
      <g>
       <use xlink:href="#m35786f53ac" x="83.83" y="397.822953" style="fill: #262626; stroke: #262626; stroke-width: 1.25"/>
      </g>
     </g>
     <g id="text_8">
      <!-- 1 -->
      <g style="fill: #262626" transform="translate(59.871563 407.12811) scale(0.26 -0.26)">
       <use xlink:href="#ArialMT-31"/>
      </g>
     </g>
    </g>
    <g id="ytick_3">
     <g id="line2d_8">
      <g>
       <use xlink:href="#m35786f53ac" x="83.83" y="299.46324" style="fill: #262626; stroke: #262626; stroke-width: 1.25"/>
      </g>
     </g>
     <g id="text_9">
      <!-- 2 -->
      <g style="fill: #262626" transform="translate(59.871563 308.768397) scale(0.26 -0.26)">
       <use xlink:href="#ArialMT-32"/>
      </g>
     </g>
    </g>
    <g id="ytick_4">
     <g id="line2d_9">
      <g>
       <use xlink:href="#m35786f53ac" x="83.83" y="201.103528" style="fill: #262626; stroke: #262626; stroke-width: 1.25"/>
      </g>
     </g>
     <g id="text_10">
      <!-- 3 -->
      <g style="fill: #262626" transform="translate(59.871563 210.408684) scale(0.26 -0.26)">
       <defs>
        <path id="ArialMT-33" d="M 269 1209 
L 831 1284 
Q 928 806 1161 595 
Q 1394 384 1728 384 
Q 2125 384 2398 659 
Q 2672 934 2672 1341 
Q 2672 1728 2419 1979 
Q 2166 2231 1775 2231 
Q 1616 2231 1378 2169 
L 1441 2663 
Q 1497 2656 1531 2656 
Q 1891 2656 2178 2843 
Q 2466 3031 2466 3422 
Q 2466 3731 2256 3934 
Q 2047 4138 1716 4138 
Q 1388 4138 1169 3931 
Q 950 3725 888 3313 
L 325 3413 
Q 428 3978 793 4289 
Q 1159 4600 1703 4600 
Q 2078 4600 2393 4439 
Q 2709 4278 2876 4000 
Q 3044 3722 3044 3409 
Q 3044 3113 2884 2869 
Q 2725 2625 2413 2481 
Q 2819 2388 3044 2092 
Q 3269 1797 3269 1353 
Q 3269 753 2831 336 
Q 2394 -81 1725 -81 
Q 1122 -81 723 278 
Q 325 638 269 1209 
z
" transform="scale(0.015625)"/>
       </defs>
       <use xlink:href="#ArialMT-33"/>
      </g>
     </g>
    </g>
    <g id="ytick_5">
     <g id="line2d_10">
      <g>
       <use xlink:href="#m35786f53ac" x="83.83" y="102.743815" style="fill: #262626; stroke: #262626; stroke-width: 1.25"/>
      </g>
     </g>
     <g id="text_11">
      <!-- 4 -->
      <g style="fill: #262626" transform="translate(59.871563 112.048971) scale(0.26 -0.26)">
       <use xlink:href="#ArialMT-34"/>
      </g>
     </g>
    </g>
    <g id="text_12">
     <!-- Density -->
     <g style="fill: #262626" transform="translate(46.399375 309.087739) rotate(-90) scale(0.26 -0.26)">
      <defs>
       <path id="Arial-BoldMT-44" d="M 463 4581 
L 2153 4581 
Q 2725 4581 3025 4494 
Q 3428 4375 3715 4072 
Q 4003 3769 4153 3330 
Q 4303 2891 4303 2247 
Q 4303 1681 4163 1272 
Q 3991 772 3672 463 
Q 3431 228 3022 97 
Q 2716 0 2203 0 
L 463 0 
L 463 4581 
z
M 1388 3806 
L 1388 772 
L 2078 772 
Q 2466 772 2638 816 
Q 2863 872 3011 1006 
Q 3159 1141 3253 1448 
Q 3347 1756 3347 2288 
Q 3347 2819 3253 3103 
Q 3159 3388 2990 3547 
Q 2822 3706 2563 3763 
Q 2369 3806 1803 3806 
L 1388 3806 
z
" transform="scale(0.015625)"/>
       <path id="Arial-BoldMT-73" d="M 150 947 
L 1031 1081 
Q 1088 825 1259 692 
Q 1431 559 1741 559 
Q 2081 559 2253 684 
Q 2369 772 2369 919 
Q 2369 1019 2306 1084 
Q 2241 1147 2013 1200 
Q 950 1434 666 1628 
Q 272 1897 272 2375 
Q 272 2806 612 3100 
Q 953 3394 1669 3394 
Q 2350 3394 2681 3172 
Q 3013 2950 3138 2516 
L 2309 2363 
Q 2256 2556 2107 2659 
Q 1959 2763 1684 2763 
Q 1338 2763 1188 2666 
Q 1088 2597 1088 2488 
Q 1088 2394 1175 2328 
Q 1294 2241 1995 2081 
Q 2697 1922 2975 1691 
Q 3250 1456 3250 1038 
Q 3250 581 2869 253 
Q 2488 -75 1741 -75 
Q 1063 -75 667 200 
Q 272 475 150 947 
z
" transform="scale(0.015625)"/>
       <path id="Arial-BoldMT-74" d="M 1981 3319 
L 1981 2619 
L 1381 2619 
L 1381 1281 
Q 1381 875 1398 808 
Q 1416 741 1477 697 
Q 1538 653 1625 653 
Q 1747 653 1978 738 
L 2053 56 
Q 1747 -75 1359 -75 
Q 1122 -75 931 4 
Q 741 84 652 211 
Q 563 338 528 553 
Q 500 706 500 1172 
L 500 2619 
L 97 2619 
L 97 3319 
L 500 3319 
L 500 3978 
L 1381 4491 
L 1381 3319 
L 1981 3319 
z
" transform="scale(0.015625)"/>
       <path id="Arial-BoldMT-79" d="M 44 3319 
L 978 3319 
L 1772 963 
L 2547 3319 
L 3456 3319 
L 2284 125 
L 2075 -453 
Q 1959 -744 1854 -897 
Q 1750 -1050 1614 -1145 
Q 1478 -1241 1279 -1294 
Q 1081 -1347 831 -1347 
Q 578 -1347 334 -1294 
L 256 -606 
Q 463 -647 628 -647 
Q 934 -647 1081 -467 
Q 1228 -288 1306 -9 
L 44 3319 
z
" transform="scale(0.015625)"/>
      </defs>
      <use xlink:href="#Arial-BoldMT-44"/>
      <use xlink:href="#Arial-BoldMT-65" x="72.216797"/>
      <use xlink:href="#Arial-BoldMT-6e" x="127.832031"/>
      <use xlink:href="#Arial-BoldMT-73" x="188.916016"/>
      <use xlink:href="#Arial-BoldMT-69" x="244.53125"/>
      <use xlink:href="#Arial-BoldMT-74" x="272.314453"/>
      <use xlink:href="#Arial-BoldMT-79" x="305.615234"/>
     </g>
    </g>
   </g>
   <g id="PolyCollection_1">
    <defs>
     <path id="m2a7d0966b0" d="M 131.106818 -151.853939 
L 131.106818 -151.817334 
L 135.858257 -151.817334 
L 140.609696 -151.817334 
L 145.361135 -151.817334 
L 150.112574 -151.817334 
L 154.864013 -151.817334 
L 159.615452 -151.817334 
L 164.366891 -151.817334 
L 169.11833 -151.817334 
L 173.869769 -151.817334 
L 178.621208 -151.817334 
L 183.372647 -151.817334 
L 188.124086 -151.817334 
L 192.875525 -151.817334 
L 197.626964 -151.817334 
L 202.378403 -151.817334 
L 207.129842 -151.817334 
L 211.881281 -151.817334 
L 216.63272 -151.817334 
L 221.384159 -151.817334 
L 226.135598 -151.817334 
L 230.887037 -151.817334 
L 235.638476 -151.817334 
L 240.389915 -151.817334 
L 245.141354 -151.817334 
L 249.892794 -151.817334 
L 254.644233 -151.817334 
L 259.395672 -151.817334 
L 264.147111 -151.817334 
L 268.89855 -151.817334 
L 273.649989 -151.817334 
L 278.401428 -151.817334 
L 283.152867 -151.817334 
L 287.904306 -151.817334 
L 292.655745 -151.817334 
L 297.407184 -151.817334 
L 302.158623 -151.817334 
L 306.910062 -151.817334 
L 311.661501 -151.817334 
L 316.41294 -151.817334 
L 321.164379 -151.817334 
L 325.915818 -151.817334 
L 330.667257 -151.817334 
L 335.418696 -151.817334 
L 340.170135 -151.817334 
L 344.921574 -151.817334 
L 349.673013 -151.817334 
L 354.424452 -151.817334 
L 359.175891 -151.817334 
L 363.92733 -151.817334 
L 368.678769 -151.817334 
L 373.430208 -151.817334 
L 378.181647 -151.817334 
L 382.933086 -151.817334 
L 387.684525 -151.817334 
L 392.435964 -151.817334 
L 397.187403 -151.817334 
L 401.938842 -151.817334 
L 406.690281 -151.817334 
L 411.44172 -151.817334 
L 416.193159 -151.817334 
L 420.944598 -151.817334 
L 425.696037 -151.817334 
L 430.447476 -151.817334 
L 435.198915 -151.817334 
L 439.950354 -151.817334 
L 444.701793 -151.817334 
L 449.453232 -151.817334 
L 454.204671 -151.817334 
L 458.95611 -151.817334 
L 463.707549 -151.817334 
L 468.458988 -151.817334 
L 473.210427 -151.817334 
L 477.961866 -151.817334 
L 482.713305 -151.817334 
L 487.464744 -151.817334 
L 492.216183 -151.817334 
L 496.967622 -151.817334 
L 501.719061 -151.817334 
L 506.4705 -151.817334 
L 511.221939 -151.817334 
L 515.973378 -151.817334 
L 520.724817 -151.817334 
L 525.476256 -151.817334 
L 530.227695 -151.817334 
L 534.979134 -151.817334 
L 539.730573 -151.817334 
L 544.482012 -151.817334 
L 549.233451 -151.817334 
L 553.98489 -151.817334 
L 558.736329 -151.817334 
L 563.487768 -151.817334 
L 568.239207 -151.817334 
L 572.990646 -151.817334 
L 577.742085 -151.817334 
L 582.493524 -151.817334 
L 587.244963 -151.817334 
L 591.996402 -151.817334 
L 596.747841 -151.817334 
L 601.49928 -151.817334 
L 606.25072 -151.817334 
L 611.002159 -151.817334 
L 615.753598 -151.817334 
L 620.505037 -151.817334 
L 625.256476 -151.817334 
L 630.007915 -151.817334 
L 634.759354 -151.817334 
L 639.510793 -151.817334 
L 644.262232 -151.817334 
L 649.013671 -151.817334 
L 653.76511 -151.817334 
L 658.516549 -151.817334 
L 663.267988 -151.817334 
L 668.019427 -151.817334 
L 672.770866 -151.817334 
L 677.522305 -151.817334 
L 682.273744 -151.817334 
L 687.025183 -151.817334 
L 691.776622 -151.817334 
L 696.528061 -151.817334 
L 701.2795 -151.817334 
L 706.030939 -151.817334 
L 710.782378 -151.817334 
L 715.533817 -151.817334 
L 720.285256 -151.817334 
L 725.036695 -151.817334 
L 729.788134 -151.817334 
L 734.539573 -151.817334 
L 739.291012 -151.817334 
L 744.042451 -151.817334 
L 748.79389 -151.817334 
L 753.545329 -151.817334 
L 758.296768 -151.817334 
L 763.048207 -151.817334 
L 767.799646 -151.817334 
L 772.551085 -151.817334 
L 777.302524 -151.817334 
L 782.053963 -151.817334 
L 786.805402 -151.817334 
L 791.556841 -151.817334 
L 796.30828 -151.817334 
L 801.059719 -151.817334 
L 805.811158 -151.817334 
L 810.562597 -151.817334 
L 815.314036 -151.817334 
L 820.065475 -151.817334 
L 824.816914 -151.817334 
L 829.568353 -151.817334 
L 834.319792 -151.817334 
L 839.071231 -151.817334 
L 843.82267 -151.817334 
L 848.574109 -151.817334 
L 853.325548 -151.817334 
L 858.076987 -151.817334 
L 862.828426 -151.817334 
L 867.579865 -151.817334 
L 872.331304 -151.817334 
L 877.082743 -151.817334 
L 881.834182 -151.817334 
L 886.585621 -151.817334 
L 891.33706 -151.817334 
L 896.088499 -151.817334 
L 900.839938 -151.817334 
L 905.591377 -151.817334 
L 910.342816 -151.817334 
L 915.094255 -151.817334 
L 919.845694 -151.817334 
L 924.597133 -151.817334 
L 929.348572 -151.817334 
L 934.100011 -151.817334 
L 938.85145 -151.817334 
L 943.602889 -151.817334 
L 948.354328 -151.817334 
L 953.105767 -151.817334 
L 957.857206 -151.817334 
L 962.608646 -151.817334 
L 967.360085 -151.817334 
L 972.111524 -151.817334 
L 976.862963 -151.817334 
L 981.614402 -151.817334 
L 986.365841 -151.817334 
L 991.11728 -151.817334 
L 995.868719 -151.817334 
L 1000.620158 -151.817334 
L 1005.371597 -151.817334 
L 1010.123036 -151.817334 
L 1014.874475 -151.817334 
L 1019.625914 -151.817334 
L 1024.377353 -151.817334 
L 1029.128792 -151.817334 
L 1033.880231 -151.817334 
L 1038.63167 -151.817334 
L 1043.383109 -151.817334 
L 1048.134548 -151.817334 
L 1052.885987 -151.817334 
L 1057.637426 -151.817334 
L 1062.388865 -151.817334 
L 1067.140304 -151.817334 
L 1071.891743 -151.817334 
L 1076.643182 -151.817334 
L 1076.643182 -151.87282 
L 1076.643182 -151.87282 
L 1071.891743 -151.895208 
L 1067.140304 -151.925533 
L 1062.388865 -151.966166 
L 1057.637426 -152.020035 
L 1052.885987 -152.090693 
L 1048.134548 -152.182398 
L 1043.383109 -152.300173 
L 1038.63167 -152.449853 
L 1033.880231 -152.638113 
L 1029.128792 -152.872461 
L 1024.377353 -153.161195 
L 1019.625914 -153.513317 
L 1014.874475 -153.9384 
L 1010.123036 -154.446399 
L 1005.371597 -155.047414 
L 1000.620158 -155.751396 
L 995.868719 -156.567813 
L 991.11728 -157.505277 
L 986.365841 -158.571154 
L 981.614402 -159.771164 
L 976.862963 -161.108999 
L 972.111524 -162.585977 
L 967.360085 -164.200761 
L 962.608646 -165.94916 
L 957.857206 -167.824038 
L 953.105767 -169.815347 
L 948.354328 -171.910297 
L 943.602889 -174.093671 
L 938.85145 -176.348275 
L 934.100011 -178.655517 
L 929.348572 -180.996087 
L 924.597133 -183.350711 
L 919.845694 -185.700934 
L 915.094255 -188.029887 
L 910.342816 -190.322984 
L 905.591377 -192.568509 
L 900.839938 -194.758031 
L 896.088499 -196.886627 
L 891.33706 -198.952867 
L 886.585621 -200.958566 
L 881.834182 -202.908296 
L 877.082743 -204.808689 
L 872.331304 -206.66756 
L 867.579865 -208.492925 
L 862.828426 -210.291959 
L 858.076987 -212.069983 
L 853.325548 -213.829567 
L 848.574109 -215.569798 
L 843.82267 -217.285804 
L 839.071231 -218.96857 
L 834.319792 -220.60508 
L 829.568353 -222.178796 
L 824.816914 -223.670447 
L 820.065475 -225.059102 
L 815.314036 -226.323445 
L 810.562597 -227.443187 
L 805.811158 -228.40051 
L 801.059719 -229.181458 
L 796.30828 -229.777158 
L 791.556841 -230.184811 
L 786.805402 -230.408357 
L 782.053963 -230.458788 
L 777.302524 -230.354064 
L 772.551085 -230.118651 
L 767.799646 -229.782689 
L 763.048207 -229.38086 
L 758.296768 -228.950992 
L 753.545329 -228.532508 
L 748.79389 -228.164784 
L 744.042451 -227.885507 
L 739.291012 -227.729126 
L 734.539573 -227.725457 
L 729.788134 -227.898532 
L 725.036695 -228.26572 
L 720.285256 -228.837187 
L 715.533817 -229.615716 
L 710.782378 -230.596888 
L 706.030939 -231.769648 
L 701.2795 -233.117207 
L 696.528061 -234.618271 
L 691.776622 -236.248521 
L 687.025183 -237.982285 
L 682.273744 -239.794305 
L 677.522305 -241.661516 
L 672.770866 -243.564705 
L 668.019427 -245.48997 
L 663.267988 -247.429863 
L 658.516549 -249.384138 
L 653.76511 -251.360037 
L 649.013671 -253.372094 
L 644.262232 -255.441441 
L 639.510793 -257.594666 
L 634.759354 -259.862286 
L 630.007915 -262.276938 
L 625.256476 -264.871417 
L 620.505037 -267.676689 
L 615.753598 -270.720033 
L 611.002159 -274.023445 
L 606.25072 -277.602414 
L 601.49928 -281.465168 
L 596.747841 -285.612432 
L 591.996402 -290.037722 
L 587.244963 -294.728121 
L 582.493524 -299.665495 
L 577.742085 -304.828004 
L 572.990646 -310.191796 
L 568.239207 -315.732727 
L 563.487768 -321.427937 
L 558.736329 -327.257163 
L 553.98489 -333.203641 
L 549.233451 -339.254542 
L 544.482012 -345.400872 
L 539.730573 -351.636872 
L 534.979134 -357.958946 
L 530.227695 -364.364228 
L 525.476256 -370.848909 
L 520.724817 -377.406467 
L 515.973378 -384.025962 
L 511.221939 -390.690528 
L 506.4705 -397.376204 
L 501.719061 -404.051173 
L 496.967622 -410.675486 
L 492.216183 -417.20129 
L 487.464744 -423.573516 
L 482.713305 -429.73101 
L 477.961866 -435.607993 
L 473.210427 -441.135791 
L 468.458988 -446.24469 
L 463.707549 -450.865848 
L 458.95611 -454.933145 
L 454.204671 -458.38488 
L 449.453232 -461.16526 
L 444.701793 -463.225608 
L 439.950354 -464.525266 
L 435.198915 -465.032166 
L 430.447476 -464.723082 
L 425.696037 -463.583564 
L 420.944598 -461.607612 
L 416.193159 -458.79713 
L 411.44172 -455.161218 
L 406.690281 -450.71539 
L 401.938842 -445.480779 
L 397.187403 -439.48342 
L 392.435964 -432.753652 
L 387.684525 -425.325711 
L 382.933086 -417.237533 
L 378.181647 -408.530768 
L 373.430208 -399.250987 
L 368.678769 -389.448025 
L 363.92733 -379.176393 
L 359.175891 -368.495658 
L 354.424452 -357.470715 
L 349.673013 -346.17183 
L 344.921574 -334.674391 
L 340.170135 -323.058313 
L 335.418696 -311.407051 
L 330.667257 -299.806255 
L 325.915818 -288.342096 
L 321.164379 -277.099351 
L 316.41294 -266.159348 
L 311.661501 -255.597901 
L 306.910062 -245.483363 
L 302.158623 -235.874908 
L 297.407184 -226.821175 
L 292.655745 -218.359323 
L 287.904306 -210.514565 
L 283.152867 -203.300192 
L 278.401428 -196.718046 
L 273.649989 -190.759415 
L 268.89855 -185.406252 
L 264.147111 -180.632634 
L 259.395672 -176.406359 
L 254.644233 -172.690589 
L 249.892794 -169.445434 
L 245.141354 -166.629427 
L 240.389915 -164.200819 
L 235.638476 -162.118658 
L 230.887037 -160.343651 
L 226.135598 -158.838798 
L 221.384159 -157.569814 
L 216.63272 -156.505374 
L 211.881281 -155.617199 
L 207.129842 -154.880024 
L 202.378403 -154.271481 
L 197.626964 -153.77192 
L 192.875525 -153.364196 
L 188.124086 -153.033437 
L 183.372647 -152.766817 
L 178.621208 -152.553333 
L 173.869769 -152.383595 
L 169.11833 -152.249631 
L 164.366891 -152.144718 
L 159.615452 -152.063217 
L 154.864013 -152.000434 
L 150.112574 -151.952491 
L 145.361135 -151.916208 
L 140.609696 -151.889003 
L 135.858257 -151.868799 
L 131.106818 -151.853939 
z
" style="stroke: #fb8072"/>
    </defs>
    <g clip-path="url(#p22f4994d9c)">
     <use xlink:href="#m2a7d0966b0" x="0" y="648" style="fill: #fb8072; fill-opacity: 0.45; stroke: #fb8072"/>
    </g>
   </g>
   <g id="PolyCollection_2">
    <defs>
     <path id="m4bf8f11469" d="M 134.534088 -151.932439 
L 134.534088 -151.817334 
L 138.709355 -151.817334 
L 142.884622 -151.817334 
L 147.059889 -151.817334 
L 151.235156 -151.817334 
L 155.410422 -151.817334 
L 159.585689 -151.817334 
L 163.760956 -151.817334 
L 167.936223 -151.817334 
L 172.11149 -151.817334 
L 176.286757 -151.817334 
L 180.462023 -151.817334 
L 184.63729 -151.817334 
L 188.812557 -151.817334 
L 192.987824 -151.817334 
L 197.163091 -151.817334 
L 201.338358 -151.817334 
L 205.513625 -151.817334 
L 209.688891 -151.817334 
L 213.864158 -151.817334 
L 218.039425 -151.817334 
L 222.214692 -151.817334 
L 226.389959 -151.817334 
L 230.565226 -151.817334 
L 234.740493 -151.817334 
L 238.915759 -151.817334 
L 243.091026 -151.817334 
L 247.266293 -151.817334 
L 251.44156 -151.817334 
L 255.616827 -151.817334 
L 259.792094 -151.817334 
L 263.967361 -151.817334 
L 268.142627 -151.817334 
L 272.317894 -151.817334 
L 276.493161 -151.817334 
L 280.668428 -151.817334 
L 284.843695 -151.817334 
L 289.018962 -151.817334 
L 293.194229 -151.817334 
L 297.369495 -151.817334 
L 301.544762 -151.817334 
L 305.720029 -151.817334 
L 309.895296 -151.817334 
L 314.070563 -151.817334 
L 318.24583 -151.817334 
L 322.421096 -151.817334 
L 326.596363 -151.817334 
L 330.77163 -151.817334 
L 334.946897 -151.817334 
L 339.122164 -151.817334 
L 343.297431 -151.817334 
L 347.472698 -151.817334 
L 351.647964 -151.817334 
L 355.823231 -151.817334 
L 359.998498 -151.817334 
L 364.173765 -151.817334 
L 368.349032 -151.817334 
L 372.524299 -151.817334 
L 376.699566 -151.817334 
L 380.874832 -151.817334 
L 385.050099 -151.817334 
L 389.225366 -151.817334 
L 393.400633 -151.817334 
L 397.5759 -151.817334 
L 401.751167 -151.817334 
L 405.926434 -151.817334 
L 410.1017 -151.817334 
L 414.276967 -151.817334 
L 418.452234 -151.817334 
L 422.627501 -151.817334 
L 426.802768 -151.817334 
L 430.978035 -151.817334 
L 435.153302 -151.817334 
L 439.328568 -151.817334 
L 443.503835 -151.817334 
L 447.679102 -151.817334 
L 451.854369 -151.817334 
L 456.029636 -151.817334 
L 460.204903 -151.817334 
L 464.38017 -151.817334 
L 468.555436 -151.817334 
L 472.730703 -151.817334 
L 476.90597 -151.817334 
L 481.081237 -151.817334 
L 485.256504 -151.817334 
L 489.431771 -151.817334 
L 493.607037 -151.817334 
L 497.782304 -151.817334 
L 501.957571 -151.817334 
L 506.132838 -151.817334 
L 510.308105 -151.817334 
L 514.483372 -151.817334 
L 518.658639 -151.817334 
L 522.833905 -151.817334 
L 527.009172 -151.817334 
L 531.184439 -151.817334 
L 535.359706 -151.817334 
L 539.534973 -151.817334 
L 543.71024 -151.817334 
L 547.885507 -151.817334 
L 552.060773 -151.817334 
L 556.23604 -151.817334 
L 560.411307 -151.817334 
L 564.586574 -151.817334 
L 568.761841 -151.817334 
L 572.937108 -151.817334 
L 577.112375 -151.817334 
L 581.287641 -151.817334 
L 585.462908 -151.817334 
L 589.638175 -151.817334 
L 593.813442 -151.817334 
L 597.988709 -151.817334 
L 602.163976 -151.817334 
L 606.339243 -151.817334 
L 610.514509 -151.817334 
L 614.689776 -151.817334 
L 618.865043 -151.817334 
L 623.04031 -151.817334 
L 627.215577 -151.817334 
L 631.390844 -151.817334 
L 635.56611 -151.817334 
L 639.741377 -151.817334 
L 643.916644 -151.817334 
L 648.091911 -151.817334 
L 652.267178 -151.817334 
L 656.442445 -151.817334 
L 660.617712 -151.817334 
L 664.792978 -151.817334 
L 668.968245 -151.817334 
L 673.143512 -151.817334 
L 677.318779 -151.817334 
L 681.494046 -151.817334 
L 685.669313 -151.817334 
L 689.84458 -151.817334 
L 694.019846 -151.817334 
L 698.195113 -151.817334 
L 702.37038 -151.817334 
L 706.545647 -151.817334 
L 710.720914 -151.817334 
L 714.896181 -151.817334 
L 719.071448 -151.817334 
L 723.246714 -151.817334 
L 727.421981 -151.817334 
L 731.597248 -151.817334 
L 735.772515 -151.817334 
L 739.947782 -151.817334 
L 744.123049 -151.817334 
L 748.298316 -151.817334 
L 752.473582 -151.817334 
L 756.648849 -151.817334 
L 760.824116 -151.817334 
L 764.999383 -151.817334 
L 769.17465 -151.817334 
L 773.349917 -151.817334 
L 777.525184 -151.817334 
L 781.70045 -151.817334 
L 785.875717 -151.817334 
L 790.050984 -151.817334 
L 794.226251 -151.817334 
L 798.401518 -151.817334 
L 802.576785 -151.817334 
L 806.752051 -151.817334 
L 810.927318 -151.817334 
L 815.102585 -151.817334 
L 819.277852 -151.817334 
L 823.453119 -151.817334 
L 827.628386 -151.817334 
L 831.803653 -151.817334 
L 835.978919 -151.817334 
L 840.154186 -151.817334 
L 844.329453 -151.817334 
L 848.50472 -151.817334 
L 852.679987 -151.817334 
L 856.855254 -151.817334 
L 861.030521 -151.817334 
L 865.205787 -151.817334 
L 869.381054 -151.817334 
L 873.556321 -151.817334 
L 877.731588 -151.817334 
L 881.906855 -151.817334 
L 886.082122 -151.817334 
L 890.257389 -151.817334 
L 894.432655 -151.817334 
L 898.607922 -151.817334 
L 902.783189 -151.817334 
L 906.958456 -151.817334 
L 911.133723 -151.817334 
L 915.30899 -151.817334 
L 919.484257 -151.817334 
L 923.659523 -151.817334 
L 927.83479 -151.817334 
L 932.010057 -151.817334 
L 936.185324 -151.817334 
L 940.360591 -151.817334 
L 944.535858 -151.817334 
L 948.711124 -151.817334 
L 952.886391 -151.817334 
L 957.061658 -151.817334 
L 961.236925 -151.817334 
L 965.412192 -151.817334 
L 965.412192 -151.917202 
L 965.412192 -151.917202 
L 961.236925 -151.949391 
L 957.061658 -151.990524 
L 952.886391 -152.042615 
L 948.711124 -152.107996 
L 944.535858 -152.18933 
L 940.360591 -152.289612 
L 936.185324 -152.41217 
L 932.010057 -152.560635 
L 927.83479 -152.738917 
L 923.659523 -152.951149 
L 919.484257 -153.201627 
L 915.30899 -153.494724 
L 911.133723 -153.834806 
L 906.958456 -154.226121 
L 902.783189 -154.672697 
L 898.607922 -155.178228 
L 894.432655 -155.745969 
L 890.257389 -156.37864 
L 886.082122 -157.078341 
L 881.906855 -157.84649 
L 877.731588 -158.68378 
L 873.556321 -159.590166 
L 869.381054 -160.56487 
L 865.205787 -161.606417 
L 861.030521 -162.712686 
L 856.855254 -163.880985 
L 852.679987 -165.108136 
L 848.50472 -166.390556 
L 844.329453 -167.724354 
L 840.154186 -169.105411 
L 835.978919 -170.529455 
L 831.803653 -171.992121 
L 827.628386 -173.489006 
L 823.453119 -175.0157 
L 819.277852 -176.567819 
L 815.102585 -178.141031 
L 810.927318 -179.731076 
L 806.752051 -181.333802 
L 802.576785 -182.945202 
L 798.401518 -184.561471 
L 794.226251 -186.179072 
L 790.050984 -187.794822 
L 785.875717 -189.405991 
L 781.70045 -191.010406 
L 777.525184 -192.60656 
L 773.349917 -194.193718 
L 769.17465 -195.772009 
L 764.999383 -197.342503 
L 760.824116 -198.907255 
L 756.648849 -200.469328 
L 752.473582 -202.032767 
L 748.298316 -203.602549 
L 744.123049 -205.184484 
L 739.947782 -206.785079 
L 735.772515 -208.411375 
L 731.597248 -210.070742 
L 727.421981 -211.770661 
L 723.246714 -213.518476 
L 719.071448 -215.321152 
L 714.896181 -217.185015 
L 710.720914 -219.115523 
L 706.545647 -221.117046 
L 702.37038 -223.192687 
L 698.195113 -225.344154 
L 694.019846 -227.571689 
L 689.84458 -229.874073 
L 685.669313 -232.248708 
L 681.494046 -234.69179 
L 677.318779 -237.198569 
L 673.143512 -239.763689 
L 668.968245 -242.381604 
L 664.792978 -245.047057 
L 660.617712 -247.755589 
L 656.442445 -250.504065 
L 652.267178 -253.291188 
L 648.091911 -256.117963 
L 643.916644 -258.988096 
L 639.741377 -261.908292 
L 635.56611 -264.888448 
L 631.390844 -267.941698 
L 627.215577 -271.084343 
L 623.04031 -274.33563 
L 618.865043 -277.717402 
L 614.689776 -281.25364 
L 610.514509 -284.969889 
L 606.339243 -288.892616 
L 602.163976 -293.048497 
L 597.988709 -297.463666 
L 593.813442 -302.162949 
L 589.638175 -307.169089 
L 585.462908 -312.501999 
L 581.287641 -318.178039 
L 577.112375 -324.209345 
L 572.937108 -330.603224 
L 568.761841 -337.361621 
L 564.586574 -344.480682 
L 560.411307 -351.950411 
L 556.23604 -359.754449 
L 552.060773 -367.869972 
L 547.885507 -376.26772 
L 543.71024 -384.912156 
L 539.534973 -393.761764 
L 535.359706 -402.769474 
L 531.184439 -411.883207 
L 527.009172 -421.046532 
L 522.833905 -430.199421 
L 518.658639 -439.27908 
L 514.483372 -448.220841 
L 510.308105 -456.959097 
L 506.132838 -465.428254 
L 501.957571 -473.563683 
L 497.782304 -481.302651 
L 493.607037 -488.585207 
L 489.431771 -495.354998 
L 485.256504 -501.560006 
L 481.081237 -507.153165 
L 476.90597 -512.092854 
L 472.730703 -516.343248 
L 468.555436 -519.874498 
L 464.38017 -522.662759 
L 460.204903 -524.690038 
L 456.029636 -525.943899 
L 451.854369 -526.417025 
L 447.679102 -526.106673 
L 443.503835 -525.014067 
L 439.328568 -523.143761 
L 435.153302 -520.503039 
L 430.978035 -517.101386 
L 426.802768 -512.950092 
L 422.627501 -508.062023 
L 418.452234 -502.451585 
L 414.276967 -496.134901 
L 410.1017 -489.130187 
L 405.926434 -481.458322 
L 401.751167 -473.143545 
L 397.5759 -464.214245 
L 393.400633 -454.703766 
L 389.225366 -444.651145 
L 385.050099 -434.101714 
L 380.874832 -423.107488 
L 376.699566 -411.727277 
L 372.524299 -400.026464 
L 368.349032 -388.076453 
L 364.173765 -375.953741 
L 359.998498 -363.738676 
L 355.823231 -351.513922 
L 351.647964 -339.362705 
L 347.472698 -327.366918 
L 343.297431 -315.605194 
L 339.122164 -304.15102 
L 334.946897 -293.071009 
L 330.77163 -282.423411 
L 326.596363 -272.25693 
L 322.421096 -262.609911 
L 318.24583 -253.509914 
L 314.070563 -244.9737 
L 309.895296 -237.007605 
L 305.720029 -229.608265 
L 301.544762 -222.76364 
L 297.369495 -216.454275 
L 293.194229 -210.654713 
L 289.018962 -205.334989 
L 284.843695 -200.462125 
L 280.668428 -196.001555 
L 276.493161 -191.918423 
L 272.317894 -188.178705 
L 268.142627 -184.750123 
L 263.967361 -181.602827 
L 259.792094 -178.709864 
L 255.616827 -176.047411 
L 251.44156 -173.594822 
L 247.266293 -171.334509 
L 243.091026 -169.251683 
L 238.915759 -167.334002 
L 234.740493 -165.571168 
L 230.565226 -163.954493 
L 226.389959 -162.476476 
L 222.214692 -161.130411 
L 218.039425 -159.910048 
L 213.864158 -158.809317 
L 209.688891 -157.82212 
L 205.513625 -156.942192 
L 201.338358 -156.163027 
L 197.163091 -155.477866 
L 192.987824 -154.879726 
L 188.812557 -154.361468 
L 184.63729 -153.915887 
L 180.462023 -153.535816 
L 176.286757 -153.214233 
L 172.11149 -152.944365 
L 167.936223 -152.719769 
L 163.760956 -152.534418 
L 159.585689 -152.382745 
L 155.410422 -152.259688 
L 151.235156 -152.160701 
L 147.059889 -152.081762 
L 142.884622 -152.019353 
L 138.709355 -151.97044 
L 134.534088 -151.932439 
z
" style="stroke: #8dd3c7"/>
    </defs>
    <g clip-path="url(#p22f4994d9c)">
     <use xlink:href="#m4bf8f11469" x="0" y="648" style="fill: #8dd3c7; fill-opacity: 0.35; stroke: #8dd3c7"/>
    </g>
   </g>
   <g id="PolyCollection_3">
    <defs>
     <path id="m05c721a61a" d="M 161.735583 -151.970787 
L 161.735583 -151.817334 
L 165.002767 -151.817334 
L 168.269951 -151.817334 
L 171.537134 -151.817334 
L 174.804318 -151.817334 
L 178.071502 -151.817334 
L 181.338685 -151.817334 
L 184.605869 -151.817334 
L 187.873053 -151.817334 
L 191.140236 -151.817334 
L 194.40742 -151.817334 
L 197.674604 -151.817334 
L 200.941787 -151.817334 
L 204.208971 -151.817334 
L 207.476155 -151.817334 
L 210.743338 -151.817334 
L 214.010522 -151.817334 
L 217.277706 -151.817334 
L 220.544889 -151.817334 
L 223.812073 -151.817334 
L 227.079257 -151.817334 
L 230.34644 -151.817334 
L 233.613624 -151.817334 
L 236.880808 -151.817334 
L 240.147991 -151.817334 
L 243.415175 -151.817334 
L 246.682359 -151.817334 
L 249.949542 -151.817334 
L 253.216726 -151.817334 
L 256.48391 -151.817334 
L 259.751093 -151.817334 
L 263.018277 -151.817334 
L 266.285461 -151.817334 
L 269.552644 -151.817334 
L 272.819828 -151.817334 
L 276.087012 -151.817334 
L 279.354195 -151.817334 
L 282.621379 -151.817334 
L 285.888563 -151.817334 
L 289.155746 -151.817334 
L 292.42293 -151.817334 
L 295.690114 -151.817334 
L 298.957297 -151.817334 
L 302.224481 -151.817334 
L 305.491665 -151.817334 
L 308.758848 -151.817334 
L 312.026032 -151.817334 
L 315.293216 -151.817334 
L 318.560399 -151.817334 
L 321.827583 -151.817334 
L 325.094767 -151.817334 
L 328.36195 -151.817334 
L 331.629134 -151.817334 
L 334.896318 -151.817334 
L 338.163501 -151.817334 
L 341.430685 -151.817334 
L 344.697869 -151.817334 
L 347.965052 -151.817334 
L 351.232236 -151.817334 
L 354.49942 -151.817334 
L 357.766603 -151.817334 
L 361.033787 -151.817334 
L 364.300971 -151.817334 
L 367.568154 -151.817334 
L 370.835338 -151.817334 
L 374.102522 -151.817334 
L 377.369705 -151.817334 
L 380.636889 -151.817334 
L 383.904073 -151.817334 
L 387.171256 -151.817334 
L 390.43844 -151.817334 
L 393.705624 -151.817334 
L 396.972807 -151.817334 
L 400.239991 -151.817334 
L 403.507175 -151.817334 
L 406.774358 -151.817334 
L 410.041542 -151.817334 
L 413.308726 -151.817334 
L 416.575909 -151.817334 
L 419.843093 -151.817334 
L 423.110277 -151.817334 
L 426.37746 -151.817334 
L 429.644644 -151.817334 
L 432.911828 -151.817334 
L 436.179011 -151.817334 
L 439.446195 -151.817334 
L 442.713379 -151.817334 
L 445.980562 -151.817334 
L 449.247746 -151.817334 
L 452.51493 -151.817334 
L 455.782113 -151.817334 
L 459.049297 -151.817334 
L 462.316481 -151.817334 
L 465.583664 -151.817334 
L 468.850848 -151.817334 
L 472.118032 -151.817334 
L 475.385215 -151.817334 
L 478.652399 -151.817334 
L 481.919583 -151.817334 
L 485.186766 -151.817334 
L 488.45395 -151.817334 
L 491.721134 -151.817334 
L 494.988317 -151.817334 
L 498.255501 -151.817334 
L 501.522685 -151.817334 
L 504.789868 -151.817334 
L 508.057052 -151.817334 
L 511.324236 -151.817334 
L 514.591419 -151.817334 
L 517.858603 -151.817334 
L 521.125787 -151.817334 
L 524.39297 -151.817334 
L 527.660154 -151.817334 
L 530.927338 -151.817334 
L 534.194521 -151.817334 
L 537.461705 -151.817334 
L 540.728889 -151.817334 
L 543.996072 -151.817334 
L 547.263256 -151.817334 
L 550.53044 -151.817334 
L 553.797623 -151.817334 
L 557.064807 -151.817334 
L 560.331991 -151.817334 
L 563.599174 -151.817334 
L 566.866358 -151.817334 
L 570.133542 -151.817334 
L 573.400725 -151.817334 
L 576.667909 -151.817334 
L 579.935093 -151.817334 
L 583.202276 -151.817334 
L 586.46946 -151.817334 
L 589.736644 -151.817334 
L 593.003827 -151.817334 
L 596.271011 -151.817334 
L 599.538195 -151.817334 
L 602.805378 -151.817334 
L 606.072562 -151.817334 
L 609.339746 -151.817334 
L 612.606929 -151.817334 
L 615.874113 -151.817334 
L 619.141297 -151.817334 
L 622.40848 -151.817334 
L 625.675664 -151.817334 
L 628.942848 -151.817334 
L 632.210031 -151.817334 
L 635.477215 -151.817334 
L 638.744399 -151.817334 
L 642.011582 -151.817334 
L 645.278766 -151.817334 
L 648.54595 -151.817334 
L 651.813133 -151.817334 
L 655.080317 -151.817334 
L 658.347501 -151.817334 
L 661.614684 -151.817334 
L 664.881868 -151.817334 
L 668.149052 -151.817334 
L 671.416235 -151.817334 
L 674.683419 -151.817334 
L 677.950603 -151.817334 
L 681.217787 -151.817334 
L 684.48497 -151.817334 
L 687.752154 -151.817334 
L 691.019338 -151.817334 
L 694.286521 -151.817334 
L 697.553705 -151.817334 
L 700.820889 -151.817334 
L 704.088072 -151.817334 
L 707.355256 -151.817334 
L 710.62244 -151.817334 
L 713.889623 -151.817334 
L 717.156807 -151.817334 
L 720.423991 -151.817334 
L 723.691174 -151.817334 
L 726.958358 -151.817334 
L 730.225542 -151.817334 
L 733.492725 -151.817334 
L 736.759909 -151.817334 
L 740.027093 -151.817334 
L 743.294276 -151.817334 
L 746.56146 -151.817334 
L 749.828644 -151.817334 
L 753.095827 -151.817334 
L 756.363011 -151.817334 
L 759.630195 -151.817334 
L 762.897378 -151.817334 
L 766.164562 -151.817334 
L 769.431746 -151.817334 
L 772.698929 -151.817334 
L 775.966113 -151.817334 
L 779.233297 -151.817334 
L 782.50048 -151.817334 
L 785.767664 -151.817334 
L 789.034848 -151.817334 
L 792.302031 -151.817334 
L 795.569215 -151.817334 
L 798.836399 -151.817334 
L 802.103582 -151.817334 
L 805.370766 -151.817334 
L 808.63795 -151.817334 
L 811.905133 -151.817334 
L 811.905133 -151.942197 
L 811.905133 -151.942197 
L 808.63795 -151.981716 
L 805.370766 -152.032017 
L 802.103582 -152.095483 
L 798.836399 -152.174867 
L 795.569215 -152.273302 
L 792.302031 -152.394307 
L 789.034848 -152.54178 
L 785.767664 -152.719972 
L 782.50048 -152.933449 
L 779.233297 -153.187033 
L 775.966113 -153.485726 
L 772.698929 -153.834617 
L 769.431746 -154.238771 
L 766.164562 -154.703104 
L 762.897378 -155.23226 
L 759.630195 -155.830464 
L 756.363011 -156.5014 
L 753.095827 -157.248077 
L 749.828644 -158.072725 
L 746.56146 -158.976701 
L 743.294276 -159.960429 
L 740.027093 -161.023366 
L 736.759909 -162.164005 
L 733.492725 -163.379914 
L 730.225542 -164.667811 
L 726.958358 -166.023678 
L 723.691174 -167.442903 
L 720.423991 -168.920467 
L 717.156807 -170.451147 
L 713.889623 -172.029749 
L 710.62244 -173.651367 
L 707.355256 -175.311649 
L 704.088072 -177.007088 
L 700.820889 -178.735307 
L 697.553705 -180.49536 
L 694.286521 -182.288017 
L 691.019338 -184.116041 
L 687.752154 -185.98444 
L 684.48497 -187.900683 
L 681.217787 -189.874865 
L 677.950603 -191.91981 
L 674.683419 -194.051087 
L 671.416235 -196.286931 
L 668.149052 -198.648051 
L 664.881868 -201.157307 
L 661.614684 -203.839254 
L 658.347501 -206.719543 
L 655.080317 -209.824177 
L 651.813133 -213.178639 
L 648.54595 -216.806897 
L 645.278766 -220.730319 
L 642.011582 -224.966523 
L 638.744399 -229.528205 
L 635.477215 -234.421996 
L 632.210031 -239.647401 
L 628.942848 -245.195874 
L 625.675664 -251.050099 
L 622.40848 -257.183535 
L 619.141297 -263.560272 
L 615.874113 -270.135274 
L 612.606929 -276.85501 
L 609.339746 -283.658533 
L 606.072562 -290.478977 
L 602.805378 -297.24548 
L 599.538195 -303.885473 
L 596.271011 -310.327268 
L 593.003827 -316.502869 
L 589.736644 -322.350866 
L 586.46946 -327.819311 
L 583.202276 -332.868417 
L 579.935093 -337.472938 
L 576.667909 -341.624103 
L 573.400725 -345.330966 
L 570.133542 -348.621076 
L 566.866358 -351.540393 
L 563.599174 -354.152411 
L 560.331991 -356.536487 
L 557.064807 -358.785427 
L 553.797623 -361.002395 
L 550.53044 -363.297287 
L 547.263256 -365.782696 
L 543.996072 -368.569657 
L 540.728889 -371.763346 
L 537.461705 -375.458935 
L 534.194521 -379.737776 
L 530.927338 -384.66408 
L 527.660154 -390.282238 
L 524.39297 -396.614896 
L 521.125787 -403.661845 
L 517.858603 -411.399771 
L 514.591419 -419.782855 
L 511.324236 -428.74418 
L 508.057052 -438.197864 
L 504.789868 -448.041817 
L 501.522685 -458.160993 
L 498.255501 -468.430986 
L 494.988317 -478.721831 
L 491.721134 -488.901853 
L 488.45395 -498.841418 
L 485.186766 -508.416462 
L 481.919583 -517.511682 
L 478.652399 -526.023292 
L 475.385215 -533.861284 
L 472.118032 -540.951136 
L 468.850848 -547.234955 
L 465.583664 -552.672046 
L 462.316481 -557.238933 
L 459.049297 -560.928853 
L 455.782113 -563.750785 
L 452.51493 -565.728062 
L 449.247746 -566.896635 
L 445.980562 -567.303061 
L 442.713379 -567.002279 
L 439.446195 -566.055247 
L 436.179011 -564.526521 
L 432.911828 -562.481832 
L 429.644644 -559.985728 
L 426.37746 -557.099355 
L 423.110277 -553.878425 
L 419.843093 -550.371427 
L 416.575909 -546.618147 
L 413.308726 -542.648528 
L 410.041542 -538.48191 
L 406.774358 -534.126705 
L 403.507175 -529.580492 
L 400.239991 -524.830578 
L 396.972807 -519.85499 
L 393.705624 -514.623901 
L 390.43844 -509.101429 
L 387.171256 -503.247764 
L 383.904073 -497.021541 
L 380.636889 -490.382364 
L 377.369705 -483.293384 
L 374.102522 -475.723798 
L 370.835338 -467.651173 
L 367.568154 -459.063452 
L 364.300971 -449.960562 
L 361.033787 -440.355519 
L 357.766603 -430.274959 
L 354.49942 -419.759076 
L 351.232236 -408.860938 
L 347.965052 -397.645214 
L 344.697869 -386.186376 
L 341.430685 -374.566449 
L 338.163501 -362.872433 
L 334.896318 -351.193519 
L 331.629134 -339.618237 
L 328.36195 -328.231685 
L 325.094767 -317.112967 
L 321.827583 -306.332954 
L 318.560399 -295.952478 
L 315.293216 -286.02102 
L 312.026032 -276.575938 
L 308.758848 -267.64223 
L 305.491665 -259.232836 
L 302.224481 -251.349402 
L 298.957297 -243.983455 
L 295.690114 -237.117884 
L 292.42293 -230.728645 
L 289.155746 -224.786567 
L 285.888563 -219.259171 
L 282.621379 -214.112407 
L 279.354195 -209.312229 
L 276.087012 -204.825943 
L 272.819828 -200.623294 
L 269.552644 -196.677257 
L 266.285461 -192.964537 
L 263.018277 -189.465785 
L 259.751093 -186.165562 
L 256.48391 -183.052084 
L 253.216726 -180.116803 
L 249.949542 -177.35386 
L 246.682359 -174.759476 
L 243.415175 -172.331318 
L 240.147991 -170.067877 
L 236.880808 -167.967911 
L 233.613624 -166.029957 
L 230.34644 -164.251944 
L 227.079257 -162.630914 
L 223.812073 -161.162843 
L 220.544889 -159.842567 
L 217.277706 -158.663798 
L 214.010522 -157.619211 
L 210.743338 -156.700594 
L 207.476155 -155.899039 
L 204.208971 -155.205149 
L 200.941787 -154.609263 
L 197.674604 -154.101668 
L 194.40742 -153.672799 
L 191.140236 -153.313411 
L 187.873053 -153.014726 
L 184.605869 -152.76854 
L 181.338685 -152.567307 
L 178.071502 -152.404186 
L 174.804318 -152.27306 
L 171.537134 -152.168532 
L 168.269951 -152.085904 
L 165.002767 -152.021134 
L 161.735583 -151.970787 
z
" style="stroke: #bebada"/>
    </defs>
    <g clip-path="url(#p22f4994d9c)">
     <use xlink:href="#m05c721a61a" x="0" y="648" style="fill: #bebada; fill-opacity: 0.35; stroke: #bebada"/>
    </g>
   </g>
   <g id="PolyCollection_4">
    <defs>
     <path id="m8791ee9ae3" d="M 177.020681 -152.017838 
L 177.020681 -151.817334 
L 180.062895 -151.817334 
L 183.105109 -151.817334 
L 186.147324 -151.817334 
L 189.189538 -151.817334 
L 192.231752 -151.817334 
L 195.273966 -151.817334 
L 198.31618 -151.817334 
L 201.358394 -151.817334 
L 204.400608 -151.817334 
L 207.442823 -151.817334 
L 210.485037 -151.817334 
L 213.527251 -151.817334 
L 216.569465 -151.817334 
L 219.611679 -151.817334 
L 222.653893 -151.817334 
L 225.696108 -151.817334 
L 228.738322 -151.817334 
L 231.780536 -151.817334 
L 234.82275 -151.817334 
L 237.864964 -151.817334 
L 240.907178 -151.817334 
L 243.949392 -151.817334 
L 246.991607 -151.817334 
L 250.033821 -151.817334 
L 253.076035 -151.817334 
L 256.118249 -151.817334 
L 259.160463 -151.817334 
L 262.202677 -151.817334 
L 265.244892 -151.817334 
L 268.287106 -151.817334 
L 271.32932 -151.817334 
L 274.371534 -151.817334 
L 277.413748 -151.817334 
L 280.455962 -151.817334 
L 283.498176 -151.817334 
L 286.540391 -151.817334 
L 289.582605 -151.817334 
L 292.624819 -151.817334 
L 295.667033 -151.817334 
L 298.709247 -151.817334 
L 301.751461 -151.817334 
L 304.793676 -151.817334 
L 307.83589 -151.817334 
L 310.878104 -151.817334 
L 313.920318 -151.817334 
L 316.962532 -151.817334 
L 320.004746 -151.817334 
L 323.04696 -151.817334 
L 326.089175 -151.817334 
L 329.131389 -151.817334 
L 332.173603 -151.817334 
L 335.215817 -151.817334 
L 338.258031 -151.817334 
L 341.300245 -151.817334 
L 344.34246 -151.817334 
L 347.384674 -151.817334 
L 350.426888 -151.817334 
L 353.469102 -151.817334 
L 356.511316 -151.817334 
L 359.55353 -151.817334 
L 362.595744 -151.817334 
L 365.637959 -151.817334 
L 368.680173 -151.817334 
L 371.722387 -151.817334 
L 374.764601 -151.817334 
L 377.806815 -151.817334 
L 380.849029 -151.817334 
L 383.891243 -151.817334 
L 386.933458 -151.817334 
L 389.975672 -151.817334 
L 393.017886 -151.817334 
L 396.0601 -151.817334 
L 399.102314 -151.817334 
L 402.144528 -151.817334 
L 405.186743 -151.817334 
L 408.228957 -151.817334 
L 411.271171 -151.817334 
L 414.313385 -151.817334 
L 417.355599 -151.817334 
L 420.397813 -151.817334 
L 423.440027 -151.817334 
L 426.482242 -151.817334 
L 429.524456 -151.817334 
L 432.56667 -151.817334 
L 435.608884 -151.817334 
L 438.651098 -151.817334 
L 441.693312 -151.817334 
L 444.735527 -151.817334 
L 447.777741 -151.817334 
L 450.819955 -151.817334 
L 453.862169 -151.817334 
L 456.904383 -151.817334 
L 459.946597 -151.817334 
L 462.988811 -151.817334 
L 466.031026 -151.817334 
L 469.07324 -151.817334 
L 472.115454 -151.817334 
L 475.157668 -151.817334 
L 478.199882 -151.817334 
L 481.242096 -151.817334 
L 484.284311 -151.817334 
L 487.326525 -151.817334 
L 490.368739 -151.817334 
L 493.410953 -151.817334 
L 496.453167 -151.817334 
L 499.495381 -151.817334 
L 502.537595 -151.817334 
L 505.57981 -151.817334 
L 508.622024 -151.817334 
L 511.664238 -151.817334 
L 514.706452 -151.817334 
L 517.748666 -151.817334 
L 520.79088 -151.817334 
L 523.833095 -151.817334 
L 526.875309 -151.817334 
L 529.917523 -151.817334 
L 532.959737 -151.817334 
L 536.001951 -151.817334 
L 539.044165 -151.817334 
L 542.086379 -151.817334 
L 545.128594 -151.817334 
L 548.170808 -151.817334 
L 551.213022 -151.817334 
L 554.255236 -151.817334 
L 557.29745 -151.817334 
L 560.339664 -151.817334 
L 563.381878 -151.817334 
L 566.424093 -151.817334 
L 569.466307 -151.817334 
L 572.508521 -151.817334 
L 575.550735 -151.817334 
L 578.592949 -151.817334 
L 581.635163 -151.817334 
L 584.677378 -151.817334 
L 587.719592 -151.817334 
L 590.761806 -151.817334 
L 593.80402 -151.817334 
L 596.846234 -151.817334 
L 599.888448 -151.817334 
L 602.930662 -151.817334 
L 605.972877 -151.817334 
L 609.015091 -151.817334 
L 612.057305 -151.817334 
L 615.099519 -151.817334 
L 618.141733 -151.817334 
L 621.183947 -151.817334 
L 624.226162 -151.817334 
L 627.268376 -151.817334 
L 630.31059 -151.817334 
L 633.352804 -151.817334 
L 636.395018 -151.817334 
L 639.437232 -151.817334 
L 642.479446 -151.817334 
L 645.521661 -151.817334 
L 648.563875 -151.817334 
L 651.606089 -151.817334 
L 654.648303 -151.817334 
L 657.690517 -151.817334 
L 660.732731 -151.817334 
L 663.774946 -151.817334 
L 666.81716 -151.817334 
L 669.859374 -151.817334 
L 672.901588 -151.817334 
L 675.943802 -151.817334 
L 678.986016 -151.817334 
L 682.02823 -151.817334 
L 685.070445 -151.817334 
L 688.112659 -151.817334 
L 691.154873 -151.817334 
L 694.197087 -151.817334 
L 697.239301 -151.817334 
L 700.281515 -151.817334 
L 703.323729 -151.817334 
L 706.365944 -151.817334 
L 709.408158 -151.817334 
L 712.450372 -151.817334 
L 715.492586 -151.817334 
L 718.5348 -151.817334 
L 721.577014 -151.817334 
L 724.619229 -151.817334 
L 727.661443 -151.817334 
L 730.703657 -151.817334 
L 733.745871 -151.817334 
L 736.788085 -151.817334 
L 739.830299 -151.817334 
L 742.872513 -151.817334 
L 745.914728 -151.817334 
L 748.956942 -151.817334 
L 751.999156 -151.817334 
L 755.04137 -151.817334 
L 758.083584 -151.817334 
L 761.125798 -151.817334 
L 764.168013 -151.817334 
L 767.210227 -151.817334 
L 770.252441 -151.817334 
L 773.294655 -151.817334 
L 776.336869 -151.817334 
L 779.379083 -151.817334 
L 782.421297 -151.817334 
L 782.421297 -151.943676 
L 782.421297 -151.943676 
L 779.379083 -151.981723 
L 776.336869 -152.029624 
L 773.294655 -152.089436 
L 770.252441 -152.163511 
L 767.210227 -152.254506 
L 764.168013 -152.365382 
L 761.125798 -152.499399 
L 758.083584 -152.660097 
L 755.04137 -152.851271 
L 751.999156 -153.076934 
L 748.956942 -153.341273 
L 745.914728 -153.648595 
L 742.872513 -154.003277 
L 739.830299 -154.40971 
L 736.788085 -154.87225 
L 733.745871 -155.395182 
L 730.703657 -155.982699 
L 727.661443 -156.638893 
L 724.619229 -157.367785 
L 721.577014 -158.173361 
L 718.5348 -159.059651 
L 715.492586 -160.030813 
L 712.450372 -161.091248 
L 709.408158 -162.245709 
L 706.365944 -163.499412 
L 703.323729 -164.85813 
L 700.281515 -166.328242 
L 697.239301 -167.91675 
L 694.197087 -169.631213 
L 691.154873 -171.479621 
L 688.112659 -173.470176 
L 685.070445 -175.610994 
L 682.02823 -177.909724 
L 678.986016 -180.373102 
L 675.943802 -183.006456 
L 672.901588 -185.813193 
L 669.859374 -188.794294 
L 666.81716 -191.947863 
L 663.774946 -195.268761 
L 660.732731 -198.748368 
L 657.690517 -202.374493 
L 654.648303 -206.131477 
L 651.606089 -210.000485 
L 648.563875 -213.959999 
L 645.521661 -217.986502 
L 642.479446 -222.055324 
L 639.437232 -226.141612 
L 636.395018 -230.221378 
L 633.352804 -234.272576 
L 630.31059 -238.276122 
L 627.268376 -242.216828 
L 624.226162 -246.084166 
L 621.183947 -249.87283 
L 618.141733 -253.583046 
L 615.099519 -257.220626 
L 612.057305 -260.796739 
L 609.015091 -264.327429 
L 605.972877 -267.8329 
L 602.930662 -271.336611 
L 599.888448 -274.864239 
L 596.846234 -278.44256 
L 593.80402 -282.098324 
L 590.761806 -285.85717 
L 587.719592 -289.742652 
L 584.677378 -293.775408 
L 581.635163 -297.97251 
L 578.592949 -302.347014 
L 575.550735 -306.907723 
L 572.508521 -311.659146 
L 569.466307 -316.601637 
L 566.424093 -321.7317 
L 563.381878 -327.042415 
L 560.339664 -332.523951 
L 557.29745 -338.164151 
L 554.255236 -343.949129 
L 551.213022 -349.863877 
L 548.170808 -355.892856 
L 545.128594 -362.02054 
L 542.086379 -368.231927 
L 539.044165 -374.512995 
L 536.001951 -380.851105 
L 532.959737 -387.235348 
L 529.917523 -393.656839 
L 526.875309 -400.10895 
L 523.833095 -406.587469 
L 520.79088 -413.090697 
L 517.748666 -419.619456 
L 514.706452 -426.176994 
L 511.664238 -432.768793 
L 508.622024 -439.402257 
L 505.57981 -446.086264 
L 502.537595 -452.83061 
L 499.495381 -459.64531 
L 496.453167 -466.539795 
L 493.410953 -473.522011 
L 490.368739 -480.597444 
L 487.326525 -487.768098 
L 484.284311 -495.031475 
L 481.242096 -502.37958 
L 478.199882 -509.798007 
L 475.157668 -517.265137 
L 472.115454 -524.751505 
L 469.07324 -532.219356 
L 466.031026 -539.622446 
L 462.988811 -546.906102 
L 459.946597 -554.007574 
L 456.904383 -560.856688 
L 453.862169 -567.37682 
L 450.819955 -573.486167 
L 447.777741 -579.099326 
L 444.735527 -584.129138 
L 441.693312 -588.488765 
L 438.651098 -592.093953 
L 435.608884 -594.865416 
L 432.56667 -596.731264 
L 429.524456 -597.629397 
L 426.482242 -597.509766 
L 423.440027 -596.336421 
L 420.397813 -594.089226 
L 417.355599 -590.765188 
L 414.313385 -586.379282 
L 411.271171 -580.964747 
L 408.228957 -574.572778 
L 405.186743 -567.271626 
L 402.144528 -559.145092 
L 399.102314 -550.290461 
L 396.0601 -540.815945 
L 393.017886 -530.837719 
L 389.975672 -520.476659 
L 386.933458 -509.854918 
L 383.891243 -499.092469 
L 380.849029 -488.303757 
L 377.806815 -477.594601 
L 374.764601 -467.059453 
L 371.722387 -456.779138 
L 368.680173 -446.819146 
L 365.637959 -437.228527 
L 362.595744 -428.039431 
L 359.55353 -419.267265 
L 356.511316 -410.911458 
L 353.469102 -402.956766 
L 350.426888 -395.375034 
L 347.384674 -388.127327 
L 344.34246 -381.166328 
L 341.300245 -374.438876 
L 338.258031 -367.888555 
L 335.215817 -361.45821 
L 332.173603 -355.092314 
L 329.131389 -348.739091 
L 326.089175 -342.352346 
L 323.04696 -335.89294 
L 320.004746 -329.329905 
L 316.962532 -322.641167 
L 313.920318 -315.813896 
L 310.878104 -308.844504 
L 307.83589 -301.738317 
L 304.793676 -294.508968 
L 301.751461 -287.177555 
L 298.709247 -279.771611 
L 295.667033 -272.323947 
L 292.624819 -264.871411 
L 289.582605 -257.453607 
L 286.540391 -250.111635 
L 283.498176 -242.886863 
L 280.455962 -235.819793 
L 277.413748 -228.949025 
L 274.371534 -222.310356 
L 271.32932 -215.936022 
L 268.287106 -209.854089 
L 265.244892 -204.088009 
L 262.202677 -198.656329 
L 259.160463 -193.572558 
L 256.118249 -188.84517 
L 253.076035 -184.477747 
L 250.033821 -180.469232 
L 246.991607 -176.814282 
L 243.949392 -173.503704 
L 240.907178 -170.524944 
L 237.864964 -167.862621 
L 234.82275 -165.499078 
L 231.780536 -163.414934 
L 228.738322 -161.589622 
L 225.696108 -160.001899 
L 222.653893 -158.630306 
L 219.611679 -157.453592 
L 216.569465 -156.451063 
L 213.527251 -155.602885 
L 210.485037 -154.890319 
L 207.442823 -154.295895 
L 204.400608 -153.803532 
L 201.358394 -153.398604 
L 198.31618 -153.067959 
L 195.273966 -152.799907 
L 192.231752 -152.584162 
L 189.189538 -152.411772 
L 186.147324 -152.275024 
L 183.105109 -152.167339 
L 180.062895 -152.08316 
L 177.020681 -152.017838 
z
" style="stroke: #80b1d3"/>
    </defs>
    <g clip-path="url(#p22f4994d9c)">
     <use xlink:href="#m8791ee9ae3" x="0" y="648" style="fill: #80b1d3; fill-opacity: 0.35; stroke: #80b1d3"/>
    </g>
   </g>
   <g id="line2d_11">
    <path d="M 966.272154 496.182666 
L 966.272154 28.08 
" clip-path="url(#p22f4994d9c)" style="fill: none; stroke: #fb8072; stroke-width: 3; stroke-linecap: round"/>
   </g>
   <g id="line2d_12">
    <path d="M 881.682285 496.182666 
L 881.682285 28.08 
" clip-path="url(#p22f4994d9c)" style="fill: none; stroke: #8dd3c7; stroke-width: 3; stroke-linecap: round"/>
   </g>
   <g id="line2d_13">
    <path d="M 647.58005 496.182666 
L 647.58005 28.08 
" clip-path="url(#p22f4994d9c)" style="fill: none; stroke: #bebada; stroke-width: 3; stroke-linecap: round"/>
   </g>
   <g id="line2d_14">
    <path d="M 532.462739 496.182666 
L 532.462739 28.08 
" clip-path="url(#p22f4994d9c)" style="fill: none; stroke: #80b1d3; stroke-width: 3; stroke-linecap: round"/>
   </g>
   <g id="patch_3">
    <path d="M 83.83 496.182666 
L 83.83 28.08 
" style="fill: none; stroke: #000000; stroke-width: 1.25; stroke-linejoin: miter; stroke-linecap: square"/>
   </g>
   <g id="patch_4">
    <path d="M 1123.92 496.182666 
L 1123.92 28.08 
" style="fill: none; stroke: #000000; stroke-width: 1.25; stroke-linejoin: miter; stroke-linecap: square"/>
   </g>
   <g id="patch_5">
    <path d="M 83.83 496.182666 
L 1123.92 496.182666 
" style="fill: none; stroke: #000000; stroke-width: 1.25; stroke-linejoin: miter; stroke-linecap: square"/>
   </g>
   <g id="patch_6">
    <path d="M 83.83 28.08 
L 1123.92 28.08 
" style="fill: none; stroke: #000000; stroke-width: 1.25; stroke-linejoin: miter; stroke-linecap: square"/>
   </g>
   <g id="legend_1">
    <g id="patch_7">
     <path d="M 92.21723 620.120566 
L 1109.29223 620.120566 
Q 1114.09223 620.120566 1114.09223 615.320566 
L 1114.09223 583.198066 
Q 1114.09223 578.398066 1109.29223 578.398066 
L 92.21723 578.398066 
Q 87.41723 578.398066 87.41723 583.198066 
L 87.41723 615.320566 
Q 87.41723 620.120566 92.21723 620.120566 
z
" style="fill: #ffffff; opacity: 0.8; stroke: #808080; stroke-linejoin: miter"/>
    </g>
    <g id="line2d_15">
     <path d="M 97.01723 597.069316 
L 121.01723 597.069316 
L 145.01723 597.069316 
" style="fill: none; stroke: #fb8072; stroke-width: 3; stroke-linecap: round"/>
    </g>
    <g id="text_13">
     <!-- Biological (0.62) -->
     <g style="fill: #262626" transform="translate(164.21723 605.469316) scale(0.24 -0.24)">
      <defs>
       <path id="ArialMT-42" d="M 469 0 
L 469 4581 
L 2188 4581 
Q 2713 4581 3030 4442 
Q 3347 4303 3526 4014 
Q 3706 3725 3706 3409 
Q 3706 3116 3547 2856 
Q 3388 2597 3066 2438 
Q 3481 2316 3704 2022 
Q 3928 1728 3928 1328 
Q 3928 1006 3792 729 
Q 3656 453 3456 303 
Q 3256 153 2954 76 
Q 2653 0 2216 0 
L 469 0 
z
M 1075 2656 
L 2066 2656 
Q 2469 2656 2644 2709 
Q 2875 2778 2992 2937 
Q 3109 3097 3109 3338 
Q 3109 3566 3000 3739 
Q 2891 3913 2687 3977 
Q 2484 4041 1991 4041 
L 1075 4041 
L 1075 2656 
z
M 1075 541 
L 2216 541 
Q 2509 541 2628 563 
Q 2838 600 2978 687 
Q 3119 775 3209 942 
Q 3300 1109 3300 1328 
Q 3300 1584 3169 1773 
Q 3038 1963 2805 2039 
Q 2572 2116 2134 2116 
L 1075 2116 
L 1075 541 
z
" transform="scale(0.015625)"/>
       <path id="ArialMT-69" d="M 425 3934 
L 425 4581 
L 988 4581 
L 988 3934 
L 425 3934 
z
M 425 0 
L 425 3319 
L 988 3319 
L 988 0 
L 425 0 
z
" transform="scale(0.015625)"/>
       <path id="ArialMT-6f" d="M 213 1659 
Q 213 2581 725 3025 
Q 1153 3394 1769 3394 
Q 2453 3394 2887 2945 
Q 3322 2497 3322 1706 
Q 3322 1066 3130 698 
Q 2938 331 2570 128 
Q 2203 -75 1769 -75 
Q 1072 -75 642 372 
Q 213 819 213 1659 
z
M 791 1659 
Q 791 1022 1069 705 
Q 1347 388 1769 388 
Q 2188 388 2466 706 
Q 2744 1025 2744 1678 
Q 2744 2294 2464 2611 
Q 2184 2928 1769 2928 
Q 1347 2928 1069 2612 
Q 791 2297 791 1659 
z
" transform="scale(0.015625)"/>
       <path id="ArialMT-6c" d="M 409 0 
L 409 4581 
L 972 4581 
L 972 0 
L 409 0 
z
" transform="scale(0.015625)"/>
       <path id="ArialMT-67" d="M 319 -275 
L 866 -356 
Q 900 -609 1056 -725 
Q 1266 -881 1628 -881 
Q 2019 -881 2231 -725 
Q 2444 -569 2519 -288 
Q 2563 -116 2559 434 
Q 2191 0 1641 0 
Q 956 0 581 494 
Q 206 988 206 1678 
Q 206 2153 378 2554 
Q 550 2956 876 3175 
Q 1203 3394 1644 3394 
Q 2231 3394 2613 2919 
L 2613 3319 
L 3131 3319 
L 3131 450 
Q 3131 -325 2973 -648 
Q 2816 -972 2473 -1159 
Q 2131 -1347 1631 -1347 
Q 1038 -1347 672 -1080 
Q 306 -813 319 -275 
z
M 784 1719 
Q 784 1066 1043 766 
Q 1303 466 1694 466 
Q 2081 466 2343 764 
Q 2606 1063 2606 1700 
Q 2606 2309 2336 2618 
Q 2066 2928 1684 2928 
Q 1309 2928 1046 2623 
Q 784 2319 784 1719 
z
" transform="scale(0.015625)"/>
       <path id="ArialMT-63" d="M 2588 1216 
L 3141 1144 
Q 3050 572 2676 248 
Q 2303 -75 1759 -75 
Q 1078 -75 664 370 
Q 250 816 250 1647 
Q 250 2184 428 2587 
Q 606 2991 970 3192 
Q 1334 3394 1763 3394 
Q 2303 3394 2647 3120 
Q 2991 2847 3088 2344 
L 2541 2259 
Q 2463 2594 2264 2762 
Q 2066 2931 1784 2931 
Q 1359 2931 1093 2626 
Q 828 2322 828 1663 
Q 828 994 1084 691 
Q 1341 388 1753 388 
Q 2084 388 2306 591 
Q 2528 794 2588 1216 
z
" transform="scale(0.015625)"/>
       <path id="ArialMT-61" d="M 2588 409 
Q 2275 144 1986 34 
Q 1697 -75 1366 -75 
Q 819 -75 525 192 
Q 231 459 231 875 
Q 231 1119 342 1320 
Q 453 1522 633 1644 
Q 813 1766 1038 1828 
Q 1203 1872 1538 1913 
Q 2219 1994 2541 2106 
Q 2544 2222 2544 2253 
Q 2544 2597 2384 2738 
Q 2169 2928 1744 2928 
Q 1347 2928 1158 2789 
Q 969 2650 878 2297 
L 328 2372 
Q 403 2725 575 2942 
Q 747 3159 1072 3276 
Q 1397 3394 1825 3394 
Q 2250 3394 2515 3294 
Q 2781 3194 2906 3042 
Q 3031 2891 3081 2659 
Q 3109 2516 3109 2141 
L 3109 1391 
Q 3109 606 3145 398 
Q 3181 191 3288 0 
L 2700 0 
Q 2613 175 2588 409 
z
M 2541 1666 
Q 2234 1541 1622 1453 
Q 1275 1403 1131 1340 
Q 988 1278 909 1158 
Q 831 1038 831 891 
Q 831 666 1001 516 
Q 1172 366 1500 366 
Q 1825 366 2078 508 
Q 2331 650 2450 897 
Q 2541 1088 2541 1459 
L 2541 1666 
z
" transform="scale(0.015625)"/>
       <path id="ArialMT-20" transform="scale(0.015625)"/>
       <path id="ArialMT-28" d="M 1497 -1347 
Q 1031 -759 709 28 
Q 388 816 388 1659 
Q 388 2403 628 3084 
Q 909 3875 1497 4659 
L 1900 4659 
Q 1522 4009 1400 3731 
Q 1209 3300 1100 2831 
Q 966 2247 966 1656 
Q 966 153 1900 -1347 
L 1497 -1347 
z
" transform="scale(0.015625)"/>
       <path id="ArialMT-29" d="M 791 -1347 
L 388 -1347 
Q 1322 153 1322 1656 
Q 1322 2244 1188 2822 
Q 1081 3291 891 3722 
Q 769 4003 388 4659 
L 791 4659 
Q 1378 3875 1659 3084 
Q 1900 2403 1900 1659 
Q 1900 816 1576 28 
Q 1253 -759 791 -1347 
z
" transform="scale(0.015625)"/>
      </defs>
      <use xlink:href="#ArialMT-42"/>
      <use xlink:href="#ArialMT-69" x="66.699219"/>
      <use xlink:href="#ArialMT-6f" x="88.916016"/>
      <use xlink:href="#ArialMT-6c" x="144.53125"/>
      <use xlink:href="#ArialMT-6f" x="166.748047"/>
      <use xlink:href="#ArialMT-67" x="222.363281"/>
      <use xlink:href="#ArialMT-69" x="277.978516"/>
      <use xlink:href="#ArialMT-63" x="300.195312"/>
      <use xlink:href="#ArialMT-61" x="350.195312"/>
      <use xlink:href="#ArialMT-6c" x="405.810547"/>
      <use xlink:href="#ArialMT-20" x="428.027344"/>
      <use xlink:href="#ArialMT-28" x="455.810547"/>
      <use xlink:href="#ArialMT-30" x="489.111328"/>
      <use xlink:href="#ArialMT-2e" x="544.726562"/>
      <use xlink:href="#ArialMT-36" x="572.509766"/>
      <use xlink:href="#ArialMT-32" x="628.125"/>
      <use xlink:href="#ArialMT-29" x="683.740234"/>
     </g>
    </g>
    <g id="line2d_16">
     <path d="M 365.09723 597.069316 
L 389.09723 597.069316 
L 413.09723 597.069316 
" style="fill: none; stroke: #8dd3c7; stroke-width: 3; stroke-linecap: round"/>
    </g>
    <g id="text_14">
     <!-- Random (0.30) -->
     <g style="fill: #262626" transform="translate(432.29723 605.469316) scale(0.24 -0.24)">
      <defs>
       <path id="ArialMT-52" d="M 503 0 
L 503 4581 
L 2534 4581 
Q 3147 4581 3465 4457 
Q 3784 4334 3975 4021 
Q 4166 3709 4166 3331 
Q 4166 2844 3850 2509 
Q 3534 2175 2875 2084 
Q 3116 1969 3241 1856 
Q 3506 1613 3744 1247 
L 4541 0 
L 3778 0 
L 3172 953 
Q 2906 1366 2734 1584 
Q 2563 1803 2427 1890 
Q 2291 1978 2150 2013 
Q 2047 2034 1813 2034 
L 1109 2034 
L 1109 0 
L 503 0 
z
M 1109 2559 
L 2413 2559 
Q 2828 2559 3062 2645 
Q 3297 2731 3419 2920 
Q 3541 3109 3541 3331 
Q 3541 3656 3305 3865 
Q 3069 4075 2559 4075 
L 1109 4075 
L 1109 2559 
z
" transform="scale(0.015625)"/>
       <path id="ArialMT-6e" d="M 422 0 
L 422 3319 
L 928 3319 
L 928 2847 
Q 1294 3394 1984 3394 
Q 2284 3394 2536 3286 
Q 2788 3178 2913 3003 
Q 3038 2828 3088 2588 
Q 3119 2431 3119 2041 
L 3119 0 
L 2556 0 
L 2556 2019 
Q 2556 2363 2490 2533 
Q 2425 2703 2258 2804 
Q 2091 2906 1866 2906 
Q 1506 2906 1245 2678 
Q 984 2450 984 1813 
L 984 0 
L 422 0 
z
" transform="scale(0.015625)"/>
       <path id="ArialMT-64" d="M 2575 0 
L 2575 419 
Q 2259 -75 1647 -75 
Q 1250 -75 917 144 
Q 584 363 401 755 
Q 219 1147 219 1656 
Q 219 2153 384 2558 
Q 550 2963 881 3178 
Q 1213 3394 1622 3394 
Q 1922 3394 2156 3267 
Q 2391 3141 2538 2938 
L 2538 4581 
L 3097 4581 
L 3097 0 
L 2575 0 
z
M 797 1656 
Q 797 1019 1065 703 
Q 1334 388 1700 388 
Q 2069 388 2326 689 
Q 2584 991 2584 1609 
Q 2584 2291 2321 2609 
Q 2059 2928 1675 2928 
Q 1300 2928 1048 2622 
Q 797 2316 797 1656 
z
" transform="scale(0.015625)"/>
       <path id="ArialMT-6d" d="M 422 0 
L 422 3319 
L 925 3319 
L 925 2853 
Q 1081 3097 1340 3245 
Q 1600 3394 1931 3394 
Q 2300 3394 2536 3241 
Q 2772 3088 2869 2813 
Q 3263 3394 3894 3394 
Q 4388 3394 4653 3120 
Q 4919 2847 4919 2278 
L 4919 0 
L 4359 0 
L 4359 2091 
Q 4359 2428 4304 2576 
Q 4250 2725 4106 2815 
Q 3963 2906 3769 2906 
Q 3419 2906 3187 2673 
Q 2956 2441 2956 1928 
L 2956 0 
L 2394 0 
L 2394 2156 
Q 2394 2531 2256 2718 
Q 2119 2906 1806 2906 
Q 1569 2906 1367 2781 
Q 1166 2656 1075 2415 
Q 984 2175 984 1722 
L 984 0 
L 422 0 
z
" transform="scale(0.015625)"/>
      </defs>
      <use xlink:href="#ArialMT-52"/>
      <use xlink:href="#ArialMT-61" x="72.216797"/>
      <use xlink:href="#ArialMT-6e" x="127.832031"/>
      <use xlink:href="#ArialMT-64" x="183.447266"/>
      <use xlink:href="#ArialMT-6f" x="239.0625"/>
      <use xlink:href="#ArialMT-6d" x="294.677734"/>
      <use xlink:href="#ArialMT-20" x="377.978516"/>
      <use xlink:href="#ArialMT-28" x="405.761719"/>
      <use xlink:href="#ArialMT-30" x="439.0625"/>
      <use xlink:href="#ArialMT-2e" x="494.677734"/>
      <use xlink:href="#ArialMT-33" x="522.460938"/>
      <use xlink:href="#ArialMT-30" x="578.076172"/>
      <use xlink:href="#ArialMT-29" x="633.691406"/>
     </g>
    </g>
    <g id="line2d_17">
     <path d="M 621.16223 597.069316 
L 645.16223 597.069316 
L 669.16223 597.069316 
" style="fill: none; stroke: #bebada; stroke-width: 3; stroke-linecap: round"/>
    </g>
    <g id="text_15">
     <!-- Random (0.10) -->
     <g style="fill: #262626" transform="translate(688.36223 605.469316) scale(0.24 -0.24)">
      <use xlink:href="#ArialMT-52"/>
      <use xlink:href="#ArialMT-61" x="72.216797"/>
      <use xlink:href="#ArialMT-6e" x="127.832031"/>
      <use xlink:href="#ArialMT-64" x="183.447266"/>
      <use xlink:href="#ArialMT-6f" x="239.0625"/>
      <use xlink:href="#ArialMT-6d" x="294.677734"/>
      <use xlink:href="#ArialMT-20" x="377.978516"/>
      <use xlink:href="#ArialMT-28" x="405.761719"/>
      <use xlink:href="#ArialMT-30" x="439.0625"/>
      <use xlink:href="#ArialMT-2e" x="494.677734"/>
      <use xlink:href="#ArialMT-31" x="522.460938"/>
      <use xlink:href="#ArialMT-30" x="578.076172"/>
      <use xlink:href="#ArialMT-29" x="633.691406"/>
     </g>
    </g>
    <g id="line2d_18">
     <path d="M 877.22723 597.069316 
L 901.22723 597.069316 
L 925.22723 597.069316 
" style="fill: none; stroke: #80b1d3; stroke-width: 3; stroke-linecap: round"/>
    </g>
    <g id="text_16">
     <!-- Random (0.05) -->
     <g style="fill: #262626" transform="translate(944.42723 605.469316) scale(0.24 -0.24)">
      <defs>
       <path id="ArialMT-35" d="M 266 1200 
L 856 1250 
Q 922 819 1161 601 
Q 1400 384 1738 384 
Q 2144 384 2425 690 
Q 2706 997 2706 1503 
Q 2706 1984 2436 2262 
Q 2166 2541 1728 2541 
Q 1456 2541 1237 2417 
Q 1019 2294 894 2097 
L 366 2166 
L 809 4519 
L 3088 4519 
L 3088 3981 
L 1259 3981 
L 1013 2750 
Q 1425 3038 1878 3038 
Q 2478 3038 2890 2622 
Q 3303 2206 3303 1553 
Q 3303 931 2941 478 
Q 2500 -78 1738 -78 
Q 1113 -78 717 272 
Q 322 622 266 1200 
z
" transform="scale(0.015625)"/>
      </defs>
      <use xlink:href="#ArialMT-52"/>
      <use xlink:href="#ArialMT-61" x="72.216797"/>
      <use xlink:href="#ArialMT-6e" x="127.832031"/>
      <use xlink:href="#ArialMT-64" x="183.447266"/>
      <use xlink:href="#ArialMT-6f" x="239.0625"/>
      <use xlink:href="#ArialMT-6d" x="294.677734"/>
      <use xlink:href="#ArialMT-20" x="377.978516"/>
      <use xlink:href="#ArialMT-28" x="405.761719"/>
      <use xlink:href="#ArialMT-30" x="439.0625"/>
      <use xlink:href="#ArialMT-2e" x="494.677734"/>
      <use xlink:href="#ArialMT-30" x="522.460938"/>
      <use xlink:href="#ArialMT-35" x="578.076172"/>
      <use xlink:href="#ArialMT-29" x="633.691406"/>
     </g>
    </g>
   </g>
  </g>
 </g>
 <defs>
  <clipPath id="p22f4994d9c">
   <rect x="83.83" y="28.08" width="1040.09" height="468.102666"/>
  </clipPath>
 </defs>
</svg>
