<?xml version="1.0" encoding="utf-8" standalone="no"?>
<!DOCTYPE svg PUBLIC "-//W3C//DTD SVG 1.1//EN"
  "http://www.w3.org/Graphics/SVG/1.1/DTD/svg11.dtd">
<svg xmlns:xlink="http://www.w3.org/1999/xlink" width="756pt" height="576pt" viewBox="0 0 756 576" xmlns="http://www.w3.org/2000/svg" version="1.1">
 <metadata>
  <rdf:RDF xmlns:dc="http://purl.org/dc/elements/1.1/" xmlns:cc="http://creativecommons.org/ns#" xmlns:rdf="http://www.w3.org/1999/02/22-rdf-syntax-ns#">
   <cc:Work>
    <dc:type rdf:resource="http://purl.org/dc/dcmitype/StillImage"/>
    <dc:date>2023-01-12T15:50:21.440863</dc:date>
    <dc:format>image/svg+xml</dc:format>
    <dc:creator>
     <cc:Agent>
      <dc:title>Matplotlib v3.6.0, https://matplotlib.org/</dc:title>
     </cc:Agent>
    </dc:creator>
   </cc:Work>
  </rdf:RDF>
 </metadata>
 <defs>
  <style type="text/css">*{stroke-linejoin: round; stroke-linecap: butt}</style>
 </defs>
 <g id="figure_1">
  <g id="patch_1">
   <path d="M 0 576 
L 756 576 
L 756 0 
L 0 0 
z
" style="fill: #ffffff"/>
  </g>
  <g id="axes_1">
   <g id="patch_2">
    <path d="M 63.58 505.94 
L 736.56 505.94 
L 736.56 19.44 
L 63.58 19.44 
z
" style="fill: #ffffff"/>
   </g>
   <g id="matplotlib.axis_1">
    <g id="xtick_1">
     <g id="line2d_1">
      <defs>
       <path id="m65a7274fa1" d="M 0 0 
L 0 6 
" style="stroke: #262626; stroke-width: 1.25"/>
      </defs>
      <g>
       <use xlink:href="#m65a7274fa1" x="111.65" y="505.94" style="fill: #262626; stroke: #262626; stroke-width: 1.25"/>
      </g>
     </g>
     <g id="text_1">
      <!-- &lt; 0.05 -->
      <g style="fill: #262626" transform="translate(86.378281 528.324062) scale(0.18 -0.18)">
       <defs>
        <path id="ArialMT-3c" d="M 350 2003 
L 350 2528 
L 3384 3809 
L 3384 3250 
L 978 2263 
L 3384 1266 
L 3384 706 
L 350 2003 
z
" transform="scale(0.015625)"/>
        <path id="ArialMT-20" transform="scale(0.015625)"/>
        <path id="ArialMT-30" d="M 266 2259 
Q 266 3072 433 3567 
Q 600 4063 929 4331 
Q 1259 4600 1759 4600 
Q 2128 4600 2406 4451 
Q 2684 4303 2865 4023 
Q 3047 3744 3150 3342 
Q 3253 2941 3253 2259 
Q 3253 1453 3087 958 
Q 2922 463 2592 192 
Q 2263 -78 1759 -78 
Q 1097 -78 719 397 
Q 266 969 266 2259 
z
M 844 2259 
Q 844 1131 1108 757 
Q 1372 384 1759 384 
Q 2147 384 2411 759 
Q 2675 1134 2675 2259 
Q 2675 3391 2411 3762 
Q 2147 4134 1753 4134 
Q 1366 4134 1134 3806 
Q 844 3388 844 2259 
z
" transform="scale(0.015625)"/>
        <path id="ArialMT-2e" d="M 581 0 
L 581 641 
L 1222 641 
L 1222 0 
L 581 0 
z
" transform="scale(0.015625)"/>
        <path id="ArialMT-35" d="M 266 1200 
L 856 1250 
Q 922 819 1161 601 
Q 1400 384 1738 384 
Q 2144 384 2425 690 
Q 2706 997 2706 1503 
Q 2706 1984 2436 2262 
Q 2166 2541 1728 2541 
Q 1456 2541 1237 2417 
Q 1019 2294 894 2097 
L 366 2166 
L 809 4519 
L 3088 4519 
L 3088 3981 
L 1259 3981 
L 1013 2750 
Q 1425 3038 1878 3038 
Q 2478 3038 2890 2622 
Q 3303 2206 3303 1553 
Q 3303 931 2941 478 
Q 2500 -78 1738 -78 
Q 1113 -78 717 272 
Q 322 622 266 1200 
z
" transform="scale(0.015625)"/>
       </defs>
       <use xlink:href="#ArialMT-3c"/>
       <use xlink:href="#ArialMT-20" x="58.398438"/>
       <use xlink:href="#ArialMT-30" x="86.181641"/>
       <use xlink:href="#ArialMT-2e" x="141.796875"/>
       <use xlink:href="#ArialMT-30" x="169.580078"/>
       <use xlink:href="#ArialMT-35" x="225.195312"/>
      </g>
     </g>
    </g>
    <g id="xtick_2">
     <g id="line2d_2">
      <g>
       <use xlink:href="#m65a7274fa1" x="207.79" y="505.94" style="fill: #262626; stroke: #262626; stroke-width: 1.25"/>
      </g>
     </g>
     <g id="text_2">
      <!-- 0.05-0.10 -->
      <g style="fill: #262626" transform="translate(169.763594 528.324062) scale(0.18 -0.18)">
       <defs>
        <path id="ArialMT-2d" d="M 203 1375 
L 203 1941 
L 1931 1941 
L 1931 1375 
L 203 1375 
z
" transform="scale(0.015625)"/>
        <path id="ArialMT-31" d="M 2384 0 
L 1822 0 
L 1822 3584 
Q 1619 3391 1289 3197 
Q 959 3003 697 2906 
L 697 3450 
Q 1169 3672 1522 3987 
Q 1875 4303 2022 4600 
L 2384 4600 
L 2384 0 
z
" transform="scale(0.015625)"/>
       </defs>
       <use xlink:href="#ArialMT-30"/>
       <use xlink:href="#ArialMT-2e" x="55.615234"/>
       <use xlink:href="#ArialMT-30" x="83.398438"/>
       <use xlink:href="#ArialMT-35" x="139.013672"/>
       <use xlink:href="#ArialMT-2d" x="194.628906"/>
       <use xlink:href="#ArialMT-30" x="227.929688"/>
       <use xlink:href="#ArialMT-2e" x="283.544922"/>
       <use xlink:href="#ArialMT-31" x="311.328125"/>
       <use xlink:href="#ArialMT-30" x="366.943359"/>
      </g>
     </g>
    </g>
    <g id="xtick_3">
     <g id="line2d_3">
      <g>
       <use xlink:href="#m65a7274fa1" x="303.93" y="505.94" style="fill: #262626; stroke: #262626; stroke-width: 1.25"/>
      </g>
     </g>
     <g id="text_3">
      <!-- 0.10-0.15 -->
      <g style="fill: #262626" transform="translate(265.903594 528.324062) scale(0.18 -0.18)">
       <use xlink:href="#ArialMT-30"/>
       <use xlink:href="#ArialMT-2e" x="55.615234"/>
       <use xlink:href="#ArialMT-31" x="83.398438"/>
       <use xlink:href="#ArialMT-30" x="139.013672"/>
       <use xlink:href="#ArialMT-2d" x="194.628906"/>
       <use xlink:href="#ArialMT-30" x="227.929688"/>
       <use xlink:href="#ArialMT-2e" x="283.544922"/>
       <use xlink:href="#ArialMT-31" x="311.328125"/>
       <use xlink:href="#ArialMT-35" x="366.943359"/>
      </g>
     </g>
    </g>
    <g id="xtick_4">
     <g id="line2d_4">
      <g>
       <use xlink:href="#m65a7274fa1" x="400.07" y="505.94" style="fill: #262626; stroke: #262626; stroke-width: 1.25"/>
      </g>
     </g>
     <g id="text_4">
      <!-- 0.15-0.20 -->
      <g style="fill: #262626" transform="translate(362.043594 528.324062) scale(0.18 -0.18)">
       <defs>
        <path id="ArialMT-32" d="M 3222 541 
L 3222 0 
L 194 0 
Q 188 203 259 391 
Q 375 700 629 1000 
Q 884 1300 1366 1694 
Q 2113 2306 2375 2664 
Q 2638 3022 2638 3341 
Q 2638 3675 2398 3904 
Q 2159 4134 1775 4134 
Q 1369 4134 1125 3890 
Q 881 3647 878 3216 
L 300 3275 
Q 359 3922 746 4261 
Q 1134 4600 1788 4600 
Q 2447 4600 2831 4234 
Q 3216 3869 3216 3328 
Q 3216 3053 3103 2787 
Q 2991 2522 2730 2228 
Q 2469 1934 1863 1422 
Q 1356 997 1212 845 
Q 1069 694 975 541 
L 3222 541 
z
" transform="scale(0.015625)"/>
       </defs>
       <use xlink:href="#ArialMT-30"/>
       <use xlink:href="#ArialMT-2e" x="55.615234"/>
       <use xlink:href="#ArialMT-31" x="83.398438"/>
       <use xlink:href="#ArialMT-35" x="139.013672"/>
       <use xlink:href="#ArialMT-2d" x="194.628906"/>
       <use xlink:href="#ArialMT-30" x="227.929688"/>
       <use xlink:href="#ArialMT-2e" x="283.544922"/>
       <use xlink:href="#ArialMT-32" x="311.328125"/>
       <use xlink:href="#ArialMT-30" x="366.943359"/>
      </g>
     </g>
    </g>
    <g id="xtick_5">
     <g id="line2d_5">
      <g>
       <use xlink:href="#m65a7274fa1" x="496.21" y="505.94" style="fill: #262626; stroke: #262626; stroke-width: 1.25"/>
      </g>
     </g>
     <g id="text_5">
      <!-- 0.20-0.30 -->
      <g style="fill: #262626" transform="translate(458.183594 528.324062) scale(0.18 -0.18)">
       <defs>
        <path id="ArialMT-33" d="M 269 1209 
L 831 1284 
Q 928 806 1161 595 
Q 1394 384 1728 384 
Q 2125 384 2398 659 
Q 2672 934 2672 1341 
Q 2672 1728 2419 1979 
Q 2166 2231 1775 2231 
Q 1616 2231 1378 2169 
L 1441 2663 
Q 1497 2656 1531 2656 
Q 1891 2656 2178 2843 
Q 2466 3031 2466 3422 
Q 2466 3731 2256 3934 
Q 2047 4138 1716 4138 
Q 1388 4138 1169 3931 
Q 950 3725 888 3313 
L 325 3413 
Q 428 3978 793 4289 
Q 1159 4600 1703 4600 
Q 2078 4600 2393 4439 
Q 2709 4278 2876 4000 
Q 3044 3722 3044 3409 
Q 3044 3113 2884 2869 
Q 2725 2625 2413 2481 
Q 2819 2388 3044 2092 
Q 3269 1797 3269 1353 
Q 3269 753 2831 336 
Q 2394 -81 1725 -81 
Q 1122 -81 723 278 
Q 325 638 269 1209 
z
" transform="scale(0.015625)"/>
       </defs>
       <use xlink:href="#ArialMT-30"/>
       <use xlink:href="#ArialMT-2e" x="55.615234"/>
       <use xlink:href="#ArialMT-32" x="83.398438"/>
       <use xlink:href="#ArialMT-30" x="139.013672"/>
       <use xlink:href="#ArialMT-2d" x="194.628906"/>
       <use xlink:href="#ArialMT-30" x="227.929688"/>
       <use xlink:href="#ArialMT-2e" x="283.544922"/>
       <use xlink:href="#ArialMT-33" x="311.328125"/>
       <use xlink:href="#ArialMT-30" x="366.943359"/>
      </g>
     </g>
    </g>
    <g id="xtick_6">
     <g id="line2d_6">
      <g>
       <use xlink:href="#m65a7274fa1" x="592.35" y="505.94" style="fill: #262626; stroke: #262626; stroke-width: 1.25"/>
      </g>
     </g>
     <g id="text_6">
      <!-- 0.30-0.40 -->
      <g style="fill: #262626" transform="translate(554.323594 528.324062) scale(0.18 -0.18)">
       <defs>
        <path id="ArialMT-34" d="M 2069 0 
L 2069 1097 
L 81 1097 
L 81 1613 
L 2172 4581 
L 2631 4581 
L 2631 1613 
L 3250 1613 
L 3250 1097 
L 2631 1097 
L 2631 0 
L 2069 0 
z
M 2069 1613 
L 2069 3678 
L 634 1613 
L 2069 1613 
z
" transform="scale(0.015625)"/>
       </defs>
       <use xlink:href="#ArialMT-30"/>
       <use xlink:href="#ArialMT-2e" x="55.615234"/>
       <use xlink:href="#ArialMT-33" x="83.398438"/>
       <use xlink:href="#ArialMT-30" x="139.013672"/>
       <use xlink:href="#ArialMT-2d" x="194.628906"/>
       <use xlink:href="#ArialMT-30" x="227.929688"/>
       <use xlink:href="#ArialMT-2e" x="283.544922"/>
       <use xlink:href="#ArialMT-34" x="311.328125"/>
       <use xlink:href="#ArialMT-30" x="366.943359"/>
      </g>
     </g>
    </g>
    <g id="xtick_7">
     <g id="line2d_7">
      <g>
       <use xlink:href="#m65a7274fa1" x="688.49" y="505.94" style="fill: #262626; stroke: #262626; stroke-width: 1.25"/>
      </g>
     </g>
     <g id="text_7">
      <!-- 0.40-0.62 -->
      <g style="fill: #262626" transform="translate(650.463594 528.324062) scale(0.18 -0.18)">
       <defs>
        <path id="ArialMT-36" d="M 3184 3459 
L 2625 3416 
Q 2550 3747 2413 3897 
Q 2184 4138 1850 4138 
Q 1581 4138 1378 3988 
Q 1113 3794 959 3422 
Q 806 3050 800 2363 
Q 1003 2672 1297 2822 
Q 1591 2972 1913 2972 
Q 2475 2972 2870 2558 
Q 3266 2144 3266 1488 
Q 3266 1056 3080 686 
Q 2894 316 2569 119 
Q 2244 -78 1831 -78 
Q 1128 -78 684 439 
Q 241 956 241 2144 
Q 241 3472 731 4075 
Q 1159 4600 1884 4600 
Q 2425 4600 2770 4297 
Q 3116 3994 3184 3459 
z
M 888 1484 
Q 888 1194 1011 928 
Q 1134 663 1356 523 
Q 1578 384 1822 384 
Q 2178 384 2434 671 
Q 2691 959 2691 1453 
Q 2691 1928 2437 2201 
Q 2184 2475 1800 2475 
Q 1419 2475 1153 2201 
Q 888 1928 888 1484 
z
" transform="scale(0.015625)"/>
       </defs>
       <use xlink:href="#ArialMT-30"/>
       <use xlink:href="#ArialMT-2e" x="55.615234"/>
       <use xlink:href="#ArialMT-34" x="83.398438"/>
       <use xlink:href="#ArialMT-30" x="139.013672"/>
       <use xlink:href="#ArialMT-2d" x="194.628906"/>
       <use xlink:href="#ArialMT-30" x="227.929688"/>
       <use xlink:href="#ArialMT-2e" x="283.544922"/>
       <use xlink:href="#ArialMT-36" x="311.328125"/>
       <use xlink:href="#ArialMT-32" x="366.943359"/>
      </g>
     </g>
    </g>
    <g id="text_8">
     <!-- Influence Team Strength -->
     <g style="fill: #262626" transform="translate(295.724844 553.005) scale(0.18 -0.18)">
      <defs>
       <path id="Arial-BoldMT-49" d="M 438 0 
L 438 4581 
L 1363 4581 
L 1363 0 
L 438 0 
z
" transform="scale(0.015625)"/>
       <path id="Arial-BoldMT-6e" d="M 3478 0 
L 2600 0 
L 2600 1694 
Q 2600 2231 2544 2389 
Q 2488 2547 2361 2634 
Q 2234 2722 2056 2722 
Q 1828 2722 1647 2597 
Q 1466 2472 1398 2265 
Q 1331 2059 1331 1503 
L 1331 0 
L 453 0 
L 453 3319 
L 1269 3319 
L 1269 2831 
Q 1703 3394 2363 3394 
Q 2653 3394 2893 3289 
Q 3134 3184 3257 3021 
Q 3381 2859 3429 2653 
Q 3478 2447 3478 2063 
L 3478 0 
z
" transform="scale(0.015625)"/>
       <path id="Arial-BoldMT-66" d="M 75 3319 
L 563 3319 
L 563 3569 
Q 563 3988 652 4194 
Q 741 4400 980 4529 
Q 1219 4659 1584 4659 
Q 1959 4659 2319 4547 
L 2200 3934 
Q 1991 3984 1797 3984 
Q 1606 3984 1523 3895 
Q 1441 3806 1441 3553 
L 1441 3319 
L 2097 3319 
L 2097 2628 
L 1441 2628 
L 1441 0 
L 563 0 
L 563 2628 
L 75 2628 
L 75 3319 
z
" transform="scale(0.015625)"/>
       <path id="Arial-BoldMT-6c" d="M 459 0 
L 459 4581 
L 1338 4581 
L 1338 0 
L 459 0 
z
" transform="scale(0.015625)"/>
       <path id="Arial-BoldMT-75" d="M 2644 0 
L 2644 497 
Q 2463 231 2167 78 
Q 1872 -75 1544 -75 
Q 1209 -75 943 72 
Q 678 219 559 484 
Q 441 750 441 1219 
L 441 3319 
L 1319 3319 
L 1319 1794 
Q 1319 1094 1367 936 
Q 1416 778 1544 686 
Q 1672 594 1869 594 
Q 2094 594 2272 717 
Q 2450 841 2515 1023 
Q 2581 1206 2581 1919 
L 2581 3319 
L 3459 3319 
L 3459 0 
L 2644 0 
z
" transform="scale(0.015625)"/>
       <path id="Arial-BoldMT-65" d="M 2381 1056 
L 3256 909 
Q 3088 428 2723 176 
Q 2359 -75 1813 -75 
Q 947 -75 531 491 
Q 203 944 203 1634 
Q 203 2459 634 2926 
Q 1066 3394 1725 3394 
Q 2466 3394 2894 2905 
Q 3322 2416 3303 1406 
L 1103 1406 
Q 1113 1016 1316 798 
Q 1519 581 1822 581 
Q 2028 581 2168 693 
Q 2309 806 2381 1056 
z
M 2431 1944 
Q 2422 2325 2234 2523 
Q 2047 2722 1778 2722 
Q 1491 2722 1303 2513 
Q 1116 2303 1119 1944 
L 2431 1944 
z
" transform="scale(0.015625)"/>
       <path id="Arial-BoldMT-63" d="M 3353 2338 
L 2488 2181 
Q 2444 2441 2289 2572 
Q 2134 2703 1888 2703 
Q 1559 2703 1364 2476 
Q 1169 2250 1169 1719 
Q 1169 1128 1367 884 
Q 1566 641 1900 641 
Q 2150 641 2309 783 
Q 2469 925 2534 1272 
L 3397 1125 
Q 3263 531 2881 228 
Q 2500 -75 1859 -75 
Q 1131 -75 698 384 
Q 266 844 266 1656 
Q 266 2478 700 2936 
Q 1134 3394 1875 3394 
Q 2481 3394 2839 3133 
Q 3197 2872 3353 2338 
z
" transform="scale(0.015625)"/>
       <path id="Arial-BoldMT-20" transform="scale(0.015625)"/>
       <path id="Arial-BoldMT-54" d="M 1497 0 
L 1497 3806 
L 138 3806 
L 138 4581 
L 3778 4581 
L 3778 3806 
L 2422 3806 
L 2422 0 
L 1497 0 
z
" transform="scale(0.015625)"/>
       <path id="Arial-BoldMT-61" d="M 1116 2306 
L 319 2450 
Q 453 2931 781 3162 
Q 1109 3394 1756 3394 
Q 2344 3394 2631 3255 
Q 2919 3116 3036 2902 
Q 3153 2688 3153 2116 
L 3144 1091 
Q 3144 653 3186 445 
Q 3228 238 3344 0 
L 2475 0 
Q 2441 88 2391 259 
Q 2369 338 2359 363 
Q 2134 144 1878 34 
Q 1622 -75 1331 -75 
Q 819 -75 523 203 
Q 228 481 228 906 
Q 228 1188 362 1408 
Q 497 1628 739 1745 
Q 981 1863 1438 1950 
Q 2053 2066 2291 2166 
L 2291 2253 
Q 2291 2506 2166 2614 
Q 2041 2722 1694 2722 
Q 1459 2722 1328 2630 
Q 1197 2538 1116 2306 
z
M 2291 1594 
Q 2122 1538 1756 1459 
Q 1391 1381 1278 1306 
Q 1106 1184 1106 997 
Q 1106 813 1243 678 
Q 1381 544 1594 544 
Q 1831 544 2047 700 
Q 2206 819 2256 991 
Q 2291 1103 2291 1419 
L 2291 1594 
z
" transform="scale(0.015625)"/>
       <path id="Arial-BoldMT-6d" d="M 394 3319 
L 1203 3319 
L 1203 2866 
Q 1638 3394 2238 3394 
Q 2556 3394 2790 3262 
Q 3025 3131 3175 2866 
Q 3394 3131 3647 3262 
Q 3900 3394 4188 3394 
Q 4553 3394 4806 3245 
Q 5059 3097 5184 2809 
Q 5275 2597 5275 2122 
L 5275 0 
L 4397 0 
L 4397 1897 
Q 4397 2391 4306 2534 
Q 4184 2722 3931 2722 
Q 3747 2722 3584 2609 
Q 3422 2497 3350 2280 
Q 3278 2063 3278 1594 
L 3278 0 
L 2400 0 
L 2400 1819 
Q 2400 2303 2353 2443 
Q 2306 2584 2207 2653 
Q 2109 2722 1941 2722 
Q 1738 2722 1575 2612 
Q 1413 2503 1342 2297 
Q 1272 2091 1272 1613 
L 1272 0 
L 394 0 
L 394 3319 
z
" transform="scale(0.015625)"/>
       <path id="Arial-BoldMT-53" d="M 231 1491 
L 1131 1578 
Q 1213 1125 1461 912 
Q 1709 700 2131 700 
Q 2578 700 2804 889 
Q 3031 1078 3031 1331 
Q 3031 1494 2936 1608 
Q 2841 1722 2603 1806 
Q 2441 1863 1863 2006 
Q 1119 2191 819 2459 
Q 397 2838 397 3381 
Q 397 3731 595 4036 
Q 794 4341 1167 4500 
Q 1541 4659 2069 4659 
Q 2931 4659 3367 4281 
Q 3803 3903 3825 3272 
L 2900 3231 
Q 2841 3584 2645 3739 
Q 2450 3894 2059 3894 
Q 1656 3894 1428 3728 
Q 1281 3622 1281 3444 
Q 1281 3281 1419 3166 
Q 1594 3019 2269 2859 
Q 2944 2700 3267 2529 
Q 3591 2359 3773 2064 
Q 3956 1769 3956 1334 
Q 3956 941 3737 597 
Q 3519 253 3119 86 
Q 2719 -81 2122 -81 
Q 1253 -81 787 320 
Q 322 722 231 1491 
z
" transform="scale(0.015625)"/>
       <path id="Arial-BoldMT-74" d="M 1981 3319 
L 1981 2619 
L 1381 2619 
L 1381 1281 
Q 1381 875 1398 808 
Q 1416 741 1477 697 
Q 1538 653 1625 653 
Q 1747 653 1978 738 
L 2053 56 
Q 1747 -75 1359 -75 
Q 1122 -75 931 4 
Q 741 84 652 211 
Q 563 338 528 553 
Q 500 706 500 1172 
L 500 2619 
L 97 2619 
L 97 3319 
L 500 3319 
L 500 3978 
L 1381 4491 
L 1381 3319 
L 1981 3319 
z
" transform="scale(0.015625)"/>
       <path id="Arial-BoldMT-72" d="M 1300 0 
L 422 0 
L 422 3319 
L 1238 3319 
L 1238 2847 
Q 1447 3181 1614 3287 
Q 1781 3394 1994 3394 
Q 2294 3394 2572 3228 
L 2300 2463 
Q 2078 2606 1888 2606 
Q 1703 2606 1575 2504 
Q 1447 2403 1373 2137 
Q 1300 1872 1300 1025 
L 1300 0 
z
" transform="scale(0.015625)"/>
       <path id="Arial-BoldMT-67" d="M 378 -219 
L 1381 -341 
Q 1406 -516 1497 -581 
Q 1622 -675 1891 -675 
Q 2234 -675 2406 -572 
Q 2522 -503 2581 -350 
Q 2622 -241 2622 53 
L 2622 538 
Q 2228 0 1628 0 
Q 959 0 569 566 
Q 263 1013 263 1678 
Q 263 2513 664 2953 
Q 1066 3394 1663 3394 
Q 2278 3394 2678 2853 
L 2678 3319 
L 3500 3319 
L 3500 341 
Q 3500 -247 3403 -537 
Q 3306 -828 3131 -993 
Q 2956 -1159 2664 -1253 
Q 2372 -1347 1925 -1347 
Q 1081 -1347 728 -1058 
Q 375 -769 375 -325 
Q 375 -281 378 -219 
z
M 1163 1728 
Q 1163 1200 1367 954 
Q 1572 709 1872 709 
Q 2194 709 2416 961 
Q 2638 1213 2638 1706 
Q 2638 2222 2425 2472 
Q 2213 2722 1888 2722 
Q 1572 2722 1367 2476 
Q 1163 2231 1163 1728 
z
" transform="scale(0.015625)"/>
       <path id="Arial-BoldMT-68" d="M 1334 4581 
L 1334 2897 
Q 1759 3394 2350 3394 
Q 2653 3394 2897 3281 
Q 3141 3169 3264 2994 
Q 3388 2819 3433 2606 
Q 3478 2394 3478 1947 
L 3478 0 
L 2600 0 
L 2600 1753 
Q 2600 2275 2550 2415 
Q 2500 2556 2373 2639 
Q 2247 2722 2056 2722 
Q 1838 2722 1666 2615 
Q 1494 2509 1414 2295 
Q 1334 2081 1334 1663 
L 1334 0 
L 456 0 
L 456 4581 
L 1334 4581 
z
" transform="scale(0.015625)"/>
      </defs>
      <use xlink:href="#Arial-BoldMT-49"/>
      <use xlink:href="#Arial-BoldMT-6e" x="27.783203"/>
      <use xlink:href="#Arial-BoldMT-66" x="88.867188"/>
      <use xlink:href="#Arial-BoldMT-6c" x="122.167969"/>
      <use xlink:href="#Arial-BoldMT-75" x="149.951172"/>
      <use xlink:href="#Arial-BoldMT-65" x="211.035156"/>
      <use xlink:href="#Arial-BoldMT-6e" x="266.650391"/>
      <use xlink:href="#Arial-BoldMT-63" x="327.734375"/>
      <use xlink:href="#Arial-BoldMT-65" x="383.349609"/>
      <use xlink:href="#Arial-BoldMT-20" x="438.964844"/>
      <use xlink:href="#Arial-BoldMT-54" x="466.748047"/>
      <use xlink:href="#Arial-BoldMT-65" x="520.457031"/>
      <use xlink:href="#Arial-BoldMT-61" x="576.072266"/>
      <use xlink:href="#Arial-BoldMT-6d" x="631.6875"/>
      <use xlink:href="#Arial-BoldMT-20" x="720.603516"/>
      <use xlink:href="#Arial-BoldMT-53" x="748.386719"/>
      <use xlink:href="#Arial-BoldMT-74" x="815.085938"/>
      <use xlink:href="#Arial-BoldMT-72" x="848.386719"/>
      <use xlink:href="#Arial-BoldMT-65" x="887.302734"/>
      <use xlink:href="#Arial-BoldMT-6e" x="942.917969"/>
      <use xlink:href="#Arial-BoldMT-67" x="1004.001953"/>
      <use xlink:href="#Arial-BoldMT-74" x="1065.085938"/>
      <use xlink:href="#Arial-BoldMT-68" x="1098.386719"/>
     </g>
    </g>
   </g>
   <g id="matplotlib.axis_2">
    <g id="ytick_1">
     <g id="line2d_8">
      <defs>
       <path id="m2d54c2de38" d="M 0 0 
L -6 0 
" style="stroke: #262626; stroke-width: 1.25"/>
      </defs>
      <g>
       <use xlink:href="#m2d54c2de38" x="63.58" y="487.062824" style="fill: #262626; stroke: #262626; stroke-width: 1.25"/>
      </g>
     </g>
     <g id="text_9">
      <!-- 0 -->
      <g style="fill: #262626" transform="translate(44.070313 493.504856) scale(0.18 -0.18)">
       <use xlink:href="#ArialMT-30"/>
      </g>
     </g>
    </g>
    <g id="ytick_2">
     <g id="line2d_9">
      <g>
       <use xlink:href="#m2d54c2de38" x="63.58" y="393.085639" style="fill: #262626; stroke: #262626; stroke-width: 1.25"/>
      </g>
     </g>
     <g id="text_10">
      <!-- 2 -->
      <g style="fill: #262626" transform="translate(44.070313 399.52767) scale(0.18 -0.18)">
       <use xlink:href="#ArialMT-32"/>
      </g>
     </g>
    </g>
    <g id="ytick_3">
     <g id="line2d_10">
      <g>
       <use xlink:href="#m2d54c2de38" x="63.58" y="299.108453" style="fill: #262626; stroke: #262626; stroke-width: 1.25"/>
      </g>
     </g>
     <g id="text_11">
      <!-- 4 -->
      <g style="fill: #262626" transform="translate(44.070313 305.550485) scale(0.18 -0.18)">
       <use xlink:href="#ArialMT-34"/>
      </g>
     </g>
    </g>
    <g id="ytick_4">
     <g id="line2d_11">
      <g>
       <use xlink:href="#m2d54c2de38" x="63.58" y="205.131268" style="fill: #262626; stroke: #262626; stroke-width: 1.25"/>
      </g>
     </g>
     <g id="text_12">
      <!-- 6 -->
      <g style="fill: #262626" transform="translate(44.070313 211.573299) scale(0.18 -0.18)">
       <use xlink:href="#ArialMT-36"/>
      </g>
     </g>
    </g>
    <g id="ytick_5">
     <g id="line2d_12">
      <g>
       <use xlink:href="#m2d54c2de38" x="63.58" y="111.154082" style="fill: #262626; stroke: #262626; stroke-width: 1.25"/>
      </g>
     </g>
     <g id="text_13">
      <!-- 8 -->
      <g style="fill: #262626" transform="translate(44.070313 117.596114) scale(0.18 -0.18)">
       <defs>
        <path id="ArialMT-38" d="M 1131 2484 
Q 781 2613 612 2850 
Q 444 3088 444 3419 
Q 444 3919 803 4259 
Q 1163 4600 1759 4600 
Q 2359 4600 2725 4251 
Q 3091 3903 3091 3403 
Q 3091 3084 2923 2848 
Q 2756 2613 2416 2484 
Q 2838 2347 3058 2040 
Q 3278 1734 3278 1309 
Q 3278 722 2862 322 
Q 2447 -78 1769 -78 
Q 1091 -78 675 323 
Q 259 725 259 1325 
Q 259 1772 486 2073 
Q 713 2375 1131 2484 
z
M 1019 3438 
Q 1019 3113 1228 2906 
Q 1438 2700 1772 2700 
Q 2097 2700 2305 2904 
Q 2513 3109 2513 3406 
Q 2513 3716 2298 3927 
Q 2084 4138 1766 4138 
Q 1444 4138 1231 3931 
Q 1019 3725 1019 3438 
z
M 838 1322 
Q 838 1081 952 856 
Q 1066 631 1291 507 
Q 1516 384 1775 384 
Q 2178 384 2440 643 
Q 2703 903 2703 1303 
Q 2703 1709 2433 1975 
Q 2163 2241 1756 2241 
Q 1359 2241 1098 1978 
Q 838 1716 838 1322 
z
" transform="scale(0.015625)"/>
       </defs>
       <use xlink:href="#ArialMT-38"/>
      </g>
     </g>
    </g>
    <g id="text_14">
     <!-- Number of PCs -->
     <g style="fill: #262626" transform="translate(32.518125 327.696719) rotate(-90) scale(0.18 -0.18)">
      <defs>
       <path id="Arial-BoldMT-4e" d="M 475 0 
L 475 4581 
L 1375 4581 
L 3250 1522 
L 3250 4581 
L 4109 4581 
L 4109 0 
L 3181 0 
L 1334 2988 
L 1334 0 
L 475 0 
z
" transform="scale(0.015625)"/>
       <path id="Arial-BoldMT-62" d="M 422 0 
L 422 4581 
L 1300 4581 
L 1300 2931 
Q 1706 3394 2263 3394 
Q 2869 3394 3266 2955 
Q 3663 2516 3663 1694 
Q 3663 844 3258 384 
Q 2853 -75 2275 -75 
Q 1991 -75 1714 67 
Q 1438 209 1238 488 
L 1238 0 
L 422 0 
z
M 1294 1731 
Q 1294 1216 1456 969 
Q 1684 619 2063 619 
Q 2353 619 2558 867 
Q 2763 1116 2763 1650 
Q 2763 2219 2556 2470 
Q 2350 2722 2028 2722 
Q 1713 2722 1503 2476 
Q 1294 2231 1294 1731 
z
" transform="scale(0.015625)"/>
       <path id="Arial-BoldMT-6f" d="M 256 1706 
Q 256 2144 472 2553 
Q 688 2963 1083 3178 
Q 1478 3394 1966 3394 
Q 2719 3394 3200 2905 
Q 3681 2416 3681 1669 
Q 3681 916 3195 420 
Q 2709 -75 1972 -75 
Q 1516 -75 1102 131 
Q 688 338 472 736 
Q 256 1134 256 1706 
z
M 1156 1659 
Q 1156 1166 1390 903 
Q 1625 641 1969 641 
Q 2313 641 2545 903 
Q 2778 1166 2778 1666 
Q 2778 2153 2545 2415 
Q 2313 2678 1969 2678 
Q 1625 2678 1390 2415 
Q 1156 2153 1156 1659 
z
" transform="scale(0.015625)"/>
       <path id="Arial-BoldMT-50" d="M 466 0 
L 466 4581 
L 1950 4581 
Q 2794 4581 3050 4513 
Q 3444 4409 3709 4064 
Q 3975 3719 3975 3172 
Q 3975 2750 3822 2462 
Q 3669 2175 3433 2011 
Q 3197 1847 2953 1794 
Q 2622 1728 1994 1728 
L 1391 1728 
L 1391 0 
L 466 0 
z
M 1391 3806 
L 1391 2506 
L 1897 2506 
Q 2444 2506 2628 2578 
Q 2813 2650 2917 2803 
Q 3022 2956 3022 3159 
Q 3022 3409 2875 3571 
Q 2728 3734 2503 3775 
Q 2338 3806 1838 3806 
L 1391 3806 
z
" transform="scale(0.015625)"/>
       <path id="Arial-BoldMT-43" d="M 3397 1684 
L 4294 1400 
Q 4088 650 3608 286 
Q 3128 -78 2391 -78 
Q 1478 -78 890 545 
Q 303 1169 303 2250 
Q 303 3394 893 4026 
Q 1484 4659 2447 4659 
Q 3288 4659 3813 4163 
Q 4125 3869 4281 3319 
L 3366 3100 
Q 3284 3456 3026 3662 
Q 2769 3869 2400 3869 
Q 1891 3869 1573 3503 
Q 1256 3138 1256 2319 
Q 1256 1450 1568 1081 
Q 1881 713 2381 713 
Q 2750 713 3015 947 
Q 3281 1181 3397 1684 
z
" transform="scale(0.015625)"/>
       <path id="Arial-BoldMT-73" d="M 150 947 
L 1031 1081 
Q 1088 825 1259 692 
Q 1431 559 1741 559 
Q 2081 559 2253 684 
Q 2369 772 2369 919 
Q 2369 1019 2306 1084 
Q 2241 1147 2013 1200 
Q 950 1434 666 1628 
Q 272 1897 272 2375 
Q 272 2806 612 3100 
Q 953 3394 1669 3394 
Q 2350 3394 2681 3172 
Q 3013 2950 3138 2516 
L 2309 2363 
Q 2256 2556 2107 2659 
Q 1959 2763 1684 2763 
Q 1338 2763 1188 2666 
Q 1088 2597 1088 2488 
Q 1088 2394 1175 2328 
Q 1294 2241 1995 2081 
Q 2697 1922 2975 1691 
Q 3250 1456 3250 1038 
Q 3250 581 2869 253 
Q 2488 -75 1741 -75 
Q 1063 -75 667 200 
Q 272 475 150 947 
z
" transform="scale(0.015625)"/>
      </defs>
      <use xlink:href="#Arial-BoldMT-4e"/>
      <use xlink:href="#Arial-BoldMT-75" x="72.216797"/>
      <use xlink:href="#Arial-BoldMT-6d" x="133.300781"/>
      <use xlink:href="#Arial-BoldMT-62" x="222.216797"/>
      <use xlink:href="#Arial-BoldMT-65" x="283.300781"/>
      <use xlink:href="#Arial-BoldMT-72" x="338.916016"/>
      <use xlink:href="#Arial-BoldMT-20" x="377.832031"/>
      <use xlink:href="#Arial-BoldMT-6f" x="405.615234"/>
      <use xlink:href="#Arial-BoldMT-66" x="466.699219"/>
      <use xlink:href="#Arial-BoldMT-20" x="500"/>
      <use xlink:href="#Arial-BoldMT-50" x="527.783203"/>
      <use xlink:href="#Arial-BoldMT-43" x="594.482422"/>
      <use xlink:href="#Arial-BoldMT-73" x="666.699219"/>
     </g>
    </g>
   </g>
   <g id="PolyCollection_1">
    <defs>
     <path id="mc1ac46b33b" d="M 112.147345 -327.1166 
L 111.152655 -327.1166 
L 111.063582 -328.949746 
L 110.963304 -330.782892 
L 110.851381 -332.616038 
L 110.727543 -334.449184 
L 110.59172 -336.28233 
L 110.444074 -338.115476 
L 110.285009 -339.948622 
L 110.115193 -341.781768 
L 109.935552 -343.614914 
L 109.747262 -345.44806 
L 109.551726 -347.281206 
L 109.350541 -349.114352 
L 109.145442 -350.947498 
L 108.938246 -352.780644 
L 108.730777 -354.61379 
L 108.524787 -356.446935 
L 108.321871 -358.280081 
L 108.123385 -360.113227 
L 107.930362 -361.946373 
L 107.743446 -363.779519 
L 107.562832 -365.612665 
L 107.388233 -367.445811 
L 107.218861 -369.278957 
L 107.053442 -371.112103 
L 106.890254 -372.945249 
L 106.727195 -374.778395 
L 106.561878 -376.611541 
L 106.391747 -378.444687 
L 106.214219 -380.277833 
L 106.026834 -382.110979 
L 105.827412 -383.944125 
L 105.614211 -385.777271 
L 105.386072 -387.610417 
L 105.142544 -389.443563 
L 104.883987 -391.276709 
L 104.611632 -393.109855 
L 104.327611 -394.943 
L 104.034931 -396.776146 
L 103.737414 -398.609292 
L 103.439586 -400.442438 
L 103.146527 -402.275584 
L 102.863689 -404.10873 
L 102.596678 -405.941876 
L 102.351032 -407.775022 
L 102.131983 -409.608168 
L 101.944231 -411.441314 
L 101.791735 -413.27446 
L 101.677533 -415.107606 
L 101.603602 -416.940752 
L 101.570765 -418.773898 
L 101.578653 -420.607044 
L 101.625719 -422.44019 
L 101.709307 -424.273336 
L 101.825783 -426.106482 
L 101.970692 -427.939628 
L 102.138976 -429.772774 
L 102.325194 -431.60592 
L 102.523778 -433.439066 
L 102.729275 -435.272211 
L 102.936584 -437.105357 
L 103.141172 -438.938503 
L 103.339254 -440.771649 
L 103.527927 -442.604795 
L 103.705266 -444.437941 
L 103.870361 -446.271087 
L 104.023302 -448.104233 
L 104.165121 -449.937379 
L 104.297687 -451.770525 
L 104.423555 -453.603671 
L 104.545804 -455.436817 
L 104.667839 -457.269963 
L 104.793196 -459.103109 
L 104.925346 -460.936255 
L 105.067511 -462.769401 
L 105.2225 -464.602547 
L 105.392578 -466.435693 
L 105.57936 -468.268839 
L 105.783752 -470.101985 
L 106.005919 -471.935131 
L 106.245298 -473.768276 
L 106.500638 -475.601422 
L 106.770074 -477.434568 
L 107.051222 -479.267714 
L 107.341294 -481.10086 
L 107.637215 -482.934006 
L 107.935757 -484.767152 
L 108.233659 -486.600298 
L 108.527743 -488.433444 
L 108.81502 -490.26659 
L 109.092772 -492.099736 
L 109.35862 -493.932882 
L 109.610578 -495.766028 
L 109.847073 -497.599174 
L 110.066958 -499.43232 
L 110.269506 -501.265466 
L 110.454382 -503.098612 
L 110.621618 -504.931758 
L 110.771559 -506.764904 
L 110.904823 -508.59805 
L 112.395177 -508.59805 
L 112.395177 -508.59805 
L 112.528441 -506.764904 
L 112.678382 -504.931758 
L 112.845618 -503.098612 
L 113.030494 -501.265466 
L 113.233042 -499.43232 
L 113.452927 -497.599174 
L 113.689422 -495.766028 
L 113.94138 -493.932882 
L 114.207228 -492.099736 
L 114.48498 -490.26659 
L 114.772257 -488.433444 
L 115.066341 -486.600298 
L 115.364243 -484.767152 
L 115.662785 -482.934006 
L 115.958706 -481.10086 
L 116.248778 -479.267714 
L 116.529926 -477.434568 
L 116.799362 -475.601422 
L 117.054702 -473.768276 
L 117.294081 -471.935131 
L 117.516248 -470.101985 
L 117.72064 -468.268839 
L 117.907422 -466.435693 
L 118.0775 -464.602547 
L 118.232489 -462.769401 
L 118.374654 -460.936255 
L 118.506804 -459.103109 
L 118.632161 -457.269963 
L 118.754196 -455.436817 
L 118.876445 -453.603671 
L 119.002313 -451.770525 
L 119.134879 -449.937379 
L 119.276698 -448.104233 
L 119.429639 -446.271087 
L 119.594734 -444.437941 
L 119.772073 -442.604795 
L 119.960746 -440.771649 
L 120.158828 -438.938503 
L 120.363416 -437.105357 
L 120.570725 -435.272211 
L 120.776222 -433.439066 
L 120.974806 -431.60592 
L 121.161024 -429.772774 
L 121.329308 -427.939628 
L 121.474217 -426.106482 
L 121.590693 -424.273336 
L 121.674281 -422.44019 
L 121.721347 -420.607044 
L 121.729235 -418.773898 
L 121.696398 -416.940752 
L 121.622467 -415.107606 
L 121.508265 -413.27446 
L 121.355769 -411.441314 
L 121.168017 -409.608168 
L 120.948968 -407.775022 
L 120.703322 -405.941876 
L 120.436311 -404.10873 
L 120.153473 -402.275584 
L 119.860414 -400.442438 
L 119.562586 -398.609292 
L 119.265069 -396.776146 
L 118.972389 -394.943 
L 118.688368 -393.109855 
L 118.416013 -391.276709 
L 118.157456 -389.443563 
L 117.913928 -387.610417 
L 117.685789 -385.777271 
L 117.472588 -383.944125 
L 117.273166 -382.110979 
L 117.085781 -380.277833 
L 116.908253 -378.444687 
L 116.738122 -376.611541 
L 116.572805 -374.778395 
L 116.409746 -372.945249 
L 116.246558 -371.112103 
L 116.081139 -369.278957 
L 115.911767 -367.445811 
L 115.737168 -365.612665 
L 115.556554 -363.779519 
L 115.369638 -361.946373 
L 115.176615 -360.113227 
L 114.978129 -358.280081 
L 114.775213 -356.446935 
L 114.569223 -354.61379 
L 114.361754 -352.780644 
L 114.154558 -350.947498 
L 113.949459 -349.114352 
L 113.748274 -347.281206 
L 113.552738 -345.44806 
L 113.364448 -343.614914 
L 113.184807 -341.781768 
L 113.014991 -339.948622 
L 112.855926 -338.115476 
L 112.70828 -336.28233 
L 112.572457 -334.449184 
L 112.448619 -332.616038 
L 112.336696 -330.782892 
L 112.236418 -328.949746 
L 112.147345 -327.1166 
z
" style="stroke: #1a1a1a; stroke-width: 1.5"/>
    </defs>
    <g clip-path="url(#p34a55e6bd1)">
     <use xlink:href="#mc1ac46b33b" x="0" y="576" style="fill: #ffffff; stroke: #1a1a1a; stroke-width: 1.5"/>
    </g>
   </g>
   <g id="PolyCollection_2">
    <defs>
     <path id="md58129f31a" d="M 207.966858 -207.291101 
L 207.613142 -207.291101 
L 207.573639 -210.595699 
L 207.527186 -213.900298 
L 207.47296 -217.204896 
L 207.410109 -220.509495 
L 207.337757 -223.814094 
L 207.255014 -227.118692 
L 207.160984 -230.423291 
L 207.054772 -233.72789 
L 206.935503 -237.032488 
L 206.802328 -240.337087 
L 206.654446 -243.641685 
L 206.491123 -246.946284 
L 206.311721 -250.250883 
L 206.115731 -253.555481 
L 205.902812 -256.86008 
L 205.67284 -260.164678 
L 205.425956 -263.469277 
L 205.162621 -266.773876 
L 204.883677 -270.078474 
L 204.590392 -273.383073 
L 204.284507 -276.687672 
L 203.968268 -279.99227 
L 203.644441 -283.296869 
L 203.316298 -286.601467 
L 202.987589 -289.906066 
L 202.662475 -293.210665 
L 202.345439 -296.515263 
L 202.04117 -299.819862 
L 201.754422 -303.12446 
L 201.489857 -306.429059 
L 201.251885 -309.733658 
L 201.044496 -313.038256 
L 200.871109 -316.342855 
L 200.734439 -319.647454 
L 200.636393 -322.952052 
L 200.577997 -326.256651 
L 200.559367 -329.561249 
L 200.579723 -332.865848 
L 200.63743 -336.170447 
L 200.730092 -339.475045 
L 200.854663 -342.779644 
L 201.007582 -346.084243 
L 201.184928 -349.388841 
L 201.382564 -352.69344 
L 201.596291 -355.998038 
L 201.821978 -359.302637 
L 202.05568 -362.607236 
L 202.293729 -365.911834 
L 202.532803 -369.216433 
L 202.769972 -372.521031 
L 203.002718 -375.82563 
L 203.228939 -379.130229 
L 203.446935 -382.434827 
L 203.655384 -385.739426 
L 203.853311 -389.044025 
L 204.040051 -392.348623 
L 204.215213 -395.653222 
L 204.378647 -398.95782 
L 204.530409 -402.262419 
L 204.67074 -405.567018 
L 204.800034 -408.871616 
L 204.918827 -412.176215 
L 205.027772 -415.480813 
L 205.127633 -418.785412 
L 205.219264 -422.090011 
L 205.303601 -425.394609 
L 205.381645 -428.699208 
L 205.454447 -432.003807 
L 205.52309 -435.308405 
L 205.58867 -438.613004 
L 205.652273 -441.917602 
L 205.714947 -445.222201 
L 205.777682 -448.5268 
L 205.841376 -451.831398 
L 205.906813 -455.135997 
L 205.97464 -458.440595 
L 206.04534 -461.745194 
L 206.119223 -465.049793 
L 206.196412 -468.354391 
L 206.27684 -471.65899 
L 206.360259 -474.963589 
L 206.446246 -478.268187 
L 206.534228 -481.572786 
L 206.623509 -484.877384 
L 206.713297 -488.181983 
L 206.802742 -491.486582 
L 206.890972 -494.79118 
L 206.977127 -498.095779 
L 207.060396 -501.400377 
L 207.140042 -504.704976 
L 207.21543 -508.009575 
L 207.286041 -511.314173 
L 207.351487 -514.618772 
L 207.41151 -517.923371 
L 207.465987 -521.227969 
L 207.514915 -524.532568 
L 207.558404 -527.837166 
L 207.596659 -531.141765 
L 207.629966 -534.446364 
L 207.950034 -534.446364 
L 207.950034 -534.446364 
L 207.983341 -531.141765 
L 208.021596 -527.837166 
L 208.065085 -524.532568 
L 208.114013 -521.227969 
L 208.16849 -517.923371 
L 208.228513 -514.618772 
L 208.293959 -511.314173 
L 208.36457 -508.009575 
L 208.439958 -504.704976 
L 208.519604 -501.400377 
L 208.602873 -498.095779 
L 208.689028 -494.79118 
L 208.777258 -491.486582 
L 208.866703 -488.181983 
L 208.956491 -484.877384 
L 209.045772 -481.572786 
L 209.133754 -478.268187 
L 209.219741 -474.963589 
L 209.30316 -471.65899 
L 209.383588 -468.354391 
L 209.460777 -465.049793 
L 209.53466 -461.745194 
L 209.60536 -458.440595 
L 209.673187 -455.135997 
L 209.738624 -451.831398 
L 209.802318 -448.5268 
L 209.865053 -445.222201 
L 209.927727 -441.917602 
L 209.99133 -438.613004 
L 210.05691 -435.308405 
L 210.125553 -432.003807 
L 210.198355 -428.699208 
L 210.276399 -425.394609 
L 210.360736 -422.090011 
L 210.452367 -418.785412 
L 210.552228 -415.480813 
L 210.661173 -412.176215 
L 210.779966 -408.871616 
L 210.90926 -405.567018 
L 211.049591 -402.262419 
L 211.201353 -398.95782 
L 211.364787 -395.653222 
L 211.539949 -392.348623 
L 211.726689 -389.044025 
L 211.924616 -385.739426 
L 212.133065 -382.434827 
L 212.351061 -379.130229 
L 212.577282 -375.82563 
L 212.810028 -372.521031 
L 213.047197 -369.216433 
L 213.286271 -365.911834 
L 213.52432 -362.607236 
L 213.758022 -359.302637 
L 213.983709 -355.998038 
L 214.197436 -352.69344 
L 214.395072 -349.388841 
L 214.572418 -346.084243 
L 214.725337 -342.779644 
L 214.849908 -339.475045 
L 214.94257 -336.170447 
L 215.000277 -332.865848 
L 215.020633 -329.561249 
L 215.002003 -326.256651 
L 214.943607 -322.952052 
L 214.845561 -319.647454 
L 214.708891 -316.342855 
L 214.535504 -313.038256 
L 214.328115 -309.733658 
L 214.090143 -306.429059 
L 213.825578 -303.12446 
L 213.53883 -299.819862 
L 213.234561 -296.515263 
L 212.917525 -293.210665 
L 212.592411 -289.906066 
L 212.263702 -286.601467 
L 211.935559 -283.296869 
L 211.611732 -279.99227 
L 211.295493 -276.687672 
L 210.989608 -273.383073 
L 210.696323 -270.078474 
L 210.417379 -266.773876 
L 210.154044 -263.469277 
L 209.90716 -260.164678 
L 209.677188 -256.86008 
L 209.464269 -253.555481 
L 209.268279 -250.250883 
L 209.088877 -246.946284 
L 208.925554 -243.641685 
L 208.777672 -240.337087 
L 208.644497 -237.032488 
L 208.525228 -233.72789 
L 208.419016 -230.423291 
L 208.324986 -227.118692 
L 208.242243 -223.814094 
L 208.169891 -220.509495 
L 208.10704 -217.204896 
L 208.052814 -213.900298 
L 208.006361 -210.595699 
L 207.966858 -207.291101 
z
" style="stroke: #1a1a1a; stroke-width: 1.5"/>
    </defs>
    <g clip-path="url(#p34a55e6bd1)">
     <use xlink:href="#md58129f31a" x="0" y="576" style="fill: #ffffff; stroke: #1a1a1a; stroke-width: 1.5"/>
    </g>
   </g>
   <g id="PolyCollection_3">
    <defs>
     <path id="m79a31bba4b" d="M 304.134588 -173.650213 
L 303.725412 -173.650213 
L 303.683253 -176.210529 
L 303.634436 -178.770844 
L 303.578305 -181.33116 
L 303.514194 -183.891476 
L 303.441425 -186.451792 
L 303.359303 -189.012107 
L 303.267118 -191.572423 
L 303.164127 -194.132739 
L 303.049546 -196.693055 
L 302.922533 -199.25337 
L 302.782175 -201.813686 
L 302.627475 -204.374002 
L 302.457339 -206.934318 
L 302.270578 -209.494633 
L 302.065915 -212.054949 
L 301.842009 -214.615265 
L 301.597492 -217.175581 
L 301.33103 -219.735896 
L 301.041399 -222.296212 
L 300.727585 -224.856528 
L 300.388895 -227.416844 
L 300.025088 -229.97716 
L 299.636509 -232.537475 
L 299.22422 -235.097791 
L 298.790125 -237.658107 
L 298.337072 -240.218423 
L 297.868928 -242.778738 
L 297.390608 -245.339054 
L 296.908062 -247.89937 
L 296.428199 -250.459686 
L 295.958766 -253.020001 
L 295.508156 -255.580317 
L 295.085175 -258.140633 
L 294.698758 -260.700949 
L 294.357657 -263.261264 
L 294.070106 -265.82158 
L 293.843492 -268.381896 
L 293.684037 -270.942212 
L 293.596522 -273.502527 
L 293.584051 -276.062843 
L 293.647894 -278.623159 
L 293.787391 -281.183475 
L 293.999943 -283.743791 
L 294.281083 -286.304106 
L 294.624623 -288.864422 
L 295.02287 -291.424738 
L 295.466896 -293.985054 
L 295.946855 -296.545369 
L 296.452324 -299.105685 
L 296.972648 -301.666001 
L 297.497279 -304.226317 
L 298.016103 -306.786632 
L 298.519712 -309.346948 
L 298.999649 -311.907264 
L 299.448599 -314.46758 
L 299.860517 -317.027895 
L 300.230718 -319.588211 
L 300.555908 -322.148527 
L 300.834169 -324.708843 
L 301.06491 -327.269158 
L 301.248781 -329.829474 
L 301.387561 -332.38979 
L 301.48403 -334.950106 
L 301.541828 -337.510422 
L 301.565294 -340.070737 
L 301.559319 -342.631053 
L 301.52918 -345.191369 
L 301.48039 -347.751685 
L 301.418538 -350.312 
L 301.349149 -352.872316 
L 301.277537 -355.432632 
L 301.208685 -357.992948 
L 301.147123 -360.553263 
L 301.096832 -363.113579 
L 301.061157 -365.673895 
L 301.042751 -368.234211 
L 301.043532 -370.794526 
L 301.064671 -373.354842 
L 301.106597 -375.915158 
L 301.169032 -378.475474 
L 301.251047 -381.035789 
L 301.351137 -383.596105 
L 301.467311 -386.156421 
L 301.597193 -388.716737 
L 301.738139 -391.277053 
L 301.887342 -393.837368 
L 302.041945 -396.397684 
L 302.199146 -398.958 
L 302.356284 -401.518316 
L 302.510917 -404.078631 
L 302.660885 -406.638947 
L 302.804352 -409.199263 
L 302.939826 -411.759579 
L 303.066175 -414.319894 
L 303.182615 -416.88021 
L 303.288692 -419.440526 
L 303.384252 -422.000842 
L 303.469404 -424.561157 
L 303.544477 -427.121473 
L 304.315523 -427.121473 
L 304.315523 -427.121473 
L 304.390596 -424.561157 
L 304.475748 -422.000842 
L 304.571308 -419.440526 
L 304.677385 -416.88021 
L 304.793825 -414.319894 
L 304.920174 -411.759579 
L 305.055648 -409.199263 
L 305.199115 -406.638947 
L 305.349083 -404.078631 
L 305.503716 -401.518316 
L 305.660854 -398.958 
L 305.818055 -396.397684 
L 305.972658 -393.837368 
L 306.121861 -391.277053 
L 306.262807 -388.716737 
L 306.392689 -386.156421 
L 306.508863 -383.596105 
L 306.608953 -381.035789 
L 306.690968 -378.475474 
L 306.753403 -375.915158 
L 306.795329 -373.354842 
L 306.816468 -370.794526 
L 306.817249 -368.234211 
L 306.798843 -365.673895 
L 306.763168 -363.113579 
L 306.712877 -360.553263 
L 306.651315 -357.992948 
L 306.582463 -355.432632 
L 306.510851 -352.872316 
L 306.441462 -350.312 
L 306.37961 -347.751685 
L 306.33082 -345.191369 
L 306.300681 -342.631053 
L 306.294706 -340.070737 
L 306.318172 -337.510422 
L 306.37597 -334.950106 
L 306.472439 -332.38979 
L 306.611219 -329.829474 
L 306.79509 -327.269158 
L 307.025831 -324.708843 
L 307.304092 -322.148527 
L 307.629282 -319.588211 
L 307.999483 -317.027895 
L 308.411401 -314.46758 
L 308.860351 -311.907264 
L 309.340288 -309.346948 
L 309.843897 -306.786632 
L 310.362721 -304.226317 
L 310.887352 -301.666001 
L 311.407676 -299.105685 
L 311.913145 -296.545369 
L 312.393104 -293.985054 
L 312.83713 -291.424738 
L 313.235377 -288.864422 
L 313.578917 -286.304106 
L 313.860057 -283.743791 
L 314.072609 -281.183475 
L 314.212106 -278.623159 
L 314.275949 -276.062843 
L 314.263478 -273.502527 
L 314.175963 -270.942212 
L 314.016508 -268.381896 
L 313.789894 -265.82158 
L 313.502343 -263.261264 
L 313.161242 -260.700949 
L 312.774825 -258.140633 
L 312.351844 -255.580317 
L 311.901234 -253.020001 
L 311.431801 -250.459686 
L 310.951938 -247.89937 
L 310.469392 -245.339054 
L 309.991072 -242.778738 
L 309.522928 -240.218423 
L 309.069875 -237.658107 
L 308.63578 -235.097791 
L 308.223491 -232.537475 
L 307.834912 -229.97716 
L 307.471105 -227.416844 
L 307.132415 -224.856528 
L 306.818601 -222.296212 
L 306.52897 -219.735896 
L 306.262508 -217.175581 
L 306.017991 -214.615265 
L 305.794085 -212.054949 
L 305.589422 -209.494633 
L 305.402661 -206.934318 
L 305.232525 -204.374002 
L 305.077825 -201.813686 
L 304.937467 -199.25337 
L 304.810454 -196.693055 
L 304.695873 -194.132739 
L 304.592882 -191.572423 
L 304.500697 -189.012107 
L 304.418575 -186.451792 
L 304.345806 -183.891476 
L 304.281695 -181.33116 
L 304.225564 -178.770844 
L 304.176747 -176.210529 
L 304.134588 -173.650213 
z
" style="stroke: #1a1a1a; stroke-width: 1.5"/>
    </defs>
    <g clip-path="url(#p34a55e6bd1)">
     <use xlink:href="#m79a31bba4b" x="0" y="576" style="fill: #ffffff; stroke: #1a1a1a; stroke-width: 1.5"/>
    </g>
   </g>
   <g id="PolyCollection_4">
    <defs>
     <path id="m782c48b192" d="M 400.7447 -134.49971 
L 399.3953 -134.49971 
L 399.280792 -136.427048 
L 399.152578 -138.354387 
L 399.010131 -140.281725 
L 398.853112 -142.209063 
L 398.681406 -144.136401 
L 398.49515 -146.06374 
L 398.294757 -147.991078 
L 398.080939 -149.918416 
L 397.854708 -151.845754 
L 397.617384 -153.773093 
L 397.370576 -155.700431 
L 397.11616 -157.627769 
L 396.856242 -159.555107 
L 396.593108 -161.482446 
L 396.329167 -163.409784 
L 396.066877 -165.337122 
L 395.808675 -167.26446 
L 395.556897 -169.191799 
L 395.313694 -171.119137 
L 395.080966 -173.046475 
L 394.860283 -174.973814 
L 394.652839 -176.901152 
L 394.459404 -178.82849 
L 394.280301 -180.755828 
L 394.115404 -182.683167 
L 393.96415 -184.610505 
L 393.825582 -186.537843 
L 393.698401 -188.465181 
L 393.581041 -190.39252 
L 393.471761 -192.319858 
L 393.368739 -194.247196 
L 393.270176 -196.174534 
L 393.174401 -198.101873 
L 393.079963 -200.029211 
L 392.98572 -201.956549 
L 392.890903 -203.883887 
L 392.795167 -205.811226 
L 392.698612 -207.738564 
L 392.601784 -209.665902 
L 392.505648 -211.59324 
L 392.411534 -213.520579 
L 392.321069 -215.447917 
L 392.236085 -217.375255 
L 392.158515 -219.302593 
L 392.090286 -221.229932 
L 392.03321 -223.15727 
L 391.988877 -225.084608 
L 391.95857 -227.011946 
L 391.943185 -228.939285 
L 391.943185 -230.866623 
L 391.95857 -232.793961 
L 391.988877 -234.721299 
L 392.03321 -236.648638 
L 392.090286 -238.575976 
L 392.158515 -240.503314 
L 392.236085 -242.430652 
L 392.321069 -244.357991 
L 392.411534 -246.285329 
L 392.505648 -248.212667 
L 392.601784 -250.140006 
L 392.698612 -252.067344 
L 392.795167 -253.994682 
L 392.890903 -255.92202 
L 392.98572 -257.849359 
L 393.079963 -259.776697 
L 393.174401 -261.704035 
L 393.270176 -263.631373 
L 393.368739 -265.558712 
L 393.471761 -267.48605 
L 393.581041 -269.413388 
L 393.698401 -271.340726 
L 393.825582 -273.268065 
L 393.96415 -275.195403 
L 394.115404 -277.122741 
L 394.280301 -279.050079 
L 394.459404 -280.977418 
L 394.652839 -282.904756 
L 394.860283 -284.832094 
L 395.080966 -286.759432 
L 395.313694 -288.686771 
L 395.556897 -290.614109 
L 395.808675 -292.541447 
L 396.066877 -294.468785 
L 396.329167 -296.396124 
L 396.593108 -298.323462 
L 396.856242 -300.2508 
L 397.11616 -302.178138 
L 397.370576 -304.105477 
L 397.617384 -306.032815 
L 397.854708 -307.960153 
L 398.080939 -309.887491 
L 398.294757 -311.81483 
L 398.49515 -313.742168 
L 398.681406 -315.669506 
L 398.853112 -317.596844 
L 399.010131 -319.524183 
L 399.152578 -321.451521 
L 399.280792 -323.378859 
L 399.3953 -325.306198 
L 400.7447 -325.306198 
L 400.7447 -325.306198 
L 400.859208 -323.378859 
L 400.987422 -321.451521 
L 401.129869 -319.524183 
L 401.286888 -317.596844 
L 401.458594 -315.669506 
L 401.64485 -313.742168 
L 401.845243 -311.81483 
L 402.059061 -309.887491 
L 402.285292 -307.960153 
L 402.522616 -306.032815 
L 402.769424 -304.105477 
L 403.02384 -302.178138 
L 403.283758 -300.2508 
L 403.546892 -298.323462 
L 403.810833 -296.396124 
L 404.073123 -294.468785 
L 404.331325 -292.541447 
L 404.583103 -290.614109 
L 404.826306 -288.686771 
L 405.059034 -286.759432 
L 405.279717 -284.832094 
L 405.487161 -282.904756 
L 405.680596 -280.977418 
L 405.859699 -279.050079 
L 406.024596 -277.122741 
L 406.17585 -275.195403 
L 406.314418 -273.268065 
L 406.441599 -271.340726 
L 406.558959 -269.413388 
L 406.668239 -267.48605 
L 406.771261 -265.558712 
L 406.869824 -263.631373 
L 406.965599 -261.704035 
L 407.060037 -259.776697 
L 407.15428 -257.849359 
L 407.249097 -255.92202 
L 407.344833 -253.994682 
L 407.441388 -252.067344 
L 407.538216 -250.140006 
L 407.634352 -248.212667 
L 407.728466 -246.285329 
L 407.818931 -244.357991 
L 407.903915 -242.430652 
L 407.981485 -240.503314 
L 408.049714 -238.575976 
L 408.10679 -236.648638 
L 408.151123 -234.721299 
L 408.18143 -232.793961 
L 408.196815 -230.866623 
L 408.196815 -228.939285 
L 408.18143 -227.011946 
L 408.151123 -225.084608 
L 408.10679 -223.15727 
L 408.049714 -221.229932 
L 407.981485 -219.302593 
L 407.903915 -217.375255 
L 407.818931 -215.447917 
L 407.728466 -213.520579 
L 407.634352 -211.59324 
L 407.538216 -209.665902 
L 407.441388 -207.738564 
L 407.344833 -205.811226 
L 407.249097 -203.883887 
L 407.15428 -201.956549 
L 407.060037 -200.029211 
L 406.965599 -198.101873 
L 406.869824 -196.174534 
L 406.771261 -194.247196 
L 406.668239 -192.319858 
L 406.558959 -190.39252 
L 406.441599 -188.465181 
L 406.314418 -186.537843 
L 406.17585 -184.610505 
L 406.024596 -182.683167 
L 405.859699 -180.755828 
L 405.680596 -178.82849 
L 405.487161 -176.901152 
L 405.279717 -174.973814 
L 405.059034 -173.046475 
L 404.826306 -171.119137 
L 404.583103 -169.191799 
L 404.331325 -167.26446 
L 404.073123 -165.337122 
L 403.810833 -163.409784 
L 403.546892 -161.482446 
L 403.283758 -159.555107 
L 403.02384 -157.627769 
L 402.769424 -155.700431 
L 402.522616 -153.773093 
L 402.285292 -151.845754 
L 402.059061 -149.918416 
L 401.845243 -147.991078 
L 401.64485 -146.06374 
L 401.458594 -144.136401 
L 401.286888 -142.209063 
L 401.129869 -140.281725 
L 400.987422 -138.354387 
L 400.859208 -136.427048 
L 400.7447 -134.49971 
z
" style="stroke: #1a1a1a; stroke-width: 1.5"/>
    </defs>
    <g clip-path="url(#p34a55e6bd1)">
     <use xlink:href="#m782c48b192" x="0" y="576" style="fill: #ffffff; stroke: #1a1a1a; stroke-width: 1.5"/>
    </g>
   </g>
   <g id="PolyCollection_5">
    <defs>
     <path id="m993be98df7" d="M 496.707345 -92.173636 
L 495.712655 -92.173636 
L 495.623582 -94.006782 
L 495.523304 -95.839928 
L 495.411381 -97.673074 
L 495.287543 -99.50622 
L 495.15172 -101.339366 
L 495.004074 -103.172512 
L 494.845009 -105.005658 
L 494.675193 -106.838804 
L 494.495552 -108.67195 
L 494.307262 -110.505096 
L 494.111726 -112.338242 
L 493.910541 -114.171388 
L 493.705442 -116.004534 
L 493.498246 -117.83768 
L 493.290777 -119.670826 
L 493.084787 -121.503972 
L 492.881871 -123.337118 
L 492.683385 -125.170264 
L 492.490362 -127.003409 
L 492.303446 -128.836555 
L 492.122832 -130.669701 
L 491.948233 -132.502847 
L 491.778861 -134.335993 
L 491.613442 -136.169139 
L 491.450254 -138.002285 
L 491.287195 -139.835431 
L 491.121878 -141.668577 
L 490.951747 -143.501723 
L 490.774219 -145.334869 
L 490.586834 -147.168015 
L 490.387412 -149.001161 
L 490.174211 -150.834307 
L 489.946072 -152.667453 
L 489.702544 -154.500599 
L 489.443987 -156.333745 
L 489.171632 -158.166891 
L 488.887611 -160.000037 
L 488.594931 -161.833183 
L 488.297414 -163.666329 
L 487.999586 -165.499474 
L 487.706527 -167.33262 
L 487.423689 -169.165766 
L 487.156678 -170.998912 
L 486.911032 -172.832058 
L 486.691983 -174.665204 
L 486.504231 -176.49835 
L 486.351735 -178.331496 
L 486.237533 -180.164642 
L 486.163602 -181.997788 
L 486.130765 -183.830934 
L 486.138653 -185.66408 
L 486.185719 -187.497226 
L 486.269307 -189.330372 
L 486.385783 -191.163518 
L 486.530692 -192.996664 
L 486.698976 -194.82981 
L 486.885194 -196.662956 
L 487.083778 -198.496102 
L 487.289275 -200.329248 
L 487.496584 -202.162394 
L 487.701172 -203.99554 
L 487.899254 -205.828685 
L 488.087927 -207.661831 
L 488.265266 -209.494977 
L 488.430361 -211.328123 
L 488.583302 -213.161269 
L 488.725121 -214.994415 
L 488.857687 -216.827561 
L 488.983555 -218.660707 
L 489.105804 -220.493853 
L 489.227839 -222.326999 
L 489.353196 -224.160145 
L 489.485346 -225.993291 
L 489.627511 -227.826437 
L 489.7825 -229.659583 
L 489.952578 -231.492729 
L 490.13936 -233.325875 
L 490.343752 -235.159021 
L 490.565919 -236.992167 
L 490.805298 -238.825313 
L 491.060638 -240.658459 
L 491.330074 -242.491605 
L 491.611222 -244.32475 
L 491.901294 -246.157896 
L 492.197215 -247.991042 
L 492.495757 -249.824188 
L 492.793659 -251.657334 
L 493.087743 -253.49048 
L 493.37502 -255.323626 
L 493.652772 -257.156772 
L 493.91862 -258.989918 
L 494.170578 -260.823064 
L 494.407073 -262.65621 
L 494.626958 -264.489356 
L 494.829506 -266.322502 
L 495.014382 -268.155648 
L 495.181618 -269.988794 
L 495.331559 -271.82194 
L 495.464823 -273.655086 
L 496.955177 -273.655086 
L 496.955177 -273.655086 
L 497.088441 -271.82194 
L 497.238382 -269.988794 
L 497.405618 -268.155648 
L 497.590494 -266.322502 
L 497.793042 -264.489356 
L 498.012927 -262.65621 
L 498.249422 -260.823064 
L 498.50138 -258.989918 
L 498.767228 -257.156772 
L 499.04498 -255.323626 
L 499.332257 -253.49048 
L 499.626341 -251.657334 
L 499.924243 -249.824188 
L 500.222785 -247.991042 
L 500.518706 -246.157896 
L 500.808778 -244.32475 
L 501.089926 -242.491605 
L 501.359362 -240.658459 
L 501.614702 -238.825313 
L 501.854081 -236.992167 
L 502.076248 -235.159021 
L 502.28064 -233.325875 
L 502.467422 -231.492729 
L 502.6375 -229.659583 
L 502.792489 -227.826437 
L 502.934654 -225.993291 
L 503.066804 -224.160145 
L 503.192161 -222.326999 
L 503.314196 -220.493853 
L 503.436445 -218.660707 
L 503.562313 -216.827561 
L 503.694879 -214.994415 
L 503.836698 -213.161269 
L 503.989639 -211.328123 
L 504.154734 -209.494977 
L 504.332073 -207.661831 
L 504.520746 -205.828685 
L 504.718828 -203.99554 
L 504.923416 -202.162394 
L 505.130725 -200.329248 
L 505.336222 -198.496102 
L 505.534806 -196.662956 
L 505.721024 -194.82981 
L 505.889308 -192.996664 
L 506.034217 -191.163518 
L 506.150693 -189.330372 
L 506.234281 -187.497226 
L 506.281347 -185.66408 
L 506.289235 -183.830934 
L 506.256398 -181.997788 
L 506.182467 -180.164642 
L 506.068265 -178.331496 
L 505.915769 -176.49835 
L 505.728017 -174.665204 
L 505.508968 -172.832058 
L 505.263322 -170.998912 
L 504.996311 -169.165766 
L 504.713473 -167.33262 
L 504.420414 -165.499474 
L 504.122586 -163.666329 
L 503.825069 -161.833183 
L 503.532389 -160.000037 
L 503.248368 -158.166891 
L 502.976013 -156.333745 
L 502.717456 -154.500599 
L 502.473928 -152.667453 
L 502.245789 -150.834307 
L 502.032588 -149.001161 
L 501.833166 -147.168015 
L 501.645781 -145.334869 
L 501.468253 -143.501723 
L 501.298122 -141.668577 
L 501.132805 -139.835431 
L 500.969746 -138.002285 
L 500.806558 -136.169139 
L 500.641139 -134.335993 
L 500.471767 -132.502847 
L 500.297168 -130.669701 
L 500.116554 -128.836555 
L 499.929638 -127.003409 
L 499.736615 -125.170264 
L 499.538129 -123.337118 
L 499.335213 -121.503972 
L 499.129223 -119.670826 
L 498.921754 -117.83768 
L 498.714558 -116.004534 
L 498.509459 -114.171388 
L 498.308274 -112.338242 
L 498.112738 -110.505096 
L 497.924448 -108.67195 
L 497.744807 -106.838804 
L 497.574991 -105.005658 
L 497.415926 -103.172512 
L 497.26828 -101.339366 
L 497.132457 -99.50622 
L 497.008619 -97.673074 
L 496.896696 -95.839928 
L 496.796418 -94.006782 
L 496.707345 -92.173636 
z
" style="stroke: #1a1a1a; stroke-width: 1.5"/>
    </defs>
    <g clip-path="url(#p34a55e6bd1)">
     <use xlink:href="#m993be98df7" x="0" y="576" style="fill: #ffffff; stroke: #1a1a1a; stroke-width: 1.5"/>
    </g>
   </g>
   <g id="PolyCollection_6">
    <defs>
     <path id="m974f9b6edd" d="M 592.994469 -102.266848 
L 591.705531 -102.266848 
L 591.571444 -103.896091 
L 591.418208 -105.525334 
L 591.245177 -107.154576 
L 591.052179 -108.783819 
L 590.839599 -110.413062 
L 590.608466 -112.042304 
L 590.360497 -113.671547 
L 590.09813 -115.30079 
L 589.82451 -116.930032 
L 589.543442 -118.559275 
L 589.25929 -120.188518 
L 588.976838 -121.81776 
L 588.701107 -123.447003 
L 588.437128 -125.076246 
L 588.189689 -126.705488 
L 587.963059 -128.334731 
L 587.760711 -129.963974 
L 587.585051 -131.593216 
L 587.437171 -133.222459 
L 587.316645 -134.851702 
L 587.221387 -136.480945 
L 587.147571 -138.110187 
L 587.089638 -139.73943 
L 587.040388 -141.368673 
L 586.991168 -142.997915 
L 586.932145 -144.627158 
L 586.852662 -146.256401 
L 586.741677 -147.885643 
L 586.588252 -149.514886 
L 586.382088 -151.144129 
L 586.114074 -152.773371 
L 585.77684 -154.402614 
L 585.365263 -156.031857 
L 584.876926 -157.661099 
L 584.312482 -159.290342 
L 583.675903 -160.919585 
L 582.974607 -162.548827 
L 582.219416 -164.17807 
L 581.424365 -165.807313 
L 580.606342 -167.436556 
L 579.784572 -169.065798 
L 578.979953 -170.695041 
L 578.214289 -172.324284 
L 577.509427 -173.953526 
L 576.886365 -175.582769 
L 576.364362 -177.212012 
L 575.960096 -178.841254 
L 575.686931 -180.470497 
L 575.554323 -182.09974 
L 575.567401 -183.728982 
L 575.72675 -185.358225 
L 576.028412 -186.987468 
L 576.464093 -188.61671 
L 577.021571 -190.245953 
L 577.685278 -191.875196 
L 578.437018 -193.504439 
L 579.256778 -195.133681 
L 580.123588 -196.762924 
L 581.01638 -198.392167 
L 581.914799 -200.021409 
L 582.799939 -201.650652 
L 583.654949 -203.279895 
L 584.465515 -204.909137 
L 585.220179 -206.53838 
L 585.910514 -208.167623 
L 586.531141 -209.796865 
L 587.079621 -211.426108 
L 587.556222 -213.055351 
L 587.963597 -214.684593 
L 588.306399 -216.313836 
L 588.590846 -217.943079 
L 588.824274 -219.572321 
L 589.014694 -221.201564 
L 589.170377 -222.830807 
L 589.299469 -224.46005 
L 589.409671 -226.089292 
L 589.507977 -227.718535 
L 589.600466 -229.347778 
L 589.692176 -230.97702 
L 589.787033 -232.606263 
L 589.887839 -234.235506 
L 589.996316 -235.864748 
L 590.113196 -237.493991 
L 590.238335 -239.123234 
L 590.370867 -240.752476 
L 590.509356 -242.381719 
L 590.651968 -244.010962 
L 590.796625 -245.640204 
L 590.941156 -247.269447 
L 591.08343 -248.89869 
L 591.22146 -250.527932 
L 591.353491 -252.157175 
L 591.478059 -253.786418 
L 591.594022 -255.415661 
L 591.700579 -257.044903 
L 591.797257 -258.674146 
L 591.883891 -260.303389 
L 591.960586 -261.932631 
L 592.02768 -263.561874 
L 592.67232 -263.561874 
L 592.67232 -263.561874 
L 592.739414 -261.932631 
L 592.816109 -260.303389 
L 592.902743 -258.674146 
L 592.999421 -257.044903 
L 593.105978 -255.415661 
L 593.221941 -253.786418 
L 593.346509 -252.157175 
L 593.47854 -250.527932 
L 593.61657 -248.89869 
L 593.758844 -247.269447 
L 593.903375 -245.640204 
L 594.048032 -244.010962 
L 594.190644 -242.381719 
L 594.329133 -240.752476 
L 594.461665 -239.123234 
L 594.586804 -237.493991 
L 594.703684 -235.864748 
L 594.812161 -234.235506 
L 594.912967 -232.606263 
L 595.007824 -230.97702 
L 595.099534 -229.347778 
L 595.192023 -227.718535 
L 595.290329 -226.089292 
L 595.400531 -224.46005 
L 595.529623 -222.830807 
L 595.685306 -221.201564 
L 595.875726 -219.572321 
L 596.109154 -217.943079 
L 596.393601 -216.313836 
L 596.736403 -214.684593 
L 597.143778 -213.055351 
L 597.620379 -211.426108 
L 598.168859 -209.796865 
L 598.789486 -208.167623 
L 599.479821 -206.53838 
L 600.234485 -204.909137 
L 601.045051 -203.279895 
L 601.900061 -201.650652 
L 602.785201 -200.021409 
L 603.68362 -198.392167 
L 604.576412 -196.762924 
L 605.443222 -195.133681 
L 606.262982 -193.504439 
L 607.014722 -191.875196 
L 607.678429 -190.245953 
L 608.235907 -188.61671 
L 608.671588 -186.987468 
L 608.97325 -185.358225 
L 609.132599 -183.728982 
L 609.145677 -182.09974 
L 609.013069 -180.470497 
L 608.739904 -178.841254 
L 608.335638 -177.212012 
L 607.813635 -175.582769 
L 607.190573 -173.953526 
L 606.485711 -172.324284 
L 605.720047 -170.695041 
L 604.915428 -169.065798 
L 604.093658 -167.436556 
L 603.275635 -165.807313 
L 602.480584 -164.17807 
L 601.725393 -162.548827 
L 601.024097 -160.919585 
L 600.387518 -159.290342 
L 599.823074 -157.661099 
L 599.334737 -156.031857 
L 598.92316 -154.402614 
L 598.585926 -152.773371 
L 598.317912 -151.144129 
L 598.111748 -149.514886 
L 597.958323 -147.885643 
L 597.847338 -146.256401 
L 597.767855 -144.627158 
L 597.708832 -142.997915 
L 597.659612 -141.368673 
L 597.610362 -139.73943 
L 597.552429 -138.110187 
L 597.478613 -136.480945 
L 597.383355 -134.851702 
L 597.262829 -133.222459 
L 597.114949 -131.593216 
L 596.939289 -129.963974 
L 596.736941 -128.334731 
L 596.510311 -126.705488 
L 596.262872 -125.076246 
L 595.998893 -123.447003 
L 595.723162 -121.81776 
L 595.44071 -120.188518 
L 595.156558 -118.559275 
L 594.87549 -116.930032 
L 594.60187 -115.30079 
L 594.339503 -113.671547 
L 594.091534 -112.042304 
L 593.860401 -110.413062 
L 593.647821 -108.783819 
L 593.454823 -107.154576 
L 593.281792 -105.525334 
L 593.128556 -103.896091 
L 592.994469 -102.266848 
z
" style="stroke: #1a1a1a; stroke-width: 1.5"/>
    </defs>
    <g clip-path="url(#p34a55e6bd1)">
     <use xlink:href="#m974f9b6edd" x="0" y="576" style="fill: #ffffff; stroke: #1a1a1a; stroke-width: 1.5"/>
    </g>
   </g>
   <g id="PolyCollection_7">
    <defs>
     <path id="m36e98f3d4e" d="M 693.69447 -117.174855 
L 683.28553 -117.174855 
L 682.272097 -118.028293 
L 681.122626 -118.881732 
L 679.832694 -119.73517 
L 678.400859 -120.588609 
L 676.829239 -121.442048 
L 675.124017 -122.295486 
L 673.295856 -123.148925 
L 671.360176 -124.002363 
L 669.337262 -124.855802 
L 667.25217 -125.70924 
L 665.134416 -126.562679 
L 663.017438 -127.416118 
L 660.937827 -128.269556 
L 658.934359 -129.122995 
L 657.046836 -129.976433 
L 655.314811 -130.829872 
L 653.776222 -131.683311 
L 652.466021 -132.536749 
L 651.41486 -133.390188 
L 650.647899 -134.243626 
L 650.183806 -135.097065 
L 650.034 -135.950504 
L 650.202187 -136.803942 
L 650.684204 -137.657381 
L 651.468192 -138.510819 
L 652.535081 -139.364258 
L 653.859359 -140.217696 
L 655.410081 -141.071135 
L 657.152077 -141.924574 
L 659.047263 -142.778012 
L 661.056017 -143.631451 
L 663.138535 -144.484889 
L 665.256103 -145.338328 
L 667.372238 -146.191767 
L 669.45365 -147.045205 
L 671.470982 -147.898644 
L 673.399341 -148.752082 
L 675.218583 -149.605521 
L 676.913389 -150.458959 
L 678.473139 -151.312398 
L 679.891617 -152.165837 
L 681.166584 -153.019275 
L 682.299252 -153.872714 
L 683.2937 -154.726152 
L 684.156267 -155.579591 
L 684.894953 -156.43303 
L 685.518857 -157.286468 
L 686.037667 -158.139907 
L 686.461222 -158.993345 
L 686.799156 -159.846784 
L 687.060616 -160.700223 
L 687.254076 -161.553661 
L 687.387208 -162.4071 
L 687.466843 -163.260538 
L 687.498975 -164.113977 
L 687.488824 -164.967415 
L 687.440932 -165.820854 
L 687.35929 -166.674293 
L 687.247474 -167.527731 
L 687.108791 -168.38117 
L 686.946422 -169.234608 
L 686.76355 -170.088047 
L 686.563468 -170.941486 
L 686.349665 -171.794924 
L 686.125877 -172.648363 
L 685.896112 -173.501801 
L 685.664635 -174.35524 
L 685.435927 -175.208679 
L 685.214604 -176.062117 
L 685.005324 -176.915556 
L 684.812658 -177.768994 
L 684.64096 -178.622433 
L 684.494225 -179.475871 
L 684.375954 -180.32931 
L 684.289025 -181.182749 
L 684.235586 -182.036187 
L 684.216976 -182.889626 
L 684.233671 -183.743064 
L 684.285269 -184.596503 
L 684.370507 -185.449942 
L 684.487315 -186.30338 
L 684.632901 -187.156819 
L 684.80386 -188.010257 
L 684.996311 -188.863696 
L 685.206037 -189.717135 
L 685.428646 -190.570573 
L 685.659714 -191.424012 
L 685.894935 -192.27745 
L 686.130241 -193.130889 
L 686.361918 -193.984327 
L 686.586686 -194.837766 
L 686.801762 -195.691205 
L 687.004891 -196.544643 
L 687.19436 -197.398082 
L 687.368984 -198.25152 
L 687.528077 -199.104959 
L 687.671403 -199.958398 
L 687.799122 -200.811836 
L 687.911726 -201.665275 
L 689.068274 -201.665275 
L 689.068274 -201.665275 
L 689.180878 -200.811836 
L 689.308597 -199.958398 
L 689.451923 -199.104959 
L 689.611016 -198.25152 
L 689.78564 -197.398082 
L 689.975109 -196.544643 
L 690.178238 -195.691205 
L 690.393314 -194.837766 
L 690.618082 -193.984327 
L 690.849759 -193.130889 
L 691.085065 -192.27745 
L 691.320286 -191.424012 
L 691.551354 -190.570573 
L 691.773963 -189.717135 
L 691.983689 -188.863696 
L 692.17614 -188.010257 
L 692.347099 -187.156819 
L 692.492685 -186.30338 
L 692.609493 -185.449942 
L 692.694731 -184.596503 
L 692.746329 -183.743064 
L 692.763024 -182.889626 
L 692.744414 -182.036187 
L 692.690975 -181.182749 
L 692.604046 -180.32931 
L 692.485775 -179.475871 
L 692.33904 -178.622433 
L 692.167342 -177.768994 
L 691.974676 -176.915556 
L 691.765396 -176.062117 
L 691.544073 -175.208679 
L 691.315365 -174.35524 
L 691.083888 -173.501801 
L 690.854123 -172.648363 
L 690.630335 -171.794924 
L 690.416532 -170.941486 
L 690.21645 -170.088047 
L 690.033578 -169.234608 
L 689.871209 -168.38117 
L 689.732526 -167.527731 
L 689.62071 -166.674293 
L 689.539068 -165.820854 
L 689.491176 -164.967415 
L 689.481025 -164.113977 
L 689.513157 -163.260538 
L 689.592792 -162.4071 
L 689.725924 -161.553661 
L 689.919384 -160.700223 
L 690.180844 -159.846784 
L 690.518778 -158.993345 
L 690.942333 -158.139907 
L 691.461143 -157.286468 
L 692.085047 -156.43303 
L 692.823733 -155.579591 
L 693.6863 -154.726152 
L 694.680748 -153.872714 
L 695.813416 -153.019275 
L 697.088383 -152.165837 
L 698.506861 -151.312398 
L 700.066611 -150.458959 
L 701.761417 -149.605521 
L 703.580659 -148.752082 
L 705.509018 -147.898644 
L 707.52635 -147.045205 
L 709.607762 -146.191767 
L 711.723897 -145.338328 
L 713.841465 -144.484889 
L 715.923983 -143.631451 
L 717.932737 -142.778012 
L 719.827923 -141.924574 
L 721.569919 -141.071135 
L 723.120641 -140.217696 
L 724.444919 -139.364258 
L 725.511808 -138.510819 
L 726.295796 -137.657381 
L 726.777813 -136.803942 
L 726.946 -135.950504 
L 726.796194 -135.097065 
L 726.332101 -134.243626 
L 725.56514 -133.390188 
L 724.513979 -132.536749 
L 723.203778 -131.683311 
L 721.665189 -130.829872 
L 719.933164 -129.976433 
L 718.045641 -129.122995 
L 716.042173 -128.269556 
L 713.962562 -127.416118 
L 711.845584 -126.562679 
L 709.72783 -125.70924 
L 707.642738 -124.855802 
L 705.619824 -124.002363 
L 703.684144 -123.148925 
L 701.855983 -122.295486 
L 700.150761 -121.442048 
L 698.579141 -120.588609 
L 697.147306 -119.73517 
L 695.857374 -118.881732 
L 694.707903 -118.028293 
L 693.69447 -117.174855 
z
" style="stroke: #1a1a1a; stroke-width: 1.5"/>
    </defs>
    <g clip-path="url(#p34a55e6bd1)">
     <use xlink:href="#m36e98f3d4e" x="0" y="576" style="fill: #ffffff; stroke: #1a1a1a; stroke-width: 1.5"/>
    </g>
   </g>
   <g id="patch_3">
    <path d="M 63.58 505.94 
L 63.58 19.44 
" style="fill: none; stroke: #000000; stroke-width: 1.25; stroke-linejoin: miter; stroke-linecap: square"/>
   </g>
   <g id="patch_4">
    <path d="M 736.56 505.94 
L 736.56 19.44 
" style="fill: none; stroke: #000000; stroke-width: 1.25; stroke-linejoin: miter; stroke-linecap: square"/>
   </g>
   <g id="patch_5">
    <path d="M 63.58 505.94 
L 736.56 505.94 
" style="fill: none; stroke: #000000; stroke-width: 1.25; stroke-linejoin: miter; stroke-linecap: square"/>
   </g>
   <g id="patch_6">
    <path d="M 63.58 19.44 
L 736.56 19.44 
" style="fill: none; stroke: #000000; stroke-width: 1.25; stroke-linejoin: miter; stroke-linecap: square"/>
   </g>
  </g>
 </g>
 <defs>
  <clipPath id="p34a55e6bd1">
   <rect x="63.58" y="19.44" width="672.98" height="486.5"/>
  </clipPath>
 </defs>
</svg>
