<?xml version="1.0" encoding="utf-8" standalone="no"?>
<!DOCTYPE svg PUBLIC "-//W3C//DTD SVG 1.1//EN"
  "http://www.w3.org/Graphics/SVG/1.1/DTD/svg11.dtd">
<svg xmlns:xlink="http://www.w3.org/1999/xlink" width="756pt" height="576pt" viewBox="0 0 756 576" xmlns="http://www.w3.org/2000/svg" version="1.1">
 <metadata>
  <rdf:RDF xmlns:dc="http://purl.org/dc/elements/1.1/" xmlns:cc="http://creativecommons.org/ns#" xmlns:rdf="http://www.w3.org/1999/02/22-rdf-syntax-ns#">
   <cc:Work>
    <dc:type rdf:resource="http://purl.org/dc/dcmitype/StillImage"/>
    <dc:date>2023-01-12T13:13:39.832865</dc:date>
    <dc:format>image/svg+xml</dc:format>
    <dc:creator>
     <cc:Agent>
      <dc:title>Matplotlib v3.6.0, https://matplotlib.org/</dc:title>
     </cc:Agent>
    </dc:creator>
   </cc:Work>
  </rdf:RDF>
 </metadata>
 <defs>
  <style type="text/css">*{stroke-linejoin: round; stroke-linecap: butt}</style>
 </defs>
 <g id="figure_1">
  <g id="patch_1">
   <path d="M 0 576 
L 756 576 
L 756 0 
L 0 0 
z
" style="fill: #ffffff"/>
  </g>
  <g id="axes_1">
   <g id="patch_2">
    <path d="M 73.57 505.94 
L 736.56 505.94 
L 736.56 22.816305 
L 73.57 22.816305 
z
" style="fill: #ffffff"/>
   </g>
   <g id="matplotlib.axis_1">
    <g id="xtick_1">
     <g id="line2d_1">
      <defs>
       <path id="m13016fe3d1" d="M 0 0 
L 0 6 
" style="stroke: #262626; stroke-width: 1.25"/>
      </defs>
      <g>
       <use xlink:href="#m13016fe3d1" x="120.926429" y="505.94" style="fill: #262626; stroke: #262626; stroke-width: 1.25"/>
      </g>
     </g>
     <g id="text_1">
      <!-- &lt; 0.05 -->
      <g style="fill: #262626" transform="translate(95.65471 528.324062) scale(0.18 -0.18)">
       <defs>
        <path id="ArialMT-3c" d="M 350 2003 
L 350 2528 
L 3384 3809 
L 3384 3250 
L 978 2263 
L 3384 1266 
L 3384 706 
L 350 2003 
z
" transform="scale(0.015625)"/>
        <path id="ArialMT-20" transform="scale(0.015625)"/>
        <path id="ArialMT-30" d="M 266 2259 
Q 266 3072 433 3567 
Q 600 4063 929 4331 
Q 1259 4600 1759 4600 
Q 2128 4600 2406 4451 
Q 2684 4303 2865 4023 
Q 3047 3744 3150 3342 
Q 3253 2941 3253 2259 
Q 3253 1453 3087 958 
Q 2922 463 2592 192 
Q 2263 -78 1759 -78 
Q 1097 -78 719 397 
Q 266 969 266 2259 
z
M 844 2259 
Q 844 1131 1108 757 
Q 1372 384 1759 384 
Q 2147 384 2411 759 
Q 2675 1134 2675 2259 
Q 2675 3391 2411 3762 
Q 2147 4134 1753 4134 
Q 1366 4134 1134 3806 
Q 844 3388 844 2259 
z
" transform="scale(0.015625)"/>
        <path id="ArialMT-2e" d="M 581 0 
L 581 641 
L 1222 641 
L 1222 0 
L 581 0 
z
" transform="scale(0.015625)"/>
        <path id="ArialMT-35" d="M 266 1200 
L 856 1250 
Q 922 819 1161 601 
Q 1400 384 1738 384 
Q 2144 384 2425 690 
Q 2706 997 2706 1503 
Q 2706 1984 2436 2262 
Q 2166 2541 1728 2541 
Q 1456 2541 1237 2417 
Q 1019 2294 894 2097 
L 366 2166 
L 809 4519 
L 3088 4519 
L 3088 3981 
L 1259 3981 
L 1013 2750 
Q 1425 3038 1878 3038 
Q 2478 3038 2890 2622 
Q 3303 2206 3303 1553 
Q 3303 931 2941 478 
Q 2500 -78 1738 -78 
Q 1113 -78 717 272 
Q 322 622 266 1200 
z
" transform="scale(0.015625)"/>
       </defs>
       <use xlink:href="#ArialMT-3c"/>
       <use xlink:href="#ArialMT-20" x="58.398438"/>
       <use xlink:href="#ArialMT-30" x="86.181641"/>
       <use xlink:href="#ArialMT-2e" x="141.796875"/>
       <use xlink:href="#ArialMT-30" x="169.580078"/>
       <use xlink:href="#ArialMT-35" x="225.195312"/>
      </g>
     </g>
    </g>
    <g id="xtick_2">
     <g id="line2d_2">
      <g>
       <use xlink:href="#m13016fe3d1" x="215.639286" y="505.94" style="fill: #262626; stroke: #262626; stroke-width: 1.25"/>
      </g>
     </g>
     <g id="text_2">
      <!-- 0.05-0.10 -->
      <g style="fill: #262626" transform="translate(177.612879 528.324062) scale(0.18 -0.18)">
       <defs>
        <path id="ArialMT-2d" d="M 203 1375 
L 203 1941 
L 1931 1941 
L 1931 1375 
L 203 1375 
z
" transform="scale(0.015625)"/>
        <path id="ArialMT-31" d="M 2384 0 
L 1822 0 
L 1822 3584 
Q 1619 3391 1289 3197 
Q 959 3003 697 2906 
L 697 3450 
Q 1169 3672 1522 3987 
Q 1875 4303 2022 4600 
L 2384 4600 
L 2384 0 
z
" transform="scale(0.015625)"/>
       </defs>
       <use xlink:href="#ArialMT-30"/>
       <use xlink:href="#ArialMT-2e" x="55.615234"/>
       <use xlink:href="#ArialMT-30" x="83.398438"/>
       <use xlink:href="#ArialMT-35" x="139.013672"/>
       <use xlink:href="#ArialMT-2d" x="194.628906"/>
       <use xlink:href="#ArialMT-30" x="227.929688"/>
       <use xlink:href="#ArialMT-2e" x="283.544922"/>
       <use xlink:href="#ArialMT-31" x="311.328125"/>
       <use xlink:href="#ArialMT-30" x="366.943359"/>
      </g>
     </g>
    </g>
    <g id="xtick_3">
     <g id="line2d_3">
      <g>
       <use xlink:href="#m13016fe3d1" x="310.352143" y="505.94" style="fill: #262626; stroke: #262626; stroke-width: 1.25"/>
      </g>
     </g>
     <g id="text_3">
      <!-- 0.10-0.15 -->
      <g style="fill: #262626" transform="translate(272.325737 528.324062) scale(0.18 -0.18)">
       <use xlink:href="#ArialMT-30"/>
       <use xlink:href="#ArialMT-2e" x="55.615234"/>
       <use xlink:href="#ArialMT-31" x="83.398438"/>
       <use xlink:href="#ArialMT-30" x="139.013672"/>
       <use xlink:href="#ArialMT-2d" x="194.628906"/>
       <use xlink:href="#ArialMT-30" x="227.929688"/>
       <use xlink:href="#ArialMT-2e" x="283.544922"/>
       <use xlink:href="#ArialMT-31" x="311.328125"/>
       <use xlink:href="#ArialMT-35" x="366.943359"/>
      </g>
     </g>
    </g>
    <g id="xtick_4">
     <g id="line2d_4">
      <g>
       <use xlink:href="#m13016fe3d1" x="405.065" y="505.94" style="fill: #262626; stroke: #262626; stroke-width: 1.25"/>
      </g>
     </g>
     <g id="text_4">
      <!-- 0.15-0.20 -->
      <g style="fill: #262626" transform="translate(367.038594 528.324062) scale(0.18 -0.18)">
       <defs>
        <path id="ArialMT-32" d="M 3222 541 
L 3222 0 
L 194 0 
Q 188 203 259 391 
Q 375 700 629 1000 
Q 884 1300 1366 1694 
Q 2113 2306 2375 2664 
Q 2638 3022 2638 3341 
Q 2638 3675 2398 3904 
Q 2159 4134 1775 4134 
Q 1369 4134 1125 3890 
Q 881 3647 878 3216 
L 300 3275 
Q 359 3922 746 4261 
Q 1134 4600 1788 4600 
Q 2447 4600 2831 4234 
Q 3216 3869 3216 3328 
Q 3216 3053 3103 2787 
Q 2991 2522 2730 2228 
Q 2469 1934 1863 1422 
Q 1356 997 1212 845 
Q 1069 694 975 541 
L 3222 541 
z
" transform="scale(0.015625)"/>
       </defs>
       <use xlink:href="#ArialMT-30"/>
       <use xlink:href="#ArialMT-2e" x="55.615234"/>
       <use xlink:href="#ArialMT-31" x="83.398438"/>
       <use xlink:href="#ArialMT-35" x="139.013672"/>
       <use xlink:href="#ArialMT-2d" x="194.628906"/>
       <use xlink:href="#ArialMT-30" x="227.929688"/>
       <use xlink:href="#ArialMT-2e" x="283.544922"/>
       <use xlink:href="#ArialMT-32" x="311.328125"/>
       <use xlink:href="#ArialMT-30" x="366.943359"/>
      </g>
     </g>
    </g>
    <g id="xtick_5">
     <g id="line2d_5">
      <g>
       <use xlink:href="#m13016fe3d1" x="499.777857" y="505.94" style="fill: #262626; stroke: #262626; stroke-width: 1.25"/>
      </g>
     </g>
     <g id="text_5">
      <!-- 0.20-0.30 -->
      <g style="fill: #262626" transform="translate(461.751451 528.324062) scale(0.18 -0.18)">
       <defs>
        <path id="ArialMT-33" d="M 269 1209 
L 831 1284 
Q 928 806 1161 595 
Q 1394 384 1728 384 
Q 2125 384 2398 659 
Q 2672 934 2672 1341 
Q 2672 1728 2419 1979 
Q 2166 2231 1775 2231 
Q 1616 2231 1378 2169 
L 1441 2663 
Q 1497 2656 1531 2656 
Q 1891 2656 2178 2843 
Q 2466 3031 2466 3422 
Q 2466 3731 2256 3934 
Q 2047 4138 1716 4138 
Q 1388 4138 1169 3931 
Q 950 3725 888 3313 
L 325 3413 
Q 428 3978 793 4289 
Q 1159 4600 1703 4600 
Q 2078 4600 2393 4439 
Q 2709 4278 2876 4000 
Q 3044 3722 3044 3409 
Q 3044 3113 2884 2869 
Q 2725 2625 2413 2481 
Q 2819 2388 3044 2092 
Q 3269 1797 3269 1353 
Q 3269 753 2831 336 
Q 2394 -81 1725 -81 
Q 1122 -81 723 278 
Q 325 638 269 1209 
z
" transform="scale(0.015625)"/>
       </defs>
       <use xlink:href="#ArialMT-30"/>
       <use xlink:href="#ArialMT-2e" x="55.615234"/>
       <use xlink:href="#ArialMT-32" x="83.398438"/>
       <use xlink:href="#ArialMT-30" x="139.013672"/>
       <use xlink:href="#ArialMT-2d" x="194.628906"/>
       <use xlink:href="#ArialMT-30" x="227.929688"/>
       <use xlink:href="#ArialMT-2e" x="283.544922"/>
       <use xlink:href="#ArialMT-33" x="311.328125"/>
       <use xlink:href="#ArialMT-30" x="366.943359"/>
      </g>
     </g>
    </g>
    <g id="xtick_6">
     <g id="line2d_6">
      <g>
       <use xlink:href="#m13016fe3d1" x="594.490714" y="505.94" style="fill: #262626; stroke: #262626; stroke-width: 1.25"/>
      </g>
     </g>
     <g id="text_6">
      <!-- 0.30-0.40 -->
      <g style="fill: #262626" transform="translate(556.464308 528.324062) scale(0.18 -0.18)">
       <defs>
        <path id="ArialMT-34" d="M 2069 0 
L 2069 1097 
L 81 1097 
L 81 1613 
L 2172 4581 
L 2631 4581 
L 2631 1613 
L 3250 1613 
L 3250 1097 
L 2631 1097 
L 2631 0 
L 2069 0 
z
M 2069 1613 
L 2069 3678 
L 634 1613 
L 2069 1613 
z
" transform="scale(0.015625)"/>
       </defs>
       <use xlink:href="#ArialMT-30"/>
       <use xlink:href="#ArialMT-2e" x="55.615234"/>
       <use xlink:href="#ArialMT-33" x="83.398438"/>
       <use xlink:href="#ArialMT-30" x="139.013672"/>
       <use xlink:href="#ArialMT-2d" x="194.628906"/>
       <use xlink:href="#ArialMT-30" x="227.929688"/>
       <use xlink:href="#ArialMT-2e" x="283.544922"/>
       <use xlink:href="#ArialMT-34" x="311.328125"/>
       <use xlink:href="#ArialMT-30" x="366.943359"/>
      </g>
     </g>
    </g>
    <g id="xtick_7">
     <g id="line2d_7">
      <g>
       <use xlink:href="#m13016fe3d1" x="689.203571" y="505.94" style="fill: #262626; stroke: #262626; stroke-width: 1.25"/>
      </g>
     </g>
     <g id="text_7">
      <!-- 0.40-0.62 -->
      <g style="fill: #262626" transform="translate(651.177165 528.324062) scale(0.18 -0.18)">
       <defs>
        <path id="ArialMT-36" d="M 3184 3459 
L 2625 3416 
Q 2550 3747 2413 3897 
Q 2184 4138 1850 4138 
Q 1581 4138 1378 3988 
Q 1113 3794 959 3422 
Q 806 3050 800 2363 
Q 1003 2672 1297 2822 
Q 1591 2972 1913 2972 
Q 2475 2972 2870 2558 
Q 3266 2144 3266 1488 
Q 3266 1056 3080 686 
Q 2894 316 2569 119 
Q 2244 -78 1831 -78 
Q 1128 -78 684 439 
Q 241 956 241 2144 
Q 241 3472 731 4075 
Q 1159 4600 1884 4600 
Q 2425 4600 2770 4297 
Q 3116 3994 3184 3459 
z
M 888 1484 
Q 888 1194 1011 928 
Q 1134 663 1356 523 
Q 1578 384 1822 384 
Q 2178 384 2434 671 
Q 2691 959 2691 1453 
Q 2691 1928 2437 2201 
Q 2184 2475 1800 2475 
Q 1419 2475 1153 2201 
Q 888 1928 888 1484 
z
" transform="scale(0.015625)"/>
       </defs>
       <use xlink:href="#ArialMT-30"/>
       <use xlink:href="#ArialMT-2e" x="55.615234"/>
       <use xlink:href="#ArialMT-34" x="83.398438"/>
       <use xlink:href="#ArialMT-30" x="139.013672"/>
       <use xlink:href="#ArialMT-2d" x="194.628906"/>
       <use xlink:href="#ArialMT-30" x="227.929688"/>
       <use xlink:href="#ArialMT-2e" x="283.544922"/>
       <use xlink:href="#ArialMT-36" x="311.328125"/>
       <use xlink:href="#ArialMT-32" x="366.943359"/>
      </g>
     </g>
    </g>
    <g id="text_8">
     <!-- Influence Team Strength -->
     <g style="fill: #262626" transform="translate(300.719844 553.005) scale(0.18 -0.18)">
      <defs>
       <path id="Arial-BoldMT-49" d="M 438 0 
L 438 4581 
L 1363 4581 
L 1363 0 
L 438 0 
z
" transform="scale(0.015625)"/>
       <path id="Arial-BoldMT-6e" d="M 3478 0 
L 2600 0 
L 2600 1694 
Q 2600 2231 2544 2389 
Q 2488 2547 2361 2634 
Q 2234 2722 2056 2722 
Q 1828 2722 1647 2597 
Q 1466 2472 1398 2265 
Q 1331 2059 1331 1503 
L 1331 0 
L 453 0 
L 453 3319 
L 1269 3319 
L 1269 2831 
Q 1703 3394 2363 3394 
Q 2653 3394 2893 3289 
Q 3134 3184 3257 3021 
Q 3381 2859 3429 2653 
Q 3478 2447 3478 2063 
L 3478 0 
z
" transform="scale(0.015625)"/>
       <path id="Arial-BoldMT-66" d="M 75 3319 
L 563 3319 
L 563 3569 
Q 563 3988 652 4194 
Q 741 4400 980 4529 
Q 1219 4659 1584 4659 
Q 1959 4659 2319 4547 
L 2200 3934 
Q 1991 3984 1797 3984 
Q 1606 3984 1523 3895 
Q 1441 3806 1441 3553 
L 1441 3319 
L 2097 3319 
L 2097 2628 
L 1441 2628 
L 1441 0 
L 563 0 
L 563 2628 
L 75 2628 
L 75 3319 
z
" transform="scale(0.015625)"/>
       <path id="Arial-BoldMT-6c" d="M 459 0 
L 459 4581 
L 1338 4581 
L 1338 0 
L 459 0 
z
" transform="scale(0.015625)"/>
       <path id="Arial-BoldMT-75" d="M 2644 0 
L 2644 497 
Q 2463 231 2167 78 
Q 1872 -75 1544 -75 
Q 1209 -75 943 72 
Q 678 219 559 484 
Q 441 750 441 1219 
L 441 3319 
L 1319 3319 
L 1319 1794 
Q 1319 1094 1367 936 
Q 1416 778 1544 686 
Q 1672 594 1869 594 
Q 2094 594 2272 717 
Q 2450 841 2515 1023 
Q 2581 1206 2581 1919 
L 2581 3319 
L 3459 3319 
L 3459 0 
L 2644 0 
z
" transform="scale(0.015625)"/>
       <path id="Arial-BoldMT-65" d="M 2381 1056 
L 3256 909 
Q 3088 428 2723 176 
Q 2359 -75 1813 -75 
Q 947 -75 531 491 
Q 203 944 203 1634 
Q 203 2459 634 2926 
Q 1066 3394 1725 3394 
Q 2466 3394 2894 2905 
Q 3322 2416 3303 1406 
L 1103 1406 
Q 1113 1016 1316 798 
Q 1519 581 1822 581 
Q 2028 581 2168 693 
Q 2309 806 2381 1056 
z
M 2431 1944 
Q 2422 2325 2234 2523 
Q 2047 2722 1778 2722 
Q 1491 2722 1303 2513 
Q 1116 2303 1119 1944 
L 2431 1944 
z
" transform="scale(0.015625)"/>
       <path id="Arial-BoldMT-63" d="M 3353 2338 
L 2488 2181 
Q 2444 2441 2289 2572 
Q 2134 2703 1888 2703 
Q 1559 2703 1364 2476 
Q 1169 2250 1169 1719 
Q 1169 1128 1367 884 
Q 1566 641 1900 641 
Q 2150 641 2309 783 
Q 2469 925 2534 1272 
L 3397 1125 
Q 3263 531 2881 228 
Q 2500 -75 1859 -75 
Q 1131 -75 698 384 
Q 266 844 266 1656 
Q 266 2478 700 2936 
Q 1134 3394 1875 3394 
Q 2481 3394 2839 3133 
Q 3197 2872 3353 2338 
z
" transform="scale(0.015625)"/>
       <path id="Arial-BoldMT-20" transform="scale(0.015625)"/>
       <path id="Arial-BoldMT-54" d="M 1497 0 
L 1497 3806 
L 138 3806 
L 138 4581 
L 3778 4581 
L 3778 3806 
L 2422 3806 
L 2422 0 
L 1497 0 
z
" transform="scale(0.015625)"/>
       <path id="Arial-BoldMT-61" d="M 1116 2306 
L 319 2450 
Q 453 2931 781 3162 
Q 1109 3394 1756 3394 
Q 2344 3394 2631 3255 
Q 2919 3116 3036 2902 
Q 3153 2688 3153 2116 
L 3144 1091 
Q 3144 653 3186 445 
Q 3228 238 3344 0 
L 2475 0 
Q 2441 88 2391 259 
Q 2369 338 2359 363 
Q 2134 144 1878 34 
Q 1622 -75 1331 -75 
Q 819 -75 523 203 
Q 228 481 228 906 
Q 228 1188 362 1408 
Q 497 1628 739 1745 
Q 981 1863 1438 1950 
Q 2053 2066 2291 2166 
L 2291 2253 
Q 2291 2506 2166 2614 
Q 2041 2722 1694 2722 
Q 1459 2722 1328 2630 
Q 1197 2538 1116 2306 
z
M 2291 1594 
Q 2122 1538 1756 1459 
Q 1391 1381 1278 1306 
Q 1106 1184 1106 997 
Q 1106 813 1243 678 
Q 1381 544 1594 544 
Q 1831 544 2047 700 
Q 2206 819 2256 991 
Q 2291 1103 2291 1419 
L 2291 1594 
z
" transform="scale(0.015625)"/>
       <path id="Arial-BoldMT-6d" d="M 394 3319 
L 1203 3319 
L 1203 2866 
Q 1638 3394 2238 3394 
Q 2556 3394 2790 3262 
Q 3025 3131 3175 2866 
Q 3394 3131 3647 3262 
Q 3900 3394 4188 3394 
Q 4553 3394 4806 3245 
Q 5059 3097 5184 2809 
Q 5275 2597 5275 2122 
L 5275 0 
L 4397 0 
L 4397 1897 
Q 4397 2391 4306 2534 
Q 4184 2722 3931 2722 
Q 3747 2722 3584 2609 
Q 3422 2497 3350 2280 
Q 3278 2063 3278 1594 
L 3278 0 
L 2400 0 
L 2400 1819 
Q 2400 2303 2353 2443 
Q 2306 2584 2207 2653 
Q 2109 2722 1941 2722 
Q 1738 2722 1575 2612 
Q 1413 2503 1342 2297 
Q 1272 2091 1272 1613 
L 1272 0 
L 394 0 
L 394 3319 
z
" transform="scale(0.015625)"/>
       <path id="Arial-BoldMT-53" d="M 231 1491 
L 1131 1578 
Q 1213 1125 1461 912 
Q 1709 700 2131 700 
Q 2578 700 2804 889 
Q 3031 1078 3031 1331 
Q 3031 1494 2936 1608 
Q 2841 1722 2603 1806 
Q 2441 1863 1863 2006 
Q 1119 2191 819 2459 
Q 397 2838 397 3381 
Q 397 3731 595 4036 
Q 794 4341 1167 4500 
Q 1541 4659 2069 4659 
Q 2931 4659 3367 4281 
Q 3803 3903 3825 3272 
L 2900 3231 
Q 2841 3584 2645 3739 
Q 2450 3894 2059 3894 
Q 1656 3894 1428 3728 
Q 1281 3622 1281 3444 
Q 1281 3281 1419 3166 
Q 1594 3019 2269 2859 
Q 2944 2700 3267 2529 
Q 3591 2359 3773 2064 
Q 3956 1769 3956 1334 
Q 3956 941 3737 597 
Q 3519 253 3119 86 
Q 2719 -81 2122 -81 
Q 1253 -81 787 320 
Q 322 722 231 1491 
z
" transform="scale(0.015625)"/>
       <path id="Arial-BoldMT-74" d="M 1981 3319 
L 1981 2619 
L 1381 2619 
L 1381 1281 
Q 1381 875 1398 808 
Q 1416 741 1477 697 
Q 1538 653 1625 653 
Q 1747 653 1978 738 
L 2053 56 
Q 1747 -75 1359 -75 
Q 1122 -75 931 4 
Q 741 84 652 211 
Q 563 338 528 553 
Q 500 706 500 1172 
L 500 2619 
L 97 2619 
L 97 3319 
L 500 3319 
L 500 3978 
L 1381 4491 
L 1381 3319 
L 1981 3319 
z
" transform="scale(0.015625)"/>
       <path id="Arial-BoldMT-72" d="M 1300 0 
L 422 0 
L 422 3319 
L 1238 3319 
L 1238 2847 
Q 1447 3181 1614 3287 
Q 1781 3394 1994 3394 
Q 2294 3394 2572 3228 
L 2300 2463 
Q 2078 2606 1888 2606 
Q 1703 2606 1575 2504 
Q 1447 2403 1373 2137 
Q 1300 1872 1300 1025 
L 1300 0 
z
" transform="scale(0.015625)"/>
       <path id="Arial-BoldMT-67" d="M 378 -219 
L 1381 -341 
Q 1406 -516 1497 -581 
Q 1622 -675 1891 -675 
Q 2234 -675 2406 -572 
Q 2522 -503 2581 -350 
Q 2622 -241 2622 53 
L 2622 538 
Q 2228 0 1628 0 
Q 959 0 569 566 
Q 263 1013 263 1678 
Q 263 2513 664 2953 
Q 1066 3394 1663 3394 
Q 2278 3394 2678 2853 
L 2678 3319 
L 3500 3319 
L 3500 341 
Q 3500 -247 3403 -537 
Q 3306 -828 3131 -993 
Q 2956 -1159 2664 -1253 
Q 2372 -1347 1925 -1347 
Q 1081 -1347 728 -1058 
Q 375 -769 375 -325 
Q 375 -281 378 -219 
z
M 1163 1728 
Q 1163 1200 1367 954 
Q 1572 709 1872 709 
Q 2194 709 2416 961 
Q 2638 1213 2638 1706 
Q 2638 2222 2425 2472 
Q 2213 2722 1888 2722 
Q 1572 2722 1367 2476 
Q 1163 2231 1163 1728 
z
" transform="scale(0.015625)"/>
       <path id="Arial-BoldMT-68" d="M 1334 4581 
L 1334 2897 
Q 1759 3394 2350 3394 
Q 2653 3394 2897 3281 
Q 3141 3169 3264 2994 
Q 3388 2819 3433 2606 
Q 3478 2394 3478 1947 
L 3478 0 
L 2600 0 
L 2600 1753 
Q 2600 2275 2550 2415 
Q 2500 2556 2373 2639 
Q 2247 2722 2056 2722 
Q 1838 2722 1666 2615 
Q 1494 2509 1414 2295 
Q 1334 2081 1334 1663 
L 1334 0 
L 456 0 
L 456 4581 
L 1334 4581 
z
" transform="scale(0.015625)"/>
      </defs>
      <use xlink:href="#Arial-BoldMT-49"/>
      <use xlink:href="#Arial-BoldMT-6e" x="27.783203"/>
      <use xlink:href="#Arial-BoldMT-66" x="88.867188"/>
      <use xlink:href="#Arial-BoldMT-6c" x="122.167969"/>
      <use xlink:href="#Arial-BoldMT-75" x="149.951172"/>
      <use xlink:href="#Arial-BoldMT-65" x="211.035156"/>
      <use xlink:href="#Arial-BoldMT-6e" x="266.650391"/>
      <use xlink:href="#Arial-BoldMT-63" x="327.734375"/>
      <use xlink:href="#Arial-BoldMT-65" x="383.349609"/>
      <use xlink:href="#Arial-BoldMT-20" x="438.964844"/>
      <use xlink:href="#Arial-BoldMT-54" x="466.748047"/>
      <use xlink:href="#Arial-BoldMT-65" x="520.457031"/>
      <use xlink:href="#Arial-BoldMT-61" x="576.072266"/>
      <use xlink:href="#Arial-BoldMT-6d" x="631.6875"/>
      <use xlink:href="#Arial-BoldMT-20" x="720.603516"/>
      <use xlink:href="#Arial-BoldMT-53" x="748.386719"/>
      <use xlink:href="#Arial-BoldMT-74" x="815.085938"/>
      <use xlink:href="#Arial-BoldMT-72" x="848.386719"/>
      <use xlink:href="#Arial-BoldMT-65" x="887.302734"/>
      <use xlink:href="#Arial-BoldMT-6e" x="942.917969"/>
      <use xlink:href="#Arial-BoldMT-67" x="1004.001953"/>
      <use xlink:href="#Arial-BoldMT-74" x="1065.085938"/>
      <use xlink:href="#Arial-BoldMT-68" x="1098.386719"/>
     </g>
    </g>
   </g>
   <g id="matplotlib.axis_2">
    <g id="ytick_1">
     <g id="line2d_8">
      <defs>
       <path id="md95e94ee47" d="M 0 0 
L -6 0 
" style="stroke: #262626; stroke-width: 1.25"/>
      </defs>
      <g>
       <use xlink:href="#md95e94ee47" x="73.57" y="493.418838" style="fill: #262626; stroke: #262626; stroke-width: 1.25"/>
      </g>
     </g>
     <g id="text_9">
      <!-- 0 -->
      <g style="fill: #262626" transform="translate(54.060313 499.860869) scale(0.18 -0.18)">
       <use xlink:href="#ArialMT-30"/>
      </g>
     </g>
    </g>
    <g id="ytick_2">
     <g id="line2d_9">
      <g>
       <use xlink:href="#md95e94ee47" x="73.57" y="399.914763" style="fill: #262626; stroke: #262626; stroke-width: 1.25"/>
      </g>
     </g>
     <g id="text_10">
      <!-- 2 -->
      <g style="fill: #262626" transform="translate(54.060313 406.356794) scale(0.18 -0.18)">
       <use xlink:href="#ArialMT-32"/>
      </g>
     </g>
    </g>
    <g id="ytick_3">
     <g id="line2d_10">
      <g>
       <use xlink:href="#md95e94ee47" x="73.57" y="306.410687" style="fill: #262626; stroke: #262626; stroke-width: 1.25"/>
      </g>
     </g>
     <g id="text_11">
      <!-- 4 -->
      <g style="fill: #262626" transform="translate(54.060313 312.852718) scale(0.18 -0.18)">
       <use xlink:href="#ArialMT-34"/>
      </g>
     </g>
    </g>
    <g id="ytick_4">
     <g id="line2d_11">
      <g>
       <use xlink:href="#md95e94ee47" x="73.57" y="212.906611" style="fill: #262626; stroke: #262626; stroke-width: 1.25"/>
      </g>
     </g>
     <g id="text_12">
      <!-- 6 -->
      <g style="fill: #262626" transform="translate(54.060313 219.348643) scale(0.18 -0.18)">
       <use xlink:href="#ArialMT-36"/>
      </g>
     </g>
    </g>
    <g id="ytick_5">
     <g id="line2d_12">
      <g>
       <use xlink:href="#md95e94ee47" x="73.57" y="119.402536" style="fill: #262626; stroke: #262626; stroke-width: 1.25"/>
      </g>
     </g>
     <g id="text_13">
      <!-- 8 -->
      <g style="fill: #262626" transform="translate(54.060313 125.844567) scale(0.18 -0.18)">
       <defs>
        <path id="ArialMT-38" d="M 1131 2484 
Q 781 2613 612 2850 
Q 444 3088 444 3419 
Q 444 3919 803 4259 
Q 1163 4600 1759 4600 
Q 2359 4600 2725 4251 
Q 3091 3903 3091 3403 
Q 3091 3084 2923 2848 
Q 2756 2613 2416 2484 
Q 2838 2347 3058 2040 
Q 3278 1734 3278 1309 
Q 3278 722 2862 322 
Q 2447 -78 1769 -78 
Q 1091 -78 675 323 
Q 259 725 259 1325 
Q 259 1772 486 2073 
Q 713 2375 1131 2484 
z
M 1019 3438 
Q 1019 3113 1228 2906 
Q 1438 2700 1772 2700 
Q 2097 2700 2305 2904 
Q 2513 3109 2513 3406 
Q 2513 3716 2298 3927 
Q 2084 4138 1766 4138 
Q 1444 4138 1231 3931 
Q 1019 3725 1019 3438 
z
M 838 1322 
Q 838 1081 952 856 
Q 1066 631 1291 507 
Q 1516 384 1775 384 
Q 2178 384 2440 643 
Q 2703 903 2703 1303 
Q 2703 1709 2433 1975 
Q 2163 2241 1756 2241 
Q 1359 2241 1098 1978 
Q 838 1716 838 1322 
z
" transform="scale(0.015625)"/>
       </defs>
       <use xlink:href="#ArialMT-38"/>
      </g>
     </g>
    </g>
    <g id="ytick_6">
     <g id="line2d_13">
      <g>
       <use xlink:href="#md95e94ee47" x="73.57" y="25.89846" style="fill: #262626; stroke: #262626; stroke-width: 1.25"/>
      </g>
     </g>
     <g id="text_14">
      <!-- 10 -->
      <g style="fill: #262626" transform="translate(44.050625 32.340492) scale(0.18 -0.18)">
       <use xlink:href="#ArialMT-31"/>
       <use xlink:href="#ArialMT-30" x="55.615234"/>
      </g>
     </g>
    </g>
    <g id="text_15">
     <!-- Number of PCs -->
     <g style="fill: #262626" transform="translate(32.498438 329.384871) rotate(-90) scale(0.18 -0.18)">
      <defs>
       <path id="Arial-BoldMT-4e" d="M 475 0 
L 475 4581 
L 1375 4581 
L 3250 1522 
L 3250 4581 
L 4109 4581 
L 4109 0 
L 3181 0 
L 1334 2988 
L 1334 0 
L 475 0 
z
" transform="scale(0.015625)"/>
       <path id="Arial-BoldMT-62" d="M 422 0 
L 422 4581 
L 1300 4581 
L 1300 2931 
Q 1706 3394 2263 3394 
Q 2869 3394 3266 2955 
Q 3663 2516 3663 1694 
Q 3663 844 3258 384 
Q 2853 -75 2275 -75 
Q 1991 -75 1714 67 
Q 1438 209 1238 488 
L 1238 0 
L 422 0 
z
M 1294 1731 
Q 1294 1216 1456 969 
Q 1684 619 2063 619 
Q 2353 619 2558 867 
Q 2763 1116 2763 1650 
Q 2763 2219 2556 2470 
Q 2350 2722 2028 2722 
Q 1713 2722 1503 2476 
Q 1294 2231 1294 1731 
z
" transform="scale(0.015625)"/>
       <path id="Arial-BoldMT-6f" d="M 256 1706 
Q 256 2144 472 2553 
Q 688 2963 1083 3178 
Q 1478 3394 1966 3394 
Q 2719 3394 3200 2905 
Q 3681 2416 3681 1669 
Q 3681 916 3195 420 
Q 2709 -75 1972 -75 
Q 1516 -75 1102 131 
Q 688 338 472 736 
Q 256 1134 256 1706 
z
M 1156 1659 
Q 1156 1166 1390 903 
Q 1625 641 1969 641 
Q 2313 641 2545 903 
Q 2778 1166 2778 1666 
Q 2778 2153 2545 2415 
Q 2313 2678 1969 2678 
Q 1625 2678 1390 2415 
Q 1156 2153 1156 1659 
z
" transform="scale(0.015625)"/>
       <path id="Arial-BoldMT-50" d="M 466 0 
L 466 4581 
L 1950 4581 
Q 2794 4581 3050 4513 
Q 3444 4409 3709 4064 
Q 3975 3719 3975 3172 
Q 3975 2750 3822 2462 
Q 3669 2175 3433 2011 
Q 3197 1847 2953 1794 
Q 2622 1728 1994 1728 
L 1391 1728 
L 1391 0 
L 466 0 
z
M 1391 3806 
L 1391 2506 
L 1897 2506 
Q 2444 2506 2628 2578 
Q 2813 2650 2917 2803 
Q 3022 2956 3022 3159 
Q 3022 3409 2875 3571 
Q 2728 3734 2503 3775 
Q 2338 3806 1838 3806 
L 1391 3806 
z
" transform="scale(0.015625)"/>
       <path id="Arial-BoldMT-43" d="M 3397 1684 
L 4294 1400 
Q 4088 650 3608 286 
Q 3128 -78 2391 -78 
Q 1478 -78 890 545 
Q 303 1169 303 2250 
Q 303 3394 893 4026 
Q 1484 4659 2447 4659 
Q 3288 4659 3813 4163 
Q 4125 3869 4281 3319 
L 3366 3100 
Q 3284 3456 3026 3662 
Q 2769 3869 2400 3869 
Q 1891 3869 1573 3503 
Q 1256 3138 1256 2319 
Q 1256 1450 1568 1081 
Q 1881 713 2381 713 
Q 2750 713 3015 947 
Q 3281 1181 3397 1684 
z
" transform="scale(0.015625)"/>
       <path id="Arial-BoldMT-73" d="M 150 947 
L 1031 1081 
Q 1088 825 1259 692 
Q 1431 559 1741 559 
Q 2081 559 2253 684 
Q 2369 772 2369 919 
Q 2369 1019 2306 1084 
Q 2241 1147 2013 1200 
Q 950 1434 666 1628 
Q 272 1897 272 2375 
Q 272 2806 612 3100 
Q 953 3394 1669 3394 
Q 2350 3394 2681 3172 
Q 3013 2950 3138 2516 
L 2309 2363 
Q 2256 2556 2107 2659 
Q 1959 2763 1684 2763 
Q 1338 2763 1188 2666 
Q 1088 2597 1088 2488 
Q 1088 2394 1175 2328 
Q 1294 2241 1995 2081 
Q 2697 1922 2975 1691 
Q 3250 1456 3250 1038 
Q 3250 581 2869 253 
Q 2488 -75 1741 -75 
Q 1063 -75 667 200 
Q 272 475 150 947 
z
" transform="scale(0.015625)"/>
      </defs>
      <use xlink:href="#Arial-BoldMT-4e"/>
      <use xlink:href="#Arial-BoldMT-75" x="72.216797"/>
      <use xlink:href="#Arial-BoldMT-6d" x="133.300781"/>
      <use xlink:href="#Arial-BoldMT-62" x="222.216797"/>
      <use xlink:href="#Arial-BoldMT-65" x="283.300781"/>
      <use xlink:href="#Arial-BoldMT-72" x="338.916016"/>
      <use xlink:href="#Arial-BoldMT-20" x="377.832031"/>
      <use xlink:href="#Arial-BoldMT-6f" x="405.615234"/>
      <use xlink:href="#Arial-BoldMT-66" x="466.699219"/>
      <use xlink:href="#Arial-BoldMT-20" x="500"/>
      <use xlink:href="#Arial-BoldMT-50" x="527.783203"/>
      <use xlink:href="#Arial-BoldMT-43" x="594.482422"/>
      <use xlink:href="#Arial-BoldMT-73" x="666.699219"/>
     </g>
    </g>
   </g>
   <g id="PolyCollection_1">
    <defs>
     <path id="m39fead4f04" d="M 121.359121 -241.715287 
L 120.493737 -241.715287 
L 120.421192 -244.639613 
L 120.340015 -247.563939 
L 120.249856 -250.488264 
L 120.15048 -253.41259 
L 120.041785 -256.336916 
L 119.923822 -259.261241 
L 119.796816 -262.185567 
L 119.661174 -265.109893 
L 119.5175 -268.034218 
L 119.366597 -270.958544 
L 119.209465 -273.88287 
L 119.047292 -276.807195 
L 118.881437 -279.731521 
L 118.713413 -282.655847 
L 118.544849 -285.580172 
L 118.377458 -288.504498 
L 118.212999 -291.428824 
L 118.053224 -294.353149 
L 117.899835 -297.277475 
L 117.754434 -300.201801 
L 117.618474 -303.126126 
L 117.493215 -306.050452 
L 117.37968 -308.974778 
L 117.278625 -311.899103 
L 117.19051 -314.823429 
L 117.11548 -317.747754 
L 117.053361 -320.67208 
L 117.00366 -323.596406 
L 116.965582 -326.520731 
L 116.938048 -329.445057 
L 116.919733 -332.369383 
L 116.909104 -335.293708 
L 116.904468 -338.218034 
L 116.904025 -341.14236 
L 116.905921 -344.066685 
L 116.908308 -346.991011 
L 116.909396 -349.915337 
L 116.907507 -352.839662 
L 116.901121 -355.763988 
L 116.888922 -358.688314 
L 116.869826 -361.612639 
L 116.843014 -364.536965 
L 116.807943 -367.461291 
L 116.76436 -370.385616 
L 116.712298 -373.309942 
L 116.652071 -376.234268 
L 116.584255 -379.158593 
L 116.509664 -382.082919 
L 116.429329 -385.007245 
L 116.344459 -387.93157 
L 116.256408 -390.855896 
L 116.166645 -393.780222 
L 116.076709 -396.704547 
L 115.988183 -399.628873 
L 115.902656 -402.553198 
L 115.821697 -405.477524 
L 115.746828 -408.40185 
L 115.679504 -411.326175 
L 115.62109 -414.250501 
L 115.57285 -417.174827 
L 115.535936 -420.099152 
L 115.511375 -423.023478 
L 115.500067 -425.947804 
L 115.502772 -428.872129 
L 115.520112 -431.796455 
L 115.552561 -434.720781 
L 115.600445 -437.645106 
L 115.663931 -440.569432 
L 115.743027 -443.493758 
L 115.837574 -446.418083 
L 115.947245 -449.342409 
L 116.07154 -452.266735 
L 116.209787 -455.19106 
L 116.361141 -458.115386 
L 116.524592 -461.039712 
L 116.698975 -463.964037 
L 116.88298 -466.888363 
L 117.075168 -469.812689 
L 117.273999 -472.737014 
L 117.477849 -475.66134 
L 117.685043 -478.585666 
L 117.893884 -481.509991 
L 118.102682 -484.434317 
L 118.30979 -487.358643 
L 118.513633 -490.282968 
L 118.712734 -493.207294 
L 118.905742 -496.131619 
L 119.091457 -499.055945 
L 119.268841 -501.980271 
L 119.437032 -504.904596 
L 119.595355 -507.828922 
L 119.743317 -510.753248 
L 119.880611 -513.677573 
L 120.007102 -516.601899 
L 120.122816 -519.526225 
L 120.227928 -522.45055 
L 120.322742 -525.374876 
L 120.40767 -528.299202 
L 120.483217 -531.223527 
L 121.369641 -531.223527 
L 121.369641 -531.223527 
L 121.445187 -528.299202 
L 121.530115 -525.374876 
L 121.624929 -522.45055 
L 121.730041 -519.526225 
L 121.845755 -516.601899 
L 121.972246 -513.677573 
L 122.10954 -510.753248 
L 122.257503 -507.828922 
L 122.415825 -504.904596 
L 122.584016 -501.980271 
L 122.7614 -499.055945 
L 122.947115 -496.131619 
L 123.140124 -493.207294 
L 123.339224 -490.282968 
L 123.543067 -487.358643 
L 123.750175 -484.434317 
L 123.958974 -481.509991 
L 124.167814 -478.585666 
L 124.375008 -475.66134 
L 124.578858 -472.737014 
L 124.777689 -469.812689 
L 124.969877 -466.888363 
L 125.153882 -463.964037 
L 125.328265 -461.039712 
L 125.491717 -458.115386 
L 125.64307 -455.19106 
L 125.781317 -452.266735 
L 125.905612 -449.342409 
L 126.015283 -446.418083 
L 126.10983 -443.493758 
L 126.188926 -440.569432 
L 126.252412 -437.645106 
L 126.300296 -434.720781 
L 126.332745 -431.796455 
L 126.350085 -428.872129 
L 126.352791 -425.947804 
L 126.341482 -423.023478 
L 126.316921 -420.099152 
L 126.280007 -417.174827 
L 126.231768 -414.250501 
L 126.173353 -411.326175 
L 126.106029 -408.40185 
L 126.03116 -405.477524 
L 125.950201 -402.553198 
L 125.864674 -399.628873 
L 125.776148 -396.704547 
L 125.686212 -393.780222 
L 125.596449 -390.855896 
L 125.508399 -387.93157 
L 125.423528 -385.007245 
L 125.343193 -382.082919 
L 125.268603 -379.158593 
L 125.200786 -376.234268 
L 125.140559 -373.309942 
L 125.088497 -370.385616 
L 125.044914 -367.461291 
L 125.009843 -364.536965 
L 124.983031 -361.612639 
L 124.963935 -358.688314 
L 124.951736 -355.763988 
L 124.94535 -352.839662 
L 124.943461 -349.915337 
L 124.944549 -346.991011 
L 124.946936 -344.066685 
L 124.948832 -341.14236 
L 124.948389 -338.218034 
L 124.943753 -335.293708 
L 124.933124 -332.369383 
L 124.914809 -329.445057 
L 124.887276 -326.520731 
L 124.849197 -323.596406 
L 124.799497 -320.67208 
L 124.737377 -317.747754 
L 124.662347 -314.823429 
L 124.574232 -311.899103 
L 124.473177 -308.974778 
L 124.359643 -306.050452 
L 124.234383 -303.126126 
L 124.098423 -300.201801 
L 123.953023 -297.277475 
L 123.799633 -294.353149 
L 123.639858 -291.428824 
L 123.475399 -288.504498 
L 123.308008 -285.580172 
L 123.139444 -282.655847 
L 122.97142 -279.731521 
L 122.805566 -276.807195 
L 122.643392 -273.88287 
L 122.48626 -270.958544 
L 122.335357 -268.034218 
L 122.191683 -265.109893 
L 122.056042 -262.185567 
L 121.929035 -259.261241 
L 121.811072 -256.336916 
L 121.702377 -253.41259 
L 121.603001 -250.488264 
L 121.512842 -247.563939 
L 121.431665 -244.639613 
L 121.359121 -241.715287 
z
" style="stroke: #1a1a1a; stroke-width: 1.5"/>
    </defs>
    <g clip-path="url(#pc50a272b2f)">
     <use xlink:href="#m39fead4f04" x="0" y="576" style="fill: #ffffff; stroke: #1a1a1a; stroke-width: 1.5"/>
    </g>
   </g>
   <g id="PolyCollection_2">
    <defs>
     <path id="m5c35bb8742" d="M 216.371682 -196.007022 
L 214.906889 -196.007022 
L 214.783087 -198.910262 
L 214.644418 -201.813501 
L 214.490272 -204.71674 
L 214.320232 -207.61998 
L 214.134117 -210.523219 
L 213.932015 -213.426458 
L 213.714313 -216.329698 
L 213.481725 -219.232937 
L 213.235311 -222.136176 
L 212.976485 -225.039416 
L 212.707013 -227.942655 
L 212.429004 -230.845894 
L 212.144883 -233.749134 
L 211.857355 -236.652373 
L 211.569362 -239.555612 
L 211.284021 -242.458852 
L 211.004558 -245.362091 
L 210.734239 -248.26533 
L 210.476288 -251.16857 
L 210.233811 -254.071809 
L 210.009719 -256.975048 
L 209.806651 -259.878288 
L 209.626916 -262.781527 
L 209.472428 -265.684766 
L 209.34467 -268.588006 
L 209.244657 -271.491245 
L 209.172922 -274.394484 
L 209.129512 -277.297724 
L 209.114005 -280.200963 
L 209.125531 -283.104202 
L 209.162808 -286.007442 
L 209.224196 -288.910681 
L 209.307743 -291.81392 
L 209.411252 -294.71716 
L 209.532338 -297.620399 
L 209.668493 -300.523639 
L 209.817143 -303.426878 
L 209.975708 -306.330117 
L 210.141651 -309.233357 
L 210.312518 -312.136596 
L 210.485982 -315.039835 
L 210.659867 -317.943075 
L 210.832173 -320.846314 
L 211.00109 -323.749553 
L 211.16501 -326.652793 
L 211.32253 -329.556032 
L 211.472456 -332.459271 
L 211.613799 -335.362511 
L 211.745771 -338.26575 
L 211.867782 -341.168989 
L 211.979432 -344.072229 
L 212.080509 -346.975468 
L 212.170979 -349.878707 
L 212.250983 -352.781947 
L 212.320828 -355.685186 
L 212.380984 -358.588425 
L 212.432077 -361.491665 
L 212.474875 -364.394904 
L 212.510282 -367.298143 
L 212.539324 -370.201383 
L 212.563133 -373.104622 
L 212.58293 -376.007861 
L 212.600003 -378.911101 
L 212.61568 -381.81434 
L 212.631311 -384.717579 
L 212.64823 -387.620819 
L 212.667733 -390.524058 
L 212.691045 -393.427297 
L 212.719289 -396.330537 
L 212.753464 -399.233776 
L 212.794413 -402.137015 
L 212.842807 -405.040255 
L 212.899124 -407.943494 
L 212.963641 -410.846733 
L 213.036423 -413.749973 
L 213.117327 -416.653212 
L 213.20601 -419.556452 
L 213.301933 -422.459691 
L 213.40439 -425.36293 
L 213.512521 -428.26617 
L 213.625345 -431.169409 
L 213.741788 -434.072648 
L 213.860713 -436.975888 
L 213.980954 -439.879127 
L 214.101348 -442.782366 
L 214.220762 -445.685606 
L 214.338124 -448.588845 
L 214.452445 -451.492084 
L 214.562837 -454.395324 
L 214.66853 -457.298563 
L 214.768883 -460.201802 
L 214.863388 -463.105042 
L 214.951671 -466.008281 
L 215.03349 -468.91152 
L 215.108726 -471.81476 
L 215.177378 -474.717999 
L 215.239544 -477.621238 
L 215.295416 -480.524478 
L 215.345255 -483.427717 
L 215.933316 -483.427717 
L 215.933316 -483.427717 
L 215.983156 -480.524478 
L 216.039027 -477.621238 
L 216.101194 -474.717999 
L 216.169845 -471.81476 
L 216.245082 -468.91152 
L 216.3269 -466.008281 
L 216.415183 -463.105042 
L 216.509688 -460.201802 
L 216.610041 -457.298563 
L 216.715735 -454.395324 
L 216.826126 -451.492084 
L 216.940447 -448.588845 
L 217.057809 -445.685606 
L 217.177224 -442.782366 
L 217.297617 -439.879127 
L 217.417858 -436.975888 
L 217.536783 -434.072648 
L 217.653226 -431.169409 
L 217.76605 -428.26617 
L 217.874182 -425.36293 
L 217.976638 -422.459691 
L 218.072562 -419.556452 
L 218.161244 -416.653212 
L 218.242149 -413.749973 
L 218.314931 -410.846733 
L 218.379447 -407.943494 
L 218.435765 -405.040255 
L 218.484158 -402.137015 
L 218.525108 -399.233776 
L 218.559282 -396.330537 
L 218.587527 -393.427297 
L 218.610838 -390.524058 
L 218.630341 -387.620819 
L 218.647261 -384.717579 
L 218.662891 -381.81434 
L 218.678569 -378.911101 
L 218.695641 -376.007861 
L 218.715438 -373.104622 
L 218.739248 -370.201383 
L 218.76829 -367.298143 
L 218.803697 -364.394904 
L 218.846494 -361.491665 
L 218.897587 -358.588425 
L 218.957744 -355.685186 
L 219.027589 -352.781947 
L 219.107592 -349.878707 
L 219.198062 -346.975468 
L 219.299139 -344.072229 
L 219.41079 -341.168989 
L 219.5328 -338.26575 
L 219.664772 -335.362511 
L 219.806115 -332.459271 
L 219.956041 -329.556032 
L 220.113562 -326.652793 
L 220.277481 -323.749553 
L 220.446398 -320.846314 
L 220.618704 -317.943075 
L 220.792589 -315.039835 
L 220.966053 -312.136596 
L 221.136921 -309.233357 
L 221.302863 -306.330117 
L 221.461429 -303.426878 
L 221.610079 -300.523639 
L 221.746233 -297.620399 
L 221.86732 -294.71716 
L 221.970829 -291.81392 
L 222.054376 -288.910681 
L 222.115763 -286.007442 
L 222.153041 -283.104202 
L 222.164566 -280.200963 
L 222.149059 -277.297724 
L 222.10565 -274.394484 
L 222.033914 -271.491245 
L 221.933901 -268.588006 
L 221.806143 -265.684766 
L 221.651656 -262.781527 
L 221.47192 -259.878288 
L 221.268853 -256.975048 
L 221.04476 -254.071809 
L 220.802283 -251.16857 
L 220.544332 -248.26533 
L 220.274013 -245.362091 
L 219.994551 -242.458852 
L 219.709209 -239.555612 
L 219.421216 -236.652373 
L 219.133689 -233.749134 
L 218.849567 -230.845894 
L 218.571558 -227.942655 
L 218.302086 -225.039416 
L 218.04326 -222.136176 
L 217.796847 -219.232937 
L 217.564259 -216.329698 
L 217.346557 -213.426458 
L 217.144454 -210.523219 
L 216.958339 -207.61998 
L 216.7883 -204.71674 
L 216.634153 -201.813501 
L 216.495484 -198.910262 
L 216.371682 -196.007022 
z
" style="stroke: #1a1a1a; stroke-width: 1.5"/>
    </defs>
    <g clip-path="url(#pc50a272b2f)">
     <use xlink:href="#m5c35bb8742" x="0" y="576" style="fill: #ffffff; stroke: #1a1a1a; stroke-width: 1.5"/>
    </g>
   </g>
   <g id="PolyCollection_3">
    <defs>
     <path id="m1e9acd5a47" d="M 310.882937 -161.90535 
L 309.821349 -161.90535 
L 309.721697 -164.553026 
L 309.60876 -167.200702 
L 309.481907 -169.848379 
L 309.340699 -172.496055 
L 309.184937 -175.143732 
L 309.014687 -177.791408 
L 308.830315 -180.439084 
L 308.632504 -183.086761 
L 308.422263 -185.734437 
L 308.200927 -188.382114 
L 307.970135 -191.02979 
L 307.731803 -193.677467 
L 307.488078 -196.325143 
L 307.241284 -198.972819 
L 306.993854 -201.620496 
L 306.748258 -204.268172 
L 306.506926 -206.915849 
L 306.272172 -209.563525 
L 306.046122 -212.211201 
L 305.830651 -214.858878 
L 305.62733 -217.506554 
L 305.437392 -220.154231 
L 305.261708 -222.801907 
L 305.100785 -225.449583 
L 304.954779 -228.09726 
L 304.823526 -230.744936 
L 304.70658 -233.392613 
L 304.603266 -236.040289 
L 304.512738 -238.687965 
L 304.434034 -241.335642 
L 304.366135 -243.983318 
L 304.308015 -246.630995 
L 304.258683 -249.278671 
L 304.217219 -251.926348 
L 304.182792 -254.574024 
L 304.154677 -257.2217 
L 304.132257 -259.869377 
L 304.11502 -262.517053 
L 304.102555 -265.16473 
L 304.09454 -267.812406 
L 304.090736 -270.460082 
L 304.090978 -273.107759 
L 304.095179 -275.755435 
L 304.103325 -278.403112 
L 304.115484 -281.050788 
L 304.131809 -283.698464 
L 304.152551 -286.346141 
L 304.178059 -288.993817 
L 304.208782 -291.641494 
L 304.245268 -294.28917 
L 304.288147 -296.936846 
L 304.338113 -299.584523 
L 304.395893 -302.232199 
L 304.462215 -304.879876 
L 304.537766 -307.527552 
L 304.623146 -310.175228 
L 304.71883 -312.822905 
L 304.82513 -315.470581 
L 304.942156 -318.118258 
L 305.069804 -320.765934 
L 305.207739 -323.413611 
L 305.355396 -326.061287 
L 305.511997 -328.708963 
L 305.676577 -331.35664 
L 305.848014 -334.004316 
L 306.025075 -336.651993 
L 306.206463 -339.299669 
L 306.39086 -341.947345 
L 306.576975 -344.595022 
L 306.763583 -347.242698 
L 306.949555 -349.890375 
L 307.133884 -352.538051 
L 307.3157 -355.185727 
L 307.494269 -357.833404 
L 307.668996 -360.48108 
L 307.839408 -363.128757 
L 308.005138 -365.776433 
L 308.165908 -368.424109 
L 308.321503 -371.071786 
L 308.471754 -373.719462 
L 308.616517 -376.367139 
L 308.755658 -379.014815 
L 308.889046 -381.662492 
L 309.016545 -384.310168 
L 309.138013 -386.957844 
L 309.253306 -389.605521 
L 309.362286 -392.253197 
L 309.464827 -394.900874 
L 309.560827 -397.54855 
L 309.650217 -400.196226 
L 309.73297 -402.843903 
L 309.80911 -405.491579 
L 309.878713 -408.139256 
L 309.941912 -410.786932 
L 309.998897 -413.434608 
L 310.04991 -416.082285 
L 310.095241 -418.729961 
L 310.135221 -421.377638 
L 310.170211 -424.025314 
L 310.534074 -424.025314 
L 310.534074 -424.025314 
L 310.569065 -421.377638 
L 310.609045 -418.729961 
L 310.654376 -416.082285 
L 310.705389 -413.434608 
L 310.762374 -410.786932 
L 310.825573 -408.139256 
L 310.895175 -405.491579 
L 310.971315 -402.843903 
L 311.054069 -400.196226 
L 311.143459 -397.54855 
L 311.239459 -394.900874 
L 311.342 -392.253197 
L 311.45098 -389.605521 
L 311.566273 -386.957844 
L 311.687741 -384.310168 
L 311.815239 -381.662492 
L 311.948628 -379.014815 
L 312.087769 -376.367139 
L 312.232531 -373.719462 
L 312.382782 -371.071786 
L 312.538378 -368.424109 
L 312.699148 -365.776433 
L 312.864878 -363.128757 
L 313.035289 -360.48108 
L 313.210016 -357.833404 
L 313.388586 -355.185727 
L 313.570401 -352.538051 
L 313.754731 -349.890375 
L 313.940703 -347.242698 
L 314.127311 -344.595022 
L 314.313426 -341.947345 
L 314.497823 -339.299669 
L 314.679211 -336.651993 
L 314.856272 -334.004316 
L 315.027709 -331.35664 
L 315.192288 -328.708963 
L 315.34889 -326.061287 
L 315.496547 -323.413611 
L 315.634481 -320.765934 
L 315.76213 -318.118258 
L 315.879156 -315.470581 
L 315.985455 -312.822905 
L 316.08114 -310.175228 
L 316.16652 -307.527552 
L 316.24207 -304.879876 
L 316.308393 -302.232199 
L 316.366173 -299.584523 
L 316.416138 -296.936846 
L 316.459017 -294.28917 
L 316.495504 -291.641494 
L 316.526227 -288.993817 
L 316.551735 -286.346141 
L 316.572476 -283.698464 
L 316.588802 -281.050788 
L 316.60096 -278.403112 
L 316.609107 -275.755435 
L 316.613308 -273.107759 
L 316.61355 -270.460082 
L 316.609746 -267.812406 
L 316.601731 -265.16473 
L 316.589266 -262.517053 
L 316.572029 -259.869377 
L 316.549609 -257.2217 
L 316.521494 -254.574024 
L 316.487067 -251.926348 
L 316.445602 -249.278671 
L 316.396271 -246.630995 
L 316.338151 -243.983318 
L 316.270251 -241.335642 
L 316.191547 -238.687965 
L 316.101019 -236.040289 
L 315.997706 -233.392613 
L 315.88076 -230.744936 
L 315.749506 -228.09726 
L 315.603501 -225.449583 
L 315.442578 -222.801907 
L 315.266893 -220.154231 
L 315.076955 -217.506554 
L 314.873635 -214.858878 
L 314.658164 -212.211201 
L 314.432114 -209.563525 
L 314.19736 -206.915849 
L 313.956028 -204.268172 
L 313.710432 -201.620496 
L 313.463002 -198.972819 
L 313.216208 -196.325143 
L 312.972483 -193.677467 
L 312.734151 -191.02979 
L 312.503358 -188.382114 
L 312.282022 -185.734437 
L 312.071782 -183.086761 
L 311.873971 -180.439084 
L 311.689599 -177.791408 
L 311.519349 -175.143732 
L 311.363586 -172.496055 
L 311.222379 -169.848379 
L 311.095525 -167.200702 
L 310.982588 -164.553026 
L 310.882937 -161.90535 
z
" style="stroke: #1a1a1a; stroke-width: 1.5"/>
    </defs>
    <g clip-path="url(#pc50a272b2f)">
     <use xlink:href="#m1e9acd5a47" x="0" y="576" style="fill: #ffffff; stroke: #1a1a1a; stroke-width: 1.5"/>
    </g>
   </g>
   <g id="PolyCollection_4">
    <defs>
     <path id="m3b8098efde" d="M 405.685457 -124.427684 
L 404.444543 -124.427684 
L 404.342866 -126.415757 
L 404.229396 -128.403829 
L 404.10368 -130.391902 
L 403.965417 -132.379974 
L 403.81448 -134.368047 
L 403.650944 -136.356119 
L 403.475103 -138.344192 
L 403.28749 -140.332265 
L 403.088885 -142.320337 
L 402.880317 -144.30841 
L 402.66306 -146.296482 
L 402.43862 -148.284555 
L 402.208707 -150.272627 
L 401.97521 -152.2607 
L 401.740153 -154.248772 
L 401.505646 -156.236845 
L 401.273836 -158.224917 
L 401.046845 -160.21299 
L 400.826714 -162.201063 
L 400.615343 -164.189135 
L 400.414435 -166.177208 
L 400.225446 -168.16528 
L 400.049543 -170.153353 
L 399.887574 -172.141425 
L 399.740045 -174.129498 
L 399.607113 -176.11757 
L 399.488594 -178.105643 
L 399.38398 -180.093715 
L 399.292475 -182.081788 
L 399.213031 -184.069861 
L 399.144404 -186.057933 
L 399.085212 -188.046006 
L 399.03399 -190.034078 
L 398.989258 -192.022151 
L 398.949573 -194.010223 
L 398.91358 -195.998296 
L 398.88006 -197.986368 
L 398.847955 -199.974441 
L 398.816395 -201.962513 
L 398.784702 -203.950586 
L 398.752386 -205.938659 
L 398.719131 -207.926731 
L 398.684772 -209.914804 
L 398.64926 -211.902876 
L 398.612629 -213.890949 
L 398.574961 -215.879021 
L 398.536347 -217.867094 
L 398.496863 -219.855166 
L 398.456546 -221.843239 
L 398.415381 -223.831311 
L 398.373303 -225.819384 
L 398.330203 -227.807457 
L 398.285953 -229.795529 
L 398.240432 -231.783602 
L 398.19357 -233.771674 
L 398.145384 -235.759747 
L 398.096028 -237.747819 
L 398.045836 -239.735892 
L 397.995355 -241.723964 
L 397.94538 -243.712037 
L 397.896971 -245.700109 
L 397.851453 -247.688182 
L 397.810412 -249.676255 
L 397.775667 -251.664327 
L 397.749227 -253.6524 
L 397.733238 -255.640472 
L 397.729914 -257.628545 
L 397.741465 -259.616617 
L 397.770012 -261.60469 
L 397.817508 -263.592762 
L 397.885653 -265.580835 
L 397.975824 -267.568907 
L 398.089009 -269.55698 
L 398.225757 -271.545053 
L 398.386143 -273.533125 
L 398.569749 -275.521198 
L 398.775662 -277.50927 
L 399.002495 -279.497343 
L 399.24842 -281.485415 
L 399.511217 -283.473488 
L 399.788338 -285.46156 
L 400.076976 -287.449633 
L 400.374148 -289.437705 
L 400.676773 -291.425778 
L 400.981756 -293.413851 
L 401.286067 -295.401923 
L 401.58681 -297.389996 
L 401.881291 -299.378068 
L 402.167068 -301.366141 
L 402.441995 -303.354213 
L 402.704252 -305.342286 
L 402.95236 -307.330358 
L 403.185189 -309.318431 
L 403.401953 -311.306503 
L 403.602192 -313.294576 
L 403.785755 -315.282648 
L 403.952765 -317.270721 
L 404.103587 -319.258794 
L 404.238795 -321.246866 
L 405.891205 -321.246866 
L 405.891205 -321.246866 
L 406.026413 -319.258794 
L 406.177235 -317.270721 
L 406.344245 -315.282648 
L 406.527808 -313.294576 
L 406.728047 -311.306503 
L 406.944811 -309.318431 
L 407.17764 -307.330358 
L 407.425748 -305.342286 
L 407.688005 -303.354213 
L 407.962932 -301.366141 
L 408.248709 -299.378068 
L 408.54319 -297.389996 
L 408.843933 -295.401923 
L 409.148244 -293.413851 
L 409.453227 -291.425778 
L 409.755852 -289.437705 
L 410.053024 -287.449633 
L 410.341662 -285.46156 
L 410.618783 -283.473488 
L 410.88158 -281.485415 
L 411.127505 -279.497343 
L 411.354338 -277.50927 
L 411.560251 -275.521198 
L 411.743857 -273.533125 
L 411.904243 -271.545053 
L 412.040991 -269.55698 
L 412.154176 -267.568907 
L 412.244347 -265.580835 
L 412.312492 -263.592762 
L 412.359988 -261.60469 
L 412.388535 -259.616617 
L 412.400086 -257.628545 
L 412.396762 -255.640472 
L 412.380773 -253.6524 
L 412.354333 -251.664327 
L 412.319588 -249.676255 
L 412.278547 -247.688182 
L 412.233029 -245.700109 
L 412.18462 -243.712037 
L 412.134645 -241.723964 
L 412.084164 -239.735892 
L 412.033972 -237.747819 
L 411.984616 -235.759747 
L 411.93643 -233.771674 
L 411.889568 -231.783602 
L 411.844047 -229.795529 
L 411.799797 -227.807457 
L 411.756697 -225.819384 
L 411.714619 -223.831311 
L 411.673454 -221.843239 
L 411.633137 -219.855166 
L 411.593653 -217.867094 
L 411.555039 -215.879021 
L 411.517371 -213.890949 
L 411.48074 -211.902876 
L 411.445228 -209.914804 
L 411.410869 -207.926731 
L 411.377614 -205.938659 
L 411.345298 -203.950586 
L 411.313605 -201.962513 
L 411.282045 -199.974441 
L 411.24994 -197.986368 
L 411.21642 -195.998296 
L 411.180427 -194.010223 
L 411.140742 -192.022151 
L 411.09601 -190.034078 
L 411.044788 -188.046006 
L 410.985596 -186.057933 
L 410.916969 -184.069861 
L 410.837525 -182.081788 
L 410.74602 -180.093715 
L 410.641406 -178.105643 
L 410.522887 -176.11757 
L 410.389955 -174.129498 
L 410.242426 -172.141425 
L 410.080457 -170.153353 
L 409.904554 -168.16528 
L 409.715565 -166.177208 
L 409.514657 -164.189135 
L 409.303286 -162.201063 
L 409.083155 -160.21299 
L 408.856164 -158.224917 
L 408.624354 -156.236845 
L 408.389847 -154.248772 
L 408.15479 -152.2607 
L 407.921293 -150.272627 
L 407.69138 -148.284555 
L 407.46694 -146.296482 
L 407.249683 -144.30841 
L 407.041115 -142.320337 
L 406.84251 -140.332265 
L 406.654897 -138.344192 
L 406.479056 -136.356119 
L 406.31552 -134.368047 
L 406.164583 -132.379974 
L 406.02632 -130.391902 
L 405.900604 -128.403829 
L 405.787134 -126.415757 
L 405.685457 -124.427684 
z
" style="stroke: #1a1a1a; stroke-width: 1.5"/>
    </defs>
    <g clip-path="url(#pc50a272b2f)">
     <use xlink:href="#m3b8098efde" x="0" y="576" style="fill: #ffffff; stroke: #1a1a1a; stroke-width: 1.5"/>
    </g>
   </g>
   <g id="PolyCollection_5">
    <defs>
     <path id="mdae370ae6b" d="M 501.87106 -145.619275 
L 497.684654 -145.619275 
L 497.369464 -146.706991 
L 497.020903 -147.794708 
L 496.637943 -148.882425 
L 496.219971 -149.970142 
L 495.766856 -151.057859 
L 495.279024 -152.145575 
L 494.757511 -153.233292 
L 494.204019 -154.321009 
L 493.620954 -155.408726 
L 493.011455 -156.496443 
L 492.379396 -157.584159 
L 491.729381 -158.671876 
L 491.06671 -159.759593 
L 490.397327 -160.84731 
L 489.727745 -161.935027 
L 489.064951 -163.022743 
L 488.416286 -164.11046 
L 487.789314 -165.198177 
L 487.191673 -166.285894 
L 486.630913 -167.373611 
L 486.114327 -168.461327 
L 485.648785 -169.549044 
L 485.240562 -170.636761 
L 484.895182 -171.724478 
L 484.61727 -172.812195 
L 484.410425 -173.899911 
L 484.277113 -174.987628 
L 484.218584 -176.075345 
L 484.234828 -177.163062 
L 484.324544 -178.250779 
L 484.485159 -179.338495 
L 484.712866 -180.426212 
L 485.002695 -181.513929 
L 485.348619 -182.601646 
L 485.743672 -183.689363 
L 486.180104 -184.777079 
L 486.649538 -185.864796 
L 487.143156 -186.952513 
L 487.651874 -188.04023 
L 488.16654 -189.127947 
L 488.678113 -190.215663 
L 489.177846 -191.30338 
L 489.657456 -192.391097 
L 490.109283 -193.478814 
L 490.526422 -194.566531 
L 490.902854 -195.654247 
L 491.233535 -196.741964 
L 491.514482 -197.829681 
L 491.742823 -198.917398 
L 491.916832 -200.005115 
L 492.035935 -201.092831 
L 492.100696 -202.180548 
L 492.112786 -203.268265 
L 492.074926 -204.355982 
L 491.990812 -205.443699 
L 491.865024 -206.531415 
L 491.702924 -207.619132 
L 491.510529 -208.706849 
L 491.294385 -209.794566 
L 491.061428 -210.882283 
L 490.818836 -211.969999 
L 490.573879 -213.057716 
L 490.333777 -214.145433 
L 490.105544 -215.23315 
L 489.895856 -216.320867 
L 489.710916 -217.408584 
L 489.556335 -218.4963 
L 489.437029 -219.584017 
L 489.35713 -220.671734 
L 489.319917 -221.759451 
L 489.327772 -222.847168 
L 489.382152 -223.934884 
L 489.483585 -225.022601 
L 489.631691 -226.110318 
L 489.825219 -227.198035 
L 490.062108 -228.285752 
L 490.339562 -229.373468 
L 490.654142 -230.461185 
L 491.001867 -231.548902 
L 491.378331 -232.636619 
L 491.778809 -233.724336 
L 492.198386 -234.812052 
L 492.632065 -235.899769 
L 493.074878 -236.987486 
L 493.521992 -238.075203 
L 493.968801 -239.16292 
L 494.411 -240.250636 
L 494.844659 -241.338353 
L 495.266268 -242.42607 
L 495.672777 -243.513787 
L 496.061617 -244.601504 
L 496.430708 -245.68922 
L 496.778454 -246.776937 
L 497.103727 -247.864654 
L 497.40584 -248.952371 
L 497.684516 -250.040088 
L 497.939842 -251.127804 
L 498.172229 -252.215521 
L 498.382366 -253.303238 
L 501.173348 -253.303238 
L 501.173348 -253.303238 
L 501.383485 -252.215521 
L 501.615873 -251.127804 
L 501.871199 -250.040088 
L 502.149874 -248.952371 
L 502.451987 -247.864654 
L 502.77726 -246.776937 
L 503.125006 -245.68922 
L 503.494097 -244.601504 
L 503.882937 -243.513787 
L 504.289446 -242.42607 
L 504.711055 -241.338353 
L 505.144714 -240.250636 
L 505.586913 -239.16292 
L 506.033722 -238.075203 
L 506.480837 -236.987486 
L 506.92365 -235.899769 
L 507.357328 -234.812052 
L 507.776905 -233.724336 
L 508.177384 -232.636619 
L 508.553847 -231.548902 
L 508.901573 -230.461185 
L 509.216152 -229.373468 
L 509.493606 -228.285752 
L 509.730495 -227.198035 
L 509.924023 -226.110318 
L 510.072129 -225.022601 
L 510.173562 -223.934884 
L 510.227942 -222.847168 
L 510.235797 -221.759451 
L 510.198585 -220.671734 
L 510.118685 -219.584017 
L 509.999379 -218.4963 
L 509.844799 -217.408584 
L 509.659859 -216.320867 
L 509.450171 -215.23315 
L 509.221938 -214.145433 
L 508.981835 -213.057716 
L 508.736879 -211.969999 
L 508.494286 -210.882283 
L 508.261329 -209.794566 
L 508.045186 -208.706849 
L 507.85279 -207.619132 
L 507.69069 -206.531415 
L 507.564903 -205.443699 
L 507.480788 -204.355982 
L 507.442928 -203.268265 
L 507.455019 -202.180548 
L 507.51978 -201.092831 
L 507.638882 -200.005115 
L 507.812891 -198.917398 
L 508.041233 -197.829681 
L 508.32218 -196.741964 
L 508.652861 -195.654247 
L 509.029292 -194.566531 
L 509.446432 -193.478814 
L 509.898258 -192.391097 
L 510.377869 -191.30338 
L 510.877601 -190.215663 
L 511.389174 -189.127947 
L 511.90384 -188.04023 
L 512.412558 -186.952513 
L 512.906176 -185.864796 
L 513.375611 -184.777079 
L 513.812042 -183.689363 
L 514.207095 -182.601646 
L 514.553019 -181.513929 
L 514.842848 -180.426212 
L 515.070555 -179.338495 
L 515.23117 -178.250779 
L 515.320887 -177.163062 
L 515.33713 -176.075345 
L 515.278602 -174.987628 
L 515.145289 -173.899911 
L 514.938444 -172.812195 
L 514.660532 -171.724478 
L 514.315152 -170.636761 
L 513.906929 -169.549044 
L 513.441387 -168.461327 
L 512.924801 -167.373611 
L 512.364041 -166.285894 
L 511.7664 -165.198177 
L 511.139429 -164.11046 
L 510.490763 -163.022743 
L 509.827969 -161.935027 
L 509.158387 -160.84731 
L 508.489005 -159.759593 
L 507.826334 -158.671876 
L 507.176319 -157.584159 
L 506.544259 -156.496443 
L 505.93476 -155.408726 
L 505.351696 -154.321009 
L 504.798204 -153.233292 
L 504.27669 -152.145575 
L 503.788858 -151.057859 
L 503.335744 -149.970142 
L 502.917771 -148.882425 
L 502.534811 -147.794708 
L 502.186251 -146.706991 
L 501.87106 -145.619275 
z
" style="stroke: #1a1a1a; stroke-width: 1.5"/>
    </defs>
    <g clip-path="url(#pc50a272b2f)">
     <use xlink:href="#mdae370ae6b" x="0" y="576" style="fill: #ffffff; stroke: #1a1a1a; stroke-width: 1.5"/>
    </g>
   </g>
   <g id="PolyCollection_6">
    <defs>
     <path id="m4313ddcabf" d="M 595.345742 -92.020168 
L 593.635686 -92.020168 
L 593.469041 -93.718452 
L 593.279946 -95.416736 
L 593.067624 -97.115021 
L 592.831774 -98.813305 
L 592.572651 -100.511589 
L 592.291147 -102.209873 
L 591.988848 -103.908158 
L 591.668068 -105.606442 
L 591.331852 -107.304726 
L 590.983944 -109.00301 
L 590.628719 -110.701295 
L 590.271067 -112.399579 
L 589.916249 -114.097863 
L 589.569706 -115.796147 
L 589.236845 -117.494431 
L 588.922802 -119.192716 
L 588.63219 -120.891 
L 588.368852 -122.589284 
L 588.135635 -124.287568 
L 587.93418 -125.985853 
L 587.76477 -127.684137 
L 587.626224 -129.382421 
L 587.515859 -131.080705 
L 587.429529 -132.77899 
L 587.361737 -134.477274 
L 587.305822 -136.175558 
L 587.254219 -137.873842 
L 587.198786 -139.572126 
L 587.131173 -141.270411 
L 587.043231 -142.968695 
L 586.927433 -144.666979 
L 586.777289 -146.365263 
L 586.587735 -148.063548 
L 586.355476 -149.761832 
L 586.079252 -151.460116 
L 585.760032 -153.1584 
L 585.4011 -154.856685 
L 585.008038 -156.554969 
L 584.588597 -158.253253 
L 584.152464 -159.951537 
L 583.710924 -161.649821 
L 583.276438 -163.348106 
L 582.862154 -165.04639 
L 582.481374 -166.744674 
L 582.146996 -168.442958 
L 581.870974 -170.141243 
L 581.663802 -171.839527 
L 581.534076 -173.537811 
L 581.48812 -175.236095 
L 581.529735 -176.93438 
L 581.660046 -178.632664 
L 581.877485 -180.330948 
L 582.177881 -182.029232 
L 582.554675 -183.727516 
L 582.99923 -185.425801 
L 583.501221 -187.124085 
L 584.049089 -188.822369 
L 584.630526 -190.520653 
L 585.232975 -192.218938 
L 585.844104 -193.917222 
L 586.452256 -195.615506 
L 587.046829 -197.31379 
L 587.618588 -199.012075 
L 588.159902 -200.710359 
L 588.664882 -202.408643 
L 589.129438 -204.106927 
L 589.551253 -205.805211 
L 589.929684 -207.503496 
L 590.265594 -209.20178 
L 590.561146 -210.900064 
L 590.81955 -212.598348 
L 591.044802 -214.296633 
L 591.241413 -215.994917 
L 591.414145 -217.693201 
L 591.567776 -219.391485 
L 591.706883 -221.08977 
L 591.835667 -222.788054 
L 591.957822 -224.486338 
L 592.076435 -226.184622 
L 592.19394 -227.882906 
L 592.312097 -229.581191 
L 592.432018 -231.279475 
L 592.554215 -232.977759 
L 592.678668 -234.676043 
L 592.804917 -236.374328 
L 592.932157 -238.072612 
L 593.059338 -239.770896 
L 593.185261 -241.46918 
L 593.308674 -243.167465 
L 593.428344 -244.865749 
L 593.543128 -246.564033 
L 593.652025 -248.262317 
L 593.75421 -249.960601 
L 593.849058 -251.658886 
L 593.936149 -253.35717 
L 594.015268 -255.055454 
L 594.086391 -256.753738 
L 594.149664 -258.452023 
L 594.205377 -260.150307 
L 594.776052 -260.150307 
L 594.776052 -260.150307 
L 594.831765 -258.452023 
L 594.895038 -256.753738 
L 594.966161 -255.055454 
L 595.04528 -253.35717 
L 595.132371 -251.658886 
L 595.227218 -249.960601 
L 595.329403 -248.262317 
L 595.438301 -246.564033 
L 595.553085 -244.865749 
L 595.672755 -243.167465 
L 595.796167 -241.46918 
L 595.922091 -239.770896 
L 596.049272 -238.072612 
L 596.176512 -236.374328 
L 596.302761 -234.676043 
L 596.427214 -232.977759 
L 596.54941 -231.279475 
L 596.669332 -229.581191 
L 596.787489 -227.882906 
L 596.904993 -226.184622 
L 597.023607 -224.486338 
L 597.145761 -222.788054 
L 597.274546 -221.08977 
L 597.413652 -219.391485 
L 597.567283 -217.693201 
L 597.740016 -215.994917 
L 597.936626 -214.296633 
L 598.161879 -212.598348 
L 598.420283 -210.900064 
L 598.715834 -209.20178 
L 599.051745 -207.503496 
L 599.430175 -205.805211 
L 599.851991 -204.106927 
L 600.316547 -202.408643 
L 600.821526 -200.710359 
L 601.362841 -199.012075 
L 601.9346 -197.31379 
L 602.529172 -195.615506 
L 603.137324 -193.917222 
L 603.748454 -192.218938 
L 604.350902 -190.520653 
L 604.93234 -188.822369 
L 605.480207 -187.124085 
L 605.982198 -185.425801 
L 606.426753 -183.727516 
L 606.803548 -182.029232 
L 607.103944 -180.330948 
L 607.321382 -178.632664 
L 607.451694 -176.93438 
L 607.493309 -175.236095 
L 607.447353 -173.537811 
L 607.317626 -171.839527 
L 607.110455 -170.141243 
L 606.834432 -168.442958 
L 606.500054 -166.744674 
L 606.119274 -165.04639 
L 605.704991 -163.348106 
L 605.270505 -161.649821 
L 604.828964 -159.951537 
L 604.392831 -158.253253 
L 603.97339 -156.554969 
L 603.580328 -154.856685 
L 603.221396 -153.1584 
L 602.902177 -151.460116 
L 602.625953 -149.761832 
L 602.393693 -148.063548 
L 602.20414 -146.365263 
L 602.053995 -144.666979 
L 601.938197 -142.968695 
L 601.850255 -141.270411 
L 601.782643 -139.572126 
L 601.72721 -137.873842 
L 601.675607 -136.175558 
L 601.619691 -134.477274 
L 601.551899 -132.77899 
L 601.46557 -131.080705 
L 601.355205 -129.382421 
L 601.216658 -127.684137 
L 601.047248 -125.985853 
L 600.845794 -124.287568 
L 600.612576 -122.589284 
L 600.349239 -120.891 
L 600.058626 -119.192716 
L 599.744583 -117.494431 
L 599.411723 -115.796147 
L 599.06518 -114.097863 
L 598.710362 -112.399579 
L 598.35271 -110.701295 
L 597.997484 -109.00301 
L 597.649577 -107.304726 
L 597.313361 -105.606442 
L 596.992581 -103.908158 
L 596.690282 -102.209873 
L 596.408778 -100.511589 
L 596.149655 -98.813305 
L 595.913804 -97.115021 
L 595.701483 -95.416736 
L 595.512387 -93.718452 
L 595.345742 -92.020168 
z
" style="stroke: #1a1a1a; stroke-width: 1.5"/>
    </defs>
    <g clip-path="url(#pc50a272b2f)">
     <use xlink:href="#m4313ddcabf" x="0" y="576" style="fill: #ffffff; stroke: #1a1a1a; stroke-width: 1.5"/>
    </g>
   </g>
   <g id="PolyCollection_7">
    <defs>
     <path id="mf3d8e62a6d" d="M 694.330784 -110.676684 
L 684.076359 -110.676684 
L 683.07797 -111.525826 
L 681.945562 -112.374968 
L 680.674778 -113.22411 
L 679.264198 -114.073252 
L 677.715908 -114.922394 
L 676.035999 -115.771536 
L 674.234975 -116.620679 
L 672.32803 -117.469821 
L 670.335145 -118.318963 
L 668.281005 -119.168105 
L 666.194688 -120.017247 
L 664.109134 -120.866389 
L 662.060395 -121.715531 
L 660.086666 -122.564673 
L 658.227163 -123.413816 
L 656.520849 -124.262958 
L 655.005099 -125.1121 
L 653.714348 -125.961242 
L 652.678791 -126.810384 
L 651.923215 -127.659526 
L 651.466011 -128.508668 
L 651.318429 -129.35781 
L 651.484119 -130.206952 
L 651.95898 -131.056095 
L 652.731331 -131.905237 
L 653.782383 -132.754379 
L 655.087002 -133.603521 
L 656.614705 -134.452663 
L 658.330842 -135.301805 
L 660.197895 -136.150947 
L 662.17683 -137.000089 
L 664.228434 -137.849231 
L 666.314568 -138.698374 
L 668.399291 -139.547516 
L 670.449805 -140.396658 
L 672.437191 -141.2458 
L 674.336925 -142.094942 
L 676.129161 -142.944084 
L 677.798808 -143.793226 
L 679.335405 -144.642368 
L 680.732826 -145.491511 
L 681.988868 -146.340653 
L 683.104722 -147.189795 
L 684.084408 -148.038937 
L 684.93417 -148.888079 
L 685.661891 -149.737221 
L 686.276534 -150.586363 
L 686.787642 -151.435505 
L 687.20491 -152.284647 
L 687.537827 -153.13379 
L 687.795406 -153.982932 
L 687.985994 -154.832074 
L 688.11715 -155.681216 
L 688.195602 -156.530358 
L 688.227257 -157.3795 
L 688.217257 -158.228642 
L 688.170077 -159.077784 
L 688.089647 -159.926926 
L 687.97949 -160.776069 
L 687.842865 -161.625211 
L 687.682907 -162.474353 
L 687.502749 -163.323495 
L 687.305638 -164.172637 
L 687.095008 -165.021779 
L 686.874542 -165.870921 
L 686.648188 -166.720063 
L 686.420148 -167.569206 
L 686.194834 -168.418348 
L 685.976797 -169.26749 
L 685.770623 -170.116632 
L 685.580817 -170.965774 
L 685.411668 -171.814916 
L 685.267112 -172.664058 
L 685.150597 -173.5132 
L 685.064958 -174.362342 
L 685.012312 -175.211485 
L 684.993978 -176.060627 
L 685.010425 -176.909769 
L 685.061257 -177.758911 
L 685.14523 -178.608053 
L 685.260304 -179.457195 
L 685.403729 -180.306337 
L 685.57215 -181.155479 
L 685.761744 -182.004621 
L 685.968357 -182.853764 
L 686.187661 -183.702906 
L 686.4153 -184.552048 
L 686.647028 -185.40119 
L 686.878841 -186.250332 
L 687.107079 -187.099474 
L 687.328511 -187.948616 
L 687.540394 -188.797758 
L 687.740508 -189.646901 
L 687.927164 -190.496043 
L 688.099197 -191.345185 
L 688.255928 -192.194327 
L 688.397126 -193.043469 
L 688.522949 -193.892611 
L 688.633881 -194.741753 
L 689.773262 -194.741753 
L 689.773262 -194.741753 
L 689.884194 -193.892611 
L 690.010017 -193.043469 
L 690.151215 -192.194327 
L 690.307946 -191.345185 
L 690.479979 -190.496043 
L 690.666635 -189.646901 
L 690.866749 -188.797758 
L 691.078632 -187.948616 
L 691.300063 -187.099474 
L 691.528301 -186.250332 
L 691.760115 -185.40119 
L 691.991843 -184.552048 
L 692.219482 -183.702906 
L 692.438786 -182.853764 
L 692.645399 -182.004621 
L 692.834992 -181.155479 
L 693.003414 -180.306337 
L 693.146839 -179.457195 
L 693.261913 -178.608053 
L 693.345886 -177.758911 
L 693.396718 -176.909769 
L 693.413165 -176.060627 
L 693.394831 -175.211485 
L 693.342185 -174.362342 
L 693.256546 -173.5132 
L 693.140031 -172.664058 
L 692.995475 -171.814916 
L 692.826326 -170.965774 
L 692.636519 -170.116632 
L 692.430346 -169.26749 
L 692.212309 -168.418348 
L 691.986995 -167.569206 
L 691.758955 -166.720063 
L 691.5326 -165.870921 
L 691.312135 -165.021779 
L 691.101505 -164.172637 
L 690.904394 -163.323495 
L 690.724236 -162.474353 
L 690.564277 -161.625211 
L 690.427653 -160.776069 
L 690.317496 -159.926926 
L 690.237066 -159.077784 
L 690.189886 -158.228642 
L 690.179886 -157.3795 
L 690.211541 -156.530358 
L 690.289993 -155.681216 
L 690.421149 -154.832074 
L 690.611737 -153.982932 
L 690.869316 -153.13379 
L 691.202233 -152.284647 
L 691.619501 -151.435505 
L 692.130609 -150.586363 
L 692.745252 -149.737221 
L 693.472973 -148.888079 
L 694.322735 -148.038937 
L 695.302421 -147.189795 
L 696.418275 -146.340653 
L 697.674316 -145.491511 
L 699.071738 -144.642368 
L 700.608334 -143.793226 
L 702.277982 -142.944084 
L 704.070218 -142.094942 
L 705.969951 -141.2458 
L 707.957338 -140.396658 
L 710.007852 -139.547516 
L 712.092575 -138.698374 
L 714.178709 -137.849231 
L 716.230312 -137.000089 
L 718.209248 -136.150947 
L 720.076301 -135.301805 
L 721.792438 -134.452663 
L 723.320141 -133.603521 
L 724.62476 -132.754379 
L 725.675812 -131.905237 
L 726.448163 -131.056095 
L 726.923024 -130.206952 
L 727.088714 -129.35781 
L 726.941132 -128.508668 
L 726.483928 -127.659526 
L 725.728352 -126.810384 
L 724.692795 -125.961242 
L 723.402043 -125.1121 
L 721.886294 -124.262958 
L 720.17998 -123.413816 
L 718.320476 -122.564673 
L 716.346748 -121.715531 
L 714.298008 -120.866389 
L 712.212455 -120.017247 
L 710.126138 -119.168105 
L 708.071998 -118.318963 
L 706.079113 -117.469821 
L 704.172167 -116.620679 
L 702.371144 -115.771536 
L 700.691235 -114.922394 
L 699.142945 -114.073252 
L 697.732365 -113.22411 
L 696.461581 -112.374968 
L 695.329173 -111.525826 
L 694.330784 -110.676684 
z
" style="stroke: #1a1a1a; stroke-width: 1.5"/>
    </defs>
    <g clip-path="url(#pc50a272b2f)">
     <use xlink:href="#mf3d8e62a6d" x="0" y="576" style="fill: #ffffff; stroke: #1a1a1a; stroke-width: 1.5"/>
    </g>
   </g>
   <g id="patch_3">
    <path d="M 73.57 505.94 
L 73.57 22.816305 
" style="fill: none; stroke: #000000; stroke-width: 1.25; stroke-linejoin: miter; stroke-linecap: square"/>
   </g>
   <g id="patch_4">
    <path d="M 736.56 505.94 
L 736.56 22.816305 
" style="fill: none; stroke: #000000; stroke-width: 1.25; stroke-linejoin: miter; stroke-linecap: square"/>
   </g>
   <g id="patch_5">
    <path d="M 73.57 505.94 
L 736.56 505.94 
" style="fill: none; stroke: #000000; stroke-width: 1.25; stroke-linejoin: miter; stroke-linecap: square"/>
   </g>
   <g id="patch_6">
    <path d="M 73.57 22.816305 
L 736.56 22.816305 
" style="fill: none; stroke: #000000; stroke-width: 1.25; stroke-linejoin: miter; stroke-linecap: square"/>
   </g>
  </g>
 </g>
 <defs>
  <clipPath id="pc50a272b2f">
   <rect x="73.57" y="22.816305" width="662.99" height="483.123695"/>
  </clipPath>
 </defs>
</svg>
