<?xml version="1.0" encoding="utf-8" standalone="no"?>
<!DOCTYPE svg PUBLIC "-//W3C//DTD SVG 1.1//EN"
  "http://www.w3.org/Graphics/SVG/1.1/DTD/svg11.dtd">
<svg xmlns:xlink="http://www.w3.org/1999/xlink" width="756pt" height="576pt" viewBox="0 0 756 576" xmlns="http://www.w3.org/2000/svg" version="1.1">
 <metadata>
  <rdf:RDF xmlns:dc="http://purl.org/dc/elements/1.1/" xmlns:cc="http://creativecommons.org/ns#" xmlns:rdf="http://www.w3.org/1999/02/22-rdf-syntax-ns#">
   <cc:Work>
    <dc:type rdf:resource="http://purl.org/dc/dcmitype/StillImage"/>
    <dc:date>2023-01-09T13:11:55.361292</dc:date>
    <dc:format>image/svg+xml</dc:format>
    <dc:creator>
     <cc:Agent>
      <dc:title>Matplotlib v3.6.0, https://matplotlib.org/</dc:title>
     </cc:Agent>
    </dc:creator>
   </cc:Work>
  </rdf:RDF>
 </metadata>
 <defs>
  <style type="text/css">*{stroke-linejoin: round; stroke-linecap: butt}</style>
 </defs>
 <g id="figure_1">
  <g id="patch_1">
   <path d="M 0 576 
L 756 576 
L 756 0 
L 0 0 
z
" style="fill: #ffffff"/>
  </g>
  <g id="axes_1">
   <g id="patch_2">
    <path d="M 78.52 505.94 
L 584.510196 505.94 
L 584.510196 19.44 
L 78.52 19.44 
z
" style="fill: #ffffff"/>
   </g>
   <g id="matplotlib.axis_1">
    <g id="xtick_1">
     <g id="line2d_1">
      <defs>
       <path id="mea6bbc783b" d="M 0 0 
L 0 6 
" style="stroke: #262626; stroke-width: 1.25"/>
      </defs>
      <g>
       <use xlink:href="#mea6bbc783b" x="98.915831" y="505.94" style="fill: #262626; stroke: #262626; stroke-width: 1.25"/>
      </g>
     </g>
     <g id="text_1">
      <!-- 0.0 -->
      <g style="fill: #262626" transform="translate(86.405831 528.324062) scale(0.18 -0.18)">
       <defs>
        <path id="ArialMT-30" d="M 266 2259 
Q 266 3072 433 3567 
Q 600 4063 929 4331 
Q 1259 4600 1759 4600 
Q 2128 4600 2406 4451 
Q 2684 4303 2865 4023 
Q 3047 3744 3150 3342 
Q 3253 2941 3253 2259 
Q 3253 1453 3087 958 
Q 2922 463 2592 192 
Q 2263 -78 1759 -78 
Q 1097 -78 719 397 
Q 266 969 266 2259 
z
M 844 2259 
Q 844 1131 1108 757 
Q 1372 384 1759 384 
Q 2147 384 2411 759 
Q 2675 1134 2675 2259 
Q 2675 3391 2411 3762 
Q 2147 4134 1753 4134 
Q 1366 4134 1134 3806 
Q 844 3388 844 2259 
z
" transform="scale(0.015625)"/>
        <path id="ArialMT-2e" d="M 581 0 
L 581 641 
L 1222 641 
L 1222 0 
L 581 0 
z
" transform="scale(0.015625)"/>
       </defs>
       <use xlink:href="#ArialMT-30"/>
       <use xlink:href="#ArialMT-2e" x="55.615234"/>
       <use xlink:href="#ArialMT-30" x="83.398438"/>
      </g>
     </g>
    </g>
    <g id="xtick_2">
     <g id="line2d_2">
      <g>
       <use xlink:href="#mea6bbc783b" x="172.898943" y="505.94" style="fill: #262626; stroke: #262626; stroke-width: 1.25"/>
      </g>
     </g>
     <g id="text_2">
      <!-- 0.1 -->
      <g style="fill: #262626" transform="translate(160.388943 528.324062) scale(0.18 -0.18)">
       <defs>
        <path id="ArialMT-31" d="M 2384 0 
L 1822 0 
L 1822 3584 
Q 1619 3391 1289 3197 
Q 959 3003 697 2906 
L 697 3450 
Q 1169 3672 1522 3987 
Q 1875 4303 2022 4600 
L 2384 4600 
L 2384 0 
z
" transform="scale(0.015625)"/>
       </defs>
       <use xlink:href="#ArialMT-30"/>
       <use xlink:href="#ArialMT-2e" x="55.615234"/>
       <use xlink:href="#ArialMT-31" x="83.398438"/>
      </g>
     </g>
    </g>
    <g id="xtick_3">
     <g id="line2d_3">
      <g>
       <use xlink:href="#mea6bbc783b" x="246.882054" y="505.94" style="fill: #262626; stroke: #262626; stroke-width: 1.25"/>
      </g>
     </g>
     <g id="text_3">
      <!-- 0.2 -->
      <g style="fill: #262626" transform="translate(234.372054 528.324062) scale(0.18 -0.18)">
       <defs>
        <path id="ArialMT-32" d="M 3222 541 
L 3222 0 
L 194 0 
Q 188 203 259 391 
Q 375 700 629 1000 
Q 884 1300 1366 1694 
Q 2113 2306 2375 2664 
Q 2638 3022 2638 3341 
Q 2638 3675 2398 3904 
Q 2159 4134 1775 4134 
Q 1369 4134 1125 3890 
Q 881 3647 878 3216 
L 300 3275 
Q 359 3922 746 4261 
Q 1134 4600 1788 4600 
Q 2447 4600 2831 4234 
Q 3216 3869 3216 3328 
Q 3216 3053 3103 2787 
Q 2991 2522 2730 2228 
Q 2469 1934 1863 1422 
Q 1356 997 1212 845 
Q 1069 694 975 541 
L 3222 541 
z
" transform="scale(0.015625)"/>
       </defs>
       <use xlink:href="#ArialMT-30"/>
       <use xlink:href="#ArialMT-2e" x="55.615234"/>
       <use xlink:href="#ArialMT-32" x="83.398438"/>
      </g>
     </g>
    </g>
    <g id="xtick_4">
     <g id="line2d_4">
      <g>
       <use xlink:href="#mea6bbc783b" x="320.865165" y="505.94" style="fill: #262626; stroke: #262626; stroke-width: 1.25"/>
      </g>
     </g>
     <g id="text_4">
      <!-- 0.3 -->
      <g style="fill: #262626" transform="translate(308.355165 528.324062) scale(0.18 -0.18)">
       <defs>
        <path id="ArialMT-33" d="M 269 1209 
L 831 1284 
Q 928 806 1161 595 
Q 1394 384 1728 384 
Q 2125 384 2398 659 
Q 2672 934 2672 1341 
Q 2672 1728 2419 1979 
Q 2166 2231 1775 2231 
Q 1616 2231 1378 2169 
L 1441 2663 
Q 1497 2656 1531 2656 
Q 1891 2656 2178 2843 
Q 2466 3031 2466 3422 
Q 2466 3731 2256 3934 
Q 2047 4138 1716 4138 
Q 1388 4138 1169 3931 
Q 950 3725 888 3313 
L 325 3413 
Q 428 3978 793 4289 
Q 1159 4600 1703 4600 
Q 2078 4600 2393 4439 
Q 2709 4278 2876 4000 
Q 3044 3722 3044 3409 
Q 3044 3113 2884 2869 
Q 2725 2625 2413 2481 
Q 2819 2388 3044 2092 
Q 3269 1797 3269 1353 
Q 3269 753 2831 336 
Q 2394 -81 1725 -81 
Q 1122 -81 723 278 
Q 325 638 269 1209 
z
" transform="scale(0.015625)"/>
       </defs>
       <use xlink:href="#ArialMT-30"/>
       <use xlink:href="#ArialMT-2e" x="55.615234"/>
       <use xlink:href="#ArialMT-33" x="83.398438"/>
      </g>
     </g>
    </g>
    <g id="xtick_5">
     <g id="line2d_5">
      <g>
       <use xlink:href="#mea6bbc783b" x="394.848276" y="505.94" style="fill: #262626; stroke: #262626; stroke-width: 1.25"/>
      </g>
     </g>
     <g id="text_5">
      <!-- 0.4 -->
      <g style="fill: #262626" transform="translate(382.338276 528.324062) scale(0.18 -0.18)">
       <defs>
        <path id="ArialMT-34" d="M 2069 0 
L 2069 1097 
L 81 1097 
L 81 1613 
L 2172 4581 
L 2631 4581 
L 2631 1613 
L 3250 1613 
L 3250 1097 
L 2631 1097 
L 2631 0 
L 2069 0 
z
M 2069 1613 
L 2069 3678 
L 634 1613 
L 2069 1613 
z
" transform="scale(0.015625)"/>
       </defs>
       <use xlink:href="#ArialMT-30"/>
       <use xlink:href="#ArialMT-2e" x="55.615234"/>
       <use xlink:href="#ArialMT-34" x="83.398438"/>
      </g>
     </g>
    </g>
    <g id="xtick_6">
     <g id="line2d_6">
      <g>
       <use xlink:href="#mea6bbc783b" x="468.831387" y="505.94" style="fill: #262626; stroke: #262626; stroke-width: 1.25"/>
      </g>
     </g>
     <g id="text_6">
      <!-- 0.5 -->
      <g style="fill: #262626" transform="translate(456.321387 528.324062) scale(0.18 -0.18)">
       <defs>
        <path id="ArialMT-35" d="M 266 1200 
L 856 1250 
Q 922 819 1161 601 
Q 1400 384 1738 384 
Q 2144 384 2425 690 
Q 2706 997 2706 1503 
Q 2706 1984 2436 2262 
Q 2166 2541 1728 2541 
Q 1456 2541 1237 2417 
Q 1019 2294 894 2097 
L 366 2166 
L 809 4519 
L 3088 4519 
L 3088 3981 
L 1259 3981 
L 1013 2750 
Q 1425 3038 1878 3038 
Q 2478 3038 2890 2622 
Q 3303 2206 3303 1553 
Q 3303 931 2941 478 
Q 2500 -78 1738 -78 
Q 1113 -78 717 272 
Q 322 622 266 1200 
z
" transform="scale(0.015625)"/>
       </defs>
       <use xlink:href="#ArialMT-30"/>
       <use xlink:href="#ArialMT-2e" x="55.615234"/>
       <use xlink:href="#ArialMT-35" x="83.398438"/>
      </g>
     </g>
    </g>
    <g id="xtick_7">
     <g id="line2d_7">
      <g>
       <use xlink:href="#mea6bbc783b" x="542.814498" y="505.94" style="fill: #262626; stroke: #262626; stroke-width: 1.25"/>
      </g>
     </g>
     <g id="text_7">
      <!-- 0.6 -->
      <g style="fill: #262626" transform="translate(530.304498 528.324062) scale(0.18 -0.18)">
       <defs>
        <path id="ArialMT-36" d="M 3184 3459 
L 2625 3416 
Q 2550 3747 2413 3897 
Q 2184 4138 1850 4138 
Q 1581 4138 1378 3988 
Q 1113 3794 959 3422 
Q 806 3050 800 2363 
Q 1003 2672 1297 2822 
Q 1591 2972 1913 2972 
Q 2475 2972 2870 2558 
Q 3266 2144 3266 1488 
Q 3266 1056 3080 686 
Q 2894 316 2569 119 
Q 2244 -78 1831 -78 
Q 1128 -78 684 439 
Q 241 956 241 2144 
Q 241 3472 731 4075 
Q 1159 4600 1884 4600 
Q 2425 4600 2770 4297 
Q 3116 3994 3184 3459 
z
M 888 1484 
Q 888 1194 1011 928 
Q 1134 663 1356 523 
Q 1578 384 1822 384 
Q 2178 384 2434 671 
Q 2691 959 2691 1453 
Q 2691 1928 2437 2201 
Q 2184 2475 1800 2475 
Q 1419 2475 1153 2201 
Q 888 1928 888 1484 
z
" transform="scale(0.015625)"/>
       </defs>
       <use xlink:href="#ArialMT-30"/>
       <use xlink:href="#ArialMT-2e" x="55.615234"/>
       <use xlink:href="#ArialMT-36" x="83.398438"/>
      </g>
     </g>
    </g>
    <g id="text_8">
     <!-- Influence Team Strength -->
     <g style="fill: #262626" transform="translate(227.169942 553.005) scale(0.18 -0.18)">
      <defs>
       <path id="Arial-BoldMT-49" d="M 438 0 
L 438 4581 
L 1363 4581 
L 1363 0 
L 438 0 
z
" transform="scale(0.015625)"/>
       <path id="Arial-BoldMT-6e" d="M 3478 0 
L 2600 0 
L 2600 1694 
Q 2600 2231 2544 2389 
Q 2488 2547 2361 2634 
Q 2234 2722 2056 2722 
Q 1828 2722 1647 2597 
Q 1466 2472 1398 2265 
Q 1331 2059 1331 1503 
L 1331 0 
L 453 0 
L 453 3319 
L 1269 3319 
L 1269 2831 
Q 1703 3394 2363 3394 
Q 2653 3394 2893 3289 
Q 3134 3184 3257 3021 
Q 3381 2859 3429 2653 
Q 3478 2447 3478 2063 
L 3478 0 
z
" transform="scale(0.015625)"/>
       <path id="Arial-BoldMT-66" d="M 75 3319 
L 563 3319 
L 563 3569 
Q 563 3988 652 4194 
Q 741 4400 980 4529 
Q 1219 4659 1584 4659 
Q 1959 4659 2319 4547 
L 2200 3934 
Q 1991 3984 1797 3984 
Q 1606 3984 1523 3895 
Q 1441 3806 1441 3553 
L 1441 3319 
L 2097 3319 
L 2097 2628 
L 1441 2628 
L 1441 0 
L 563 0 
L 563 2628 
L 75 2628 
L 75 3319 
z
" transform="scale(0.015625)"/>
       <path id="Arial-BoldMT-6c" d="M 459 0 
L 459 4581 
L 1338 4581 
L 1338 0 
L 459 0 
z
" transform="scale(0.015625)"/>
       <path id="Arial-BoldMT-75" d="M 2644 0 
L 2644 497 
Q 2463 231 2167 78 
Q 1872 -75 1544 -75 
Q 1209 -75 943 72 
Q 678 219 559 484 
Q 441 750 441 1219 
L 441 3319 
L 1319 3319 
L 1319 1794 
Q 1319 1094 1367 936 
Q 1416 778 1544 686 
Q 1672 594 1869 594 
Q 2094 594 2272 717 
Q 2450 841 2515 1023 
Q 2581 1206 2581 1919 
L 2581 3319 
L 3459 3319 
L 3459 0 
L 2644 0 
z
" transform="scale(0.015625)"/>
       <path id="Arial-BoldMT-65" d="M 2381 1056 
L 3256 909 
Q 3088 428 2723 176 
Q 2359 -75 1813 -75 
Q 947 -75 531 491 
Q 203 944 203 1634 
Q 203 2459 634 2926 
Q 1066 3394 1725 3394 
Q 2466 3394 2894 2905 
Q 3322 2416 3303 1406 
L 1103 1406 
Q 1113 1016 1316 798 
Q 1519 581 1822 581 
Q 2028 581 2168 693 
Q 2309 806 2381 1056 
z
M 2431 1944 
Q 2422 2325 2234 2523 
Q 2047 2722 1778 2722 
Q 1491 2722 1303 2513 
Q 1116 2303 1119 1944 
L 2431 1944 
z
" transform="scale(0.015625)"/>
       <path id="Arial-BoldMT-63" d="M 3353 2338 
L 2488 2181 
Q 2444 2441 2289 2572 
Q 2134 2703 1888 2703 
Q 1559 2703 1364 2476 
Q 1169 2250 1169 1719 
Q 1169 1128 1367 884 
Q 1566 641 1900 641 
Q 2150 641 2309 783 
Q 2469 925 2534 1272 
L 3397 1125 
Q 3263 531 2881 228 
Q 2500 -75 1859 -75 
Q 1131 -75 698 384 
Q 266 844 266 1656 
Q 266 2478 700 2936 
Q 1134 3394 1875 3394 
Q 2481 3394 2839 3133 
Q 3197 2872 3353 2338 
z
" transform="scale(0.015625)"/>
       <path id="Arial-BoldMT-20" transform="scale(0.015625)"/>
       <path id="Arial-BoldMT-54" d="M 1497 0 
L 1497 3806 
L 138 3806 
L 138 4581 
L 3778 4581 
L 3778 3806 
L 2422 3806 
L 2422 0 
L 1497 0 
z
" transform="scale(0.015625)"/>
       <path id="Arial-BoldMT-61" d="M 1116 2306 
L 319 2450 
Q 453 2931 781 3162 
Q 1109 3394 1756 3394 
Q 2344 3394 2631 3255 
Q 2919 3116 3036 2902 
Q 3153 2688 3153 2116 
L 3144 1091 
Q 3144 653 3186 445 
Q 3228 238 3344 0 
L 2475 0 
Q 2441 88 2391 259 
Q 2369 338 2359 363 
Q 2134 144 1878 34 
Q 1622 -75 1331 -75 
Q 819 -75 523 203 
Q 228 481 228 906 
Q 228 1188 362 1408 
Q 497 1628 739 1745 
Q 981 1863 1438 1950 
Q 2053 2066 2291 2166 
L 2291 2253 
Q 2291 2506 2166 2614 
Q 2041 2722 1694 2722 
Q 1459 2722 1328 2630 
Q 1197 2538 1116 2306 
z
M 2291 1594 
Q 2122 1538 1756 1459 
Q 1391 1381 1278 1306 
Q 1106 1184 1106 997 
Q 1106 813 1243 678 
Q 1381 544 1594 544 
Q 1831 544 2047 700 
Q 2206 819 2256 991 
Q 2291 1103 2291 1419 
L 2291 1594 
z
" transform="scale(0.015625)"/>
       <path id="Arial-BoldMT-6d" d="M 394 3319 
L 1203 3319 
L 1203 2866 
Q 1638 3394 2238 3394 
Q 2556 3394 2790 3262 
Q 3025 3131 3175 2866 
Q 3394 3131 3647 3262 
Q 3900 3394 4188 3394 
Q 4553 3394 4806 3245 
Q 5059 3097 5184 2809 
Q 5275 2597 5275 2122 
L 5275 0 
L 4397 0 
L 4397 1897 
Q 4397 2391 4306 2534 
Q 4184 2722 3931 2722 
Q 3747 2722 3584 2609 
Q 3422 2497 3350 2280 
Q 3278 2063 3278 1594 
L 3278 0 
L 2400 0 
L 2400 1819 
Q 2400 2303 2353 2443 
Q 2306 2584 2207 2653 
Q 2109 2722 1941 2722 
Q 1738 2722 1575 2612 
Q 1413 2503 1342 2297 
Q 1272 2091 1272 1613 
L 1272 0 
L 394 0 
L 394 3319 
z
" transform="scale(0.015625)"/>
       <path id="Arial-BoldMT-53" d="M 231 1491 
L 1131 1578 
Q 1213 1125 1461 912 
Q 1709 700 2131 700 
Q 2578 700 2804 889 
Q 3031 1078 3031 1331 
Q 3031 1494 2936 1608 
Q 2841 1722 2603 1806 
Q 2441 1863 1863 2006 
Q 1119 2191 819 2459 
Q 397 2838 397 3381 
Q 397 3731 595 4036 
Q 794 4341 1167 4500 
Q 1541 4659 2069 4659 
Q 2931 4659 3367 4281 
Q 3803 3903 3825 3272 
L 2900 3231 
Q 2841 3584 2645 3739 
Q 2450 3894 2059 3894 
Q 1656 3894 1428 3728 
Q 1281 3622 1281 3444 
Q 1281 3281 1419 3166 
Q 1594 3019 2269 2859 
Q 2944 2700 3267 2529 
Q 3591 2359 3773 2064 
Q 3956 1769 3956 1334 
Q 3956 941 3737 597 
Q 3519 253 3119 86 
Q 2719 -81 2122 -81 
Q 1253 -81 787 320 
Q 322 722 231 1491 
z
" transform="scale(0.015625)"/>
       <path id="Arial-BoldMT-74" d="M 1981 3319 
L 1981 2619 
L 1381 2619 
L 1381 1281 
Q 1381 875 1398 808 
Q 1416 741 1477 697 
Q 1538 653 1625 653 
Q 1747 653 1978 738 
L 2053 56 
Q 1747 -75 1359 -75 
Q 1122 -75 931 4 
Q 741 84 652 211 
Q 563 338 528 553 
Q 500 706 500 1172 
L 500 2619 
L 97 2619 
L 97 3319 
L 500 3319 
L 500 3978 
L 1381 4491 
L 1381 3319 
L 1981 3319 
z
" transform="scale(0.015625)"/>
       <path id="Arial-BoldMT-72" d="M 1300 0 
L 422 0 
L 422 3319 
L 1238 3319 
L 1238 2847 
Q 1447 3181 1614 3287 
Q 1781 3394 1994 3394 
Q 2294 3394 2572 3228 
L 2300 2463 
Q 2078 2606 1888 2606 
Q 1703 2606 1575 2504 
Q 1447 2403 1373 2137 
Q 1300 1872 1300 1025 
L 1300 0 
z
" transform="scale(0.015625)"/>
       <path id="Arial-BoldMT-67" d="M 378 -219 
L 1381 -341 
Q 1406 -516 1497 -581 
Q 1622 -675 1891 -675 
Q 2234 -675 2406 -572 
Q 2522 -503 2581 -350 
Q 2622 -241 2622 53 
L 2622 538 
Q 2228 0 1628 0 
Q 959 0 569 566 
Q 263 1013 263 1678 
Q 263 2513 664 2953 
Q 1066 3394 1663 3394 
Q 2278 3394 2678 2853 
L 2678 3319 
L 3500 3319 
L 3500 341 
Q 3500 -247 3403 -537 
Q 3306 -828 3131 -993 
Q 2956 -1159 2664 -1253 
Q 2372 -1347 1925 -1347 
Q 1081 -1347 728 -1058 
Q 375 -769 375 -325 
Q 375 -281 378 -219 
z
M 1163 1728 
Q 1163 1200 1367 954 
Q 1572 709 1872 709 
Q 2194 709 2416 961 
Q 2638 1213 2638 1706 
Q 2638 2222 2425 2472 
Q 2213 2722 1888 2722 
Q 1572 2722 1367 2476 
Q 1163 2231 1163 1728 
z
" transform="scale(0.015625)"/>
       <path id="Arial-BoldMT-68" d="M 1334 4581 
L 1334 2897 
Q 1759 3394 2350 3394 
Q 2653 3394 2897 3281 
Q 3141 3169 3264 2994 
Q 3388 2819 3433 2606 
Q 3478 2394 3478 1947 
L 3478 0 
L 2600 0 
L 2600 1753 
Q 2600 2275 2550 2415 
Q 2500 2556 2373 2639 
Q 2247 2722 2056 2722 
Q 1838 2722 1666 2615 
Q 1494 2509 1414 2295 
Q 1334 2081 1334 1663 
L 1334 0 
L 456 0 
L 456 4581 
L 1334 4581 
z
" transform="scale(0.015625)"/>
      </defs>
      <use xlink:href="#Arial-BoldMT-49"/>
      <use xlink:href="#Arial-BoldMT-6e" x="27.783203"/>
      <use xlink:href="#Arial-BoldMT-66" x="88.867188"/>
      <use xlink:href="#Arial-BoldMT-6c" x="122.167969"/>
      <use xlink:href="#Arial-BoldMT-75" x="149.951172"/>
      <use xlink:href="#Arial-BoldMT-65" x="211.035156"/>
      <use xlink:href="#Arial-BoldMT-6e" x="266.650391"/>
      <use xlink:href="#Arial-BoldMT-63" x="327.734375"/>
      <use xlink:href="#Arial-BoldMT-65" x="383.349609"/>
      <use xlink:href="#Arial-BoldMT-20" x="438.964844"/>
      <use xlink:href="#Arial-BoldMT-54" x="466.748047"/>
      <use xlink:href="#Arial-BoldMT-65" x="520.457031"/>
      <use xlink:href="#Arial-BoldMT-61" x="576.072266"/>
      <use xlink:href="#Arial-BoldMT-6d" x="631.6875"/>
      <use xlink:href="#Arial-BoldMT-20" x="720.603516"/>
      <use xlink:href="#Arial-BoldMT-53" x="748.386719"/>
      <use xlink:href="#Arial-BoldMT-74" x="815.085938"/>
      <use xlink:href="#Arial-BoldMT-72" x="848.386719"/>
      <use xlink:href="#Arial-BoldMT-65" x="887.302734"/>
      <use xlink:href="#Arial-BoldMT-6e" x="942.917969"/>
      <use xlink:href="#Arial-BoldMT-67" x="1004.001953"/>
      <use xlink:href="#Arial-BoldMT-74" x="1065.085938"/>
      <use xlink:href="#Arial-BoldMT-68" x="1098.386719"/>
     </g>
    </g>
   </g>
   <g id="matplotlib.axis_2">
    <g id="ytick_1">
     <g id="line2d_8">
      <defs>
       <path id="m5278076eb0" d="M 0 0 
L -6 0 
" style="stroke: #262626; stroke-width: 1.25"/>
      </defs>
      <g>
       <use xlink:href="#m5278076eb0" x="78.52" y="446.991633" style="fill: #262626; stroke: #262626; stroke-width: 1.25"/>
      </g>
     </g>
     <g id="text_9">
      <!-- 0.3 -->
      <g style="fill: #262626" transform="translate(44 453.433665) scale(0.18 -0.18)">
       <use xlink:href="#ArialMT-30"/>
       <use xlink:href="#ArialMT-2e" x="55.615234"/>
       <use xlink:href="#ArialMT-33" x="83.398438"/>
      </g>
     </g>
    </g>
    <g id="ytick_2">
     <g id="line2d_9">
      <g>
       <use xlink:href="#m5278076eb0" x="78.52" y="384.270729" style="fill: #262626; stroke: #262626; stroke-width: 1.25"/>
      </g>
     </g>
     <g id="text_10">
      <!-- 0.4 -->
      <g style="fill: #262626" transform="translate(44 390.712761) scale(0.18 -0.18)">
       <use xlink:href="#ArialMT-30"/>
       <use xlink:href="#ArialMT-2e" x="55.615234"/>
       <use xlink:href="#ArialMT-34" x="83.398438"/>
      </g>
     </g>
    </g>
    <g id="ytick_3">
     <g id="line2d_10">
      <g>
       <use xlink:href="#m5278076eb0" x="78.52" y="321.549825" style="fill: #262626; stroke: #262626; stroke-width: 1.25"/>
      </g>
     </g>
     <g id="text_11">
      <!-- 0.5 -->
      <g style="fill: #262626" transform="translate(44 327.991856) scale(0.18 -0.18)">
       <use xlink:href="#ArialMT-30"/>
       <use xlink:href="#ArialMT-2e" x="55.615234"/>
       <use xlink:href="#ArialMT-35" x="83.398438"/>
      </g>
     </g>
    </g>
    <g id="ytick_4">
     <g id="line2d_11">
      <g>
       <use xlink:href="#m5278076eb0" x="78.52" y="258.828921" style="fill: #262626; stroke: #262626; stroke-width: 1.25"/>
      </g>
     </g>
     <g id="text_12">
      <!-- 0.6 -->
      <g style="fill: #262626" transform="translate(44 265.270952) scale(0.18 -0.18)">
       <use xlink:href="#ArialMT-30"/>
       <use xlink:href="#ArialMT-2e" x="55.615234"/>
       <use xlink:href="#ArialMT-36" x="83.398438"/>
      </g>
     </g>
    </g>
    <g id="ytick_5">
     <g id="line2d_12">
      <g>
       <use xlink:href="#m5278076eb0" x="78.52" y="196.108017" style="fill: #262626; stroke: #262626; stroke-width: 1.25"/>
      </g>
     </g>
     <g id="text_13">
      <!-- 0.7 -->
      <g style="fill: #262626" transform="translate(44 202.550048) scale(0.18 -0.18)">
       <defs>
        <path id="ArialMT-37" d="M 303 3981 
L 303 4522 
L 3269 4522 
L 3269 4084 
Q 2831 3619 2401 2847 
Q 1972 2075 1738 1259 
Q 1569 684 1522 0 
L 944 0 
Q 953 541 1156 1306 
Q 1359 2072 1739 2783 
Q 2119 3494 2547 3981 
L 303 3981 
z
" transform="scale(0.015625)"/>
       </defs>
       <use xlink:href="#ArialMT-30"/>
       <use xlink:href="#ArialMT-2e" x="55.615234"/>
       <use xlink:href="#ArialMT-37" x="83.398438"/>
      </g>
     </g>
    </g>
    <g id="ytick_6">
     <g id="line2d_13">
      <g>
       <use xlink:href="#m5278076eb0" x="78.52" y="133.387113" style="fill: #262626; stroke: #262626; stroke-width: 1.25"/>
      </g>
     </g>
     <g id="text_14">
      <!-- 0.8 -->
      <g style="fill: #262626" transform="translate(44 139.829144) scale(0.18 -0.18)">
       <defs>
        <path id="ArialMT-38" d="M 1131 2484 
Q 781 2613 612 2850 
Q 444 3088 444 3419 
Q 444 3919 803 4259 
Q 1163 4600 1759 4600 
Q 2359 4600 2725 4251 
Q 3091 3903 3091 3403 
Q 3091 3084 2923 2848 
Q 2756 2613 2416 2484 
Q 2838 2347 3058 2040 
Q 3278 1734 3278 1309 
Q 3278 722 2862 322 
Q 2447 -78 1769 -78 
Q 1091 -78 675 323 
Q 259 725 259 1325 
Q 259 1772 486 2073 
Q 713 2375 1131 2484 
z
M 1019 3438 
Q 1019 3113 1228 2906 
Q 1438 2700 1772 2700 
Q 2097 2700 2305 2904 
Q 2513 3109 2513 3406 
Q 2513 3716 2298 3927 
Q 2084 4138 1766 4138 
Q 1444 4138 1231 3931 
Q 1019 3725 1019 3438 
z
M 838 1322 
Q 838 1081 952 856 
Q 1066 631 1291 507 
Q 1516 384 1775 384 
Q 2178 384 2440 643 
Q 2703 903 2703 1303 
Q 2703 1709 2433 1975 
Q 2163 2241 1756 2241 
Q 1359 2241 1098 1978 
Q 838 1716 838 1322 
z
" transform="scale(0.015625)"/>
       </defs>
       <use xlink:href="#ArialMT-30"/>
       <use xlink:href="#ArialMT-2e" x="55.615234"/>
       <use xlink:href="#ArialMT-38" x="83.398438"/>
      </g>
     </g>
    </g>
    <g id="ytick_7">
     <g id="line2d_14">
      <g>
       <use xlink:href="#m5278076eb0" x="78.52" y="70.666209" style="fill: #262626; stroke: #262626; stroke-width: 1.25"/>
      </g>
     </g>
     <g id="text_15">
      <!-- 0.9 -->
      <g style="fill: #262626" transform="translate(44 77.10824) scale(0.18 -0.18)">
       <defs>
        <path id="ArialMT-39" d="M 350 1059 
L 891 1109 
Q 959 728 1153 556 
Q 1347 384 1650 384 
Q 1909 384 2104 503 
Q 2300 622 2425 820 
Q 2550 1019 2634 1356 
Q 2719 1694 2719 2044 
Q 2719 2081 2716 2156 
Q 2547 1888 2255 1720 
Q 1963 1553 1622 1553 
Q 1053 1553 659 1965 
Q 266 2378 266 3053 
Q 266 3750 677 4175 
Q 1088 4600 1706 4600 
Q 2153 4600 2523 4359 
Q 2894 4119 3086 3673 
Q 3278 3228 3278 2384 
Q 3278 1506 3087 986 
Q 2897 466 2520 194 
Q 2144 -78 1638 -78 
Q 1100 -78 759 220 
Q 419 519 350 1059 
z
M 2653 3081 
Q 2653 3566 2395 3850 
Q 2138 4134 1775 4134 
Q 1400 4134 1122 3828 
Q 844 3522 844 3034 
Q 844 2597 1108 2323 
Q 1372 2050 1759 2050 
Q 2150 2050 2401 2323 
Q 2653 2597 2653 3081 
z
" transform="scale(0.015625)"/>
       </defs>
       <use xlink:href="#ArialMT-30"/>
       <use xlink:href="#ArialMT-2e" x="55.615234"/>
       <use xlink:href="#ArialMT-39" x="83.398438"/>
      </g>
     </g>
    </g>
    <g id="text_16">
     <!-- PC1 Variance -->
     <g style="fill: #262626" transform="translate(32.447813 319.726094) rotate(-90) scale(0.18 -0.18)">
      <defs>
       <path id="Arial-BoldMT-50" d="M 466 0 
L 466 4581 
L 1950 4581 
Q 2794 4581 3050 4513 
Q 3444 4409 3709 4064 
Q 3975 3719 3975 3172 
Q 3975 2750 3822 2462 
Q 3669 2175 3433 2011 
Q 3197 1847 2953 1794 
Q 2622 1728 1994 1728 
L 1391 1728 
L 1391 0 
L 466 0 
z
M 1391 3806 
L 1391 2506 
L 1897 2506 
Q 2444 2506 2628 2578 
Q 2813 2650 2917 2803 
Q 3022 2956 3022 3159 
Q 3022 3409 2875 3571 
Q 2728 3734 2503 3775 
Q 2338 3806 1838 3806 
L 1391 3806 
z
" transform="scale(0.015625)"/>
       <path id="Arial-BoldMT-43" d="M 3397 1684 
L 4294 1400 
Q 4088 650 3608 286 
Q 3128 -78 2391 -78 
Q 1478 -78 890 545 
Q 303 1169 303 2250 
Q 303 3394 893 4026 
Q 1484 4659 2447 4659 
Q 3288 4659 3813 4163 
Q 4125 3869 4281 3319 
L 3366 3100 
Q 3284 3456 3026 3662 
Q 2769 3869 2400 3869 
Q 1891 3869 1573 3503 
Q 1256 3138 1256 2319 
Q 1256 1450 1568 1081 
Q 1881 713 2381 713 
Q 2750 713 3015 947 
Q 3281 1181 3397 1684 
z
" transform="scale(0.015625)"/>
       <path id="Arial-BoldMT-31" d="M 2519 0 
L 1641 0 
L 1641 3309 
Q 1159 2859 506 2644 
L 506 3441 
Q 850 3553 1253 3867 
Q 1656 4181 1806 4600 
L 2519 4600 
L 2519 0 
z
" transform="scale(0.015625)"/>
       <path id="Arial-BoldMT-56" d="M 1634 0 
L -3 4581 
L 1000 4581 
L 2159 1191 
L 3281 4581 
L 4263 4581 
L 2622 0 
L 1634 0 
z
" transform="scale(0.015625)"/>
       <path id="Arial-BoldMT-69" d="M 459 3769 
L 459 4581 
L 1338 4581 
L 1338 3769 
L 459 3769 
z
M 459 0 
L 459 3319 
L 1338 3319 
L 1338 0 
L 459 0 
z
" transform="scale(0.015625)"/>
      </defs>
      <use xlink:href="#Arial-BoldMT-50"/>
      <use xlink:href="#Arial-BoldMT-43" x="66.699219"/>
      <use xlink:href="#Arial-BoldMT-31" x="138.916016"/>
      <use xlink:href="#Arial-BoldMT-20" x="194.53125"/>
      <use xlink:href="#Arial-BoldMT-56" x="222.314453"/>
      <use xlink:href="#Arial-BoldMT-61" x="283.513672"/>
      <use xlink:href="#Arial-BoldMT-72" x="339.128906"/>
      <use xlink:href="#Arial-BoldMT-69" x="378.044922"/>
      <use xlink:href="#Arial-BoldMT-61" x="405.828125"/>
      <use xlink:href="#Arial-BoldMT-6e" x="461.443359"/>
      <use xlink:href="#Arial-BoldMT-63" x="522.527344"/>
      <use xlink:href="#Arial-BoldMT-65" x="578.142578"/>
     </g>
    </g>
   </g>
   <g id="PathCollection_1">
    <defs>
     <path id="C0_0_17b6dded3f" d="M 0 3.872983 
C 1.027127 3.872983 2.012324 3.464901 2.738613 2.738613 
C 3.464901 2.012324 3.872983 1.027127 3.872983 -0 
C 3.872983 -1.027127 3.464901 -2.012324 2.738613 -2.738613 
C 2.012324 -3.464901 1.027127 -3.872983 0 -3.872983 
C -1.027127 -3.872983 -2.012324 -3.464901 -2.738613 -2.738613 
C -3.464901 -2.012324 -3.872983 -1.027127 -3.872983 0 
C -3.872983 1.027127 -3.464901 2.012324 -2.738613 2.738613 
C -2.012324 3.464901 -1.027127 3.872983 0 3.872983 
z
"/>
    </defs>
    <g clip-path="url(#p14b763d05c)">
     <use xlink:href="#C0_0_17b6dded3f" x="561.510642" y="41.553636" style="fill: #0570b0; stroke: #000000; stroke-width: 0.619677"/>
    </g>
    <g clip-path="url(#p14b763d05c)">
     <use xlink:href="#C0_0_17b6dded3f" x="105.615266" y="371.780274" style="fill: #74a9cf; stroke: #000000; stroke-width: 0.619677"/>
    </g>
    <g clip-path="url(#p14b763d05c)">
     <use xlink:href="#C0_0_17b6dded3f" x="124.024437" y="363.200384" style="fill: #74a9cf; stroke: #000000; stroke-width: 0.619677"/>
    </g>
    <g clip-path="url(#p14b763d05c)">
     <use xlink:href="#C0_0_17b6dded3f" x="171.645082" y="256.57497" style="fill: #74a9cf; stroke: #000000; stroke-width: 0.619677"/>
    </g>
    <g clip-path="url(#p14b763d05c)">
     <use xlink:href="#C0_0_17b6dded3f" x="127.388822" y="353.067174" style="fill: #74a9cf; stroke: #000000; stroke-width: 0.619677"/>
    </g>
    <g clip-path="url(#p14b763d05c)">
     <use xlink:href="#C0_0_17b6dded3f" x="118.237296" y="392.982077" style="fill: #74a9cf; stroke: #000000; stroke-width: 0.619677"/>
    </g>
    <g clip-path="url(#p14b763d05c)">
     <use xlink:href="#C0_0_17b6dded3f" x="177.336427" y="332.768756" style="fill: #74a9cf; stroke: #000000; stroke-width: 0.619677"/>
    </g>
    <g clip-path="url(#p14b763d05c)">
     <use xlink:href="#C0_0_17b6dded3f" x="110.336943" y="327.052205" style="fill: #74a9cf; stroke: #000000; stroke-width: 0.619677"/>
    </g>
    <g clip-path="url(#p14b763d05c)">
     <use xlink:href="#C0_0_17b6dded3f" x="115.747986" y="349.684441" style="fill: #74a9cf; stroke: #000000; stroke-width: 0.619677"/>
    </g>
    <g clip-path="url(#p14b763d05c)">
     <use xlink:href="#C0_0_17b6dded3f" x="123.539219" y="412.835565" style="fill: #74a9cf; stroke: #000000; stroke-width: 0.619677"/>
    </g>
    <g clip-path="url(#p14b763d05c)">
     <use xlink:href="#C0_0_17b6dded3f" x="114.840253" y="388.297072" style="fill: #74a9cf; stroke: #000000; stroke-width: 0.619677"/>
    </g>
    <g clip-path="url(#p14b763d05c)">
     <use xlink:href="#C0_0_17b6dded3f" x="104.085829" y="389.611268" style="fill: #74a9cf; stroke: #000000; stroke-width: 0.619677"/>
    </g>
    <g clip-path="url(#p14b763d05c)">
     <use xlink:href="#C0_0_17b6dded3f" x="128.697568" y="384.619408" style="fill: #74a9cf; stroke: #000000; stroke-width: 0.619677"/>
    </g>
    <g clip-path="url(#p14b763d05c)">
     <use xlink:href="#C0_0_17b6dded3f" x="113.407533" y="418.001006" style="fill: #74a9cf; stroke: #000000; stroke-width: 0.619677"/>
    </g>
    <g clip-path="url(#p14b763d05c)">
     <use xlink:href="#C0_0_17b6dded3f" x="114.197808" y="440.856873" style="fill: #74a9cf; stroke: #000000; stroke-width: 0.619677"/>
    </g>
    <g clip-path="url(#p14b763d05c)">
     <use xlink:href="#C0_0_17b6dded3f" x="128.434882" y="384.467577" style="fill: #74a9cf; stroke: #000000; stroke-width: 0.619677"/>
    </g>
    <g clip-path="url(#p14b763d05c)">
     <use xlink:href="#C0_0_17b6dded3f" x="116.373137" y="330.155469" style="fill: #74a9cf; stroke: #000000; stroke-width: 0.619677"/>
    </g>
    <g clip-path="url(#p14b763d05c)">
     <use xlink:href="#C0_0_17b6dded3f" x="116.22521" y="363.803376" style="fill: #74a9cf; stroke: #000000; stroke-width: 0.619677"/>
    </g>
    <g clip-path="url(#p14b763d05c)">
     <use xlink:href="#C0_0_17b6dded3f" x="174.516162" y="327.267918" style="fill: #74a9cf; stroke: #000000; stroke-width: 0.619677"/>
    </g>
    <g clip-path="url(#p14b763d05c)">
     <use xlink:href="#C0_0_17b6dded3f" x="122.95097" y="415.550095" style="fill: #74a9cf; stroke: #000000; stroke-width: 0.619677"/>
    </g>
    <g clip-path="url(#p14b763d05c)">
     <use xlink:href="#C0_0_17b6dded3f" x="114.695754" y="427.434282" style="fill: #74a9cf; stroke: #000000; stroke-width: 0.619677"/>
    </g>
    <g clip-path="url(#p14b763d05c)">
     <use xlink:href="#C0_0_17b6dded3f" x="116.058094" y="419.506046" style="fill: #74a9cf; stroke: #000000; stroke-width: 0.619677"/>
    </g>
    <g clip-path="url(#p14b763d05c)">
     <use xlink:href="#C0_0_17b6dded3f" x="178.680456" y="368.512817" style="fill: #74a9cf; stroke: #000000; stroke-width: 0.619677"/>
    </g>
    <g clip-path="url(#p14b763d05c)">
     <use xlink:href="#C0_0_17b6dded3f" x="102.558706" y="440.272433" style="fill: #74a9cf; stroke: #000000; stroke-width: 0.619677"/>
    </g>
    <g clip-path="url(#p14b763d05c)">
     <use xlink:href="#C0_0_17b6dded3f" x="106.388534" y="377.610603" style="fill: #74a9cf; stroke: #000000; stroke-width: 0.619677"/>
    </g>
    <g clip-path="url(#p14b763d05c)">
     <use xlink:href="#C0_0_17b6dded3f" x="106.366223" y="438.714501" style="fill: #74a9cf; stroke: #000000; stroke-width: 0.619677"/>
    </g>
    <g clip-path="url(#p14b763d05c)">
     <use xlink:href="#C0_0_17b6dded3f" x="103.186313" y="424.186429" style="fill: #74a9cf; stroke: #000000; stroke-width: 0.619677"/>
    </g>
    <g clip-path="url(#p14b763d05c)">
     <use xlink:href="#C0_0_17b6dded3f" x="127.706748" y="351.116805" style="fill: #74a9cf; stroke: #000000; stroke-width: 0.619677"/>
    </g>
    <g clip-path="url(#p14b763d05c)">
     <use xlink:href="#C0_0_17b6dded3f" x="138.325871" y="426.923507" style="fill: #74a9cf; stroke: #000000; stroke-width: 0.619677"/>
    </g>
    <g clip-path="url(#p14b763d05c)">
     <use xlink:href="#C0_0_17b6dded3f" x="124.913689" y="416.704046" style="fill: #74a9cf; stroke: #000000; stroke-width: 0.619677"/>
    </g>
    <g clip-path="url(#p14b763d05c)">
     <use xlink:href="#C0_0_17b6dded3f" x="121.795088" y="454.469153" style="fill: #74a9cf; stroke: #000000; stroke-width: 0.619677"/>
    </g>
    <g clip-path="url(#p14b763d05c)">
     <use xlink:href="#C0_0_17b6dded3f" x="103.072386" y="483.826364" style="fill: #74a9cf; stroke: #000000; stroke-width: 0.619677"/>
    </g>
    <g clip-path="url(#p14b763d05c)">
     <use xlink:href="#C0_0_17b6dded3f" x="140.738048" y="284.027434" style="fill: #74a9cf; stroke: #000000; stroke-width: 0.619677"/>
    </g>
    <g clip-path="url(#p14b763d05c)">
     <use xlink:href="#C0_0_17b6dded3f" x="121.671458" y="426.643255" style="fill: #74a9cf; stroke: #000000; stroke-width: 0.619677"/>
    </g>
    <g clip-path="url(#p14b763d05c)">
     <use xlink:href="#C0_0_17b6dded3f" x="125.300022" y="328.006095" style="fill: #74a9cf; stroke: #000000; stroke-width: 0.619677"/>
    </g>
    <g clip-path="url(#p14b763d05c)">
     <use xlink:href="#C0_0_17b6dded3f" x="115.112918" y="455.889166" style="fill: #74a9cf; stroke: #000000; stroke-width: 0.619677"/>
    </g>
    <g clip-path="url(#p14b763d05c)">
     <use xlink:href="#C0_0_17b6dded3f" x="155.292379" y="362.41777" style="fill: #74a9cf; stroke: #000000; stroke-width: 0.619677"/>
    </g>
    <g clip-path="url(#p14b763d05c)">
     <use xlink:href="#C0_0_17b6dded3f" x="106.919748" y="443.781933" style="fill: #74a9cf; stroke: #000000; stroke-width: 0.619677"/>
    </g>
    <g clip-path="url(#p14b763d05c)">
     <use xlink:href="#C0_0_17b6dded3f" x="103.882872" y="413.628579" style="fill: #74a9cf; stroke: #000000; stroke-width: 0.619677"/>
    </g>
    <g clip-path="url(#p14b763d05c)">
     <use xlink:href="#C0_0_17b6dded3f" x="154.582346" y="362.925235" style="fill: #74a9cf; stroke: #000000; stroke-width: 0.619677"/>
    </g>
    <g clip-path="url(#p14b763d05c)">
     <use xlink:href="#C0_0_17b6dded3f" x="147.561723" y="318.339373" style="fill: #74a9cf; stroke: #000000; stroke-width: 0.619677"/>
    </g>
    <g clip-path="url(#p14b763d05c)">
     <use xlink:href="#C0_0_17b6dded3f" x="109.80853" y="391.646878" style="fill: #74a9cf; stroke: #000000; stroke-width: 0.619677"/>
    </g>
    <g clip-path="url(#p14b763d05c)">
     <use xlink:href="#C0_0_17b6dded3f" x="174.177364" y="416.20116" style="fill: #74a9cf; stroke: #000000; stroke-width: 0.619677"/>
    </g>
    <g clip-path="url(#p14b763d05c)">
     <use xlink:href="#C0_0_17b6dded3f" x="109.611893" y="438.087936" style="fill: #74a9cf; stroke: #000000; stroke-width: 0.619677"/>
    </g>
    <g clip-path="url(#p14b763d05c)">
     <use xlink:href="#C0_0_17b6dded3f" x="114.140252" y="392.954704" style="fill: #74a9cf; stroke: #000000; stroke-width: 0.619677"/>
    </g>
    <g clip-path="url(#p14b763d05c)">
     <use xlink:href="#C0_0_17b6dded3f" x="138.349116" y="348.067486" style="fill: #74a9cf; stroke: #000000; stroke-width: 0.619677"/>
    </g>
    <g clip-path="url(#p14b763d05c)">
     <use xlink:href="#C0_0_17b6dded3f" x="122.856992" y="432.612879" style="fill: #74a9cf; stroke: #000000; stroke-width: 0.619677"/>
    </g>
    <g clip-path="url(#p14b763d05c)">
     <use xlink:href="#C0_0_17b6dded3f" x="123.68722" y="358.206525" style="fill: #74a9cf; stroke: #000000; stroke-width: 0.619677"/>
    </g>
    <g clip-path="url(#p14b763d05c)">
     <use xlink:href="#C0_0_17b6dded3f" x="112.192416" y="421.951339" style="fill: #74a9cf; stroke: #000000; stroke-width: 0.619677"/>
    </g>
    <g clip-path="url(#p14b763d05c)">
     <use xlink:href="#C0_0_17b6dded3f" x="110.414178" y="418.809838" style="fill: #74a9cf; stroke: #000000; stroke-width: 0.619677"/>
    </g>
    <g clip-path="url(#p14b763d05c)">
     <use xlink:href="#C0_0_17b6dded3f" x="143.755238" y="348.905966" style="fill: #74a9cf; stroke: #000000; stroke-width: 0.619677"/>
    </g>
    <g clip-path="url(#p14b763d05c)">
     <use xlink:href="#C0_0_17b6dded3f" x="109.39112" y="347.452022" style="fill: #74a9cf; stroke: #000000; stroke-width: 0.619677"/>
    </g>
    <g clip-path="url(#p14b763d05c)">
     <use xlink:href="#C0_0_17b6dded3f" x="149.499514" y="378.857673" style="fill: #74a9cf; stroke: #000000; stroke-width: 0.619677"/>
    </g>
    <g clip-path="url(#p14b763d05c)">
     <use xlink:href="#C0_0_17b6dded3f" x="157.639582" y="231.701843" style="fill: #74a9cf; stroke: #000000; stroke-width: 0.619677"/>
    </g>
    <g clip-path="url(#p14b763d05c)">
     <use xlink:href="#C0_0_17b6dded3f" x="115.960489" y="370.47178" style="fill: #74a9cf; stroke: #000000; stroke-width: 0.619677"/>
    </g>
    <g clip-path="url(#p14b763d05c)">
     <use xlink:href="#C0_0_17b6dded3f" x="104.399184" y="379.721062" style="fill: #74a9cf; stroke: #000000; stroke-width: 0.619677"/>
    </g>
    <g clip-path="url(#p14b763d05c)">
     <use xlink:href="#C0_0_17b6dded3f" x="109.205939" y="384.153582" style="fill: #74a9cf; stroke: #000000; stroke-width: 0.619677"/>
    </g>
    <g clip-path="url(#p14b763d05c)">
     <use xlink:href="#C0_0_17b6dded3f" x="106.173796" y="440.615033" style="fill: #74a9cf; stroke: #000000; stroke-width: 0.619677"/>
    </g>
    <g clip-path="url(#p14b763d05c)">
     <use xlink:href="#C0_0_17b6dded3f" x="109.31792" y="394.791048" style="fill: #74a9cf; stroke: #000000; stroke-width: 0.619677"/>
    </g>
    <g clip-path="url(#p14b763d05c)">
     <use xlink:href="#C0_0_17b6dded3f" x="128.943429" y="401.13264" style="fill: #74a9cf; stroke: #000000; stroke-width: 0.619677"/>
    </g>
    <g clip-path="url(#p14b763d05c)">
     <use xlink:href="#C0_0_17b6dded3f" x="128.748715" y="332.495545" style="fill: #74a9cf; stroke: #000000; stroke-width: 0.619677"/>
    </g>
    <g clip-path="url(#p14b763d05c)">
     <use xlink:href="#C0_0_17b6dded3f" x="133.11125" y="270.918845" style="fill: #74a9cf; stroke: #000000; stroke-width: 0.619677"/>
    </g>
    <g clip-path="url(#p14b763d05c)">
     <use xlink:href="#C0_0_17b6dded3f" x="119.21024" y="364.406929" style="fill: #74a9cf; stroke: #000000; stroke-width: 0.619677"/>
    </g>
    <g clip-path="url(#p14b763d05c)">
     <use xlink:href="#C0_0_17b6dded3f" x="106.507278" y="369.283918" style="fill: #74a9cf; stroke: #000000; stroke-width: 0.619677"/>
    </g>
    <g clip-path="url(#p14b763d05c)">
     <use xlink:href="#C0_0_17b6dded3f" x="187.560623" y="355.775944" style="fill: #74a9cf; stroke: #000000; stroke-width: 0.619677"/>
    </g>
    <g clip-path="url(#p14b763d05c)">
     <use xlink:href="#C0_0_17b6dded3f" x="138.229278" y="375.79924" style="fill: #74a9cf; stroke: #000000; stroke-width: 0.619677"/>
    </g>
    <g clip-path="url(#p14b763d05c)">
     <use xlink:href="#C0_0_17b6dded3f" x="136.626287" y="329.540517" style="fill: #74a9cf; stroke: #000000; stroke-width: 0.619677"/>
    </g>
    <g clip-path="url(#p14b763d05c)">
     <use xlink:href="#C0_0_17b6dded3f" x="109.442383" y="459.058497" style="fill: #74a9cf; stroke: #000000; stroke-width: 0.619677"/>
    </g>
    <g clip-path="url(#p14b763d05c)">
     <use xlink:href="#C0_0_17b6dded3f" x="101.519554" y="459.785019" style="fill: #74a9cf; stroke: #000000; stroke-width: 0.619677"/>
    </g>
    <g clip-path="url(#p14b763d05c)">
     <use xlink:href="#C0_0_17b6dded3f" x="109.428721" y="435.549762" style="fill: #74a9cf; stroke: #000000; stroke-width: 0.619677"/>
    </g>
    <g clip-path="url(#p14b763d05c)">
     <use xlink:href="#C0_0_17b6dded3f" x="113.926718" y="421.404874" style="fill: #74a9cf; stroke: #000000; stroke-width: 0.619677"/>
    </g>
    <g clip-path="url(#p14b763d05c)">
     <use xlink:href="#C0_0_17b6dded3f" x="132.989053" y="389.65144" style="fill: #74a9cf; stroke: #000000; stroke-width: 0.619677"/>
    </g>
    <g clip-path="url(#p14b763d05c)">
     <use xlink:href="#C0_0_17b6dded3f" x="116.459332" y="372.232361" style="fill: #74a9cf; stroke: #000000; stroke-width: 0.619677"/>
    </g>
    <g clip-path="url(#p14b763d05c)">
     <use xlink:href="#C0_0_17b6dded3f" x="106.755706" y="420.447321" style="fill: #74a9cf; stroke: #000000; stroke-width: 0.619677"/>
    </g>
    <g clip-path="url(#p14b763d05c)">
     <use xlink:href="#C0_0_17b6dded3f" x="111.769595" y="421.703926" style="fill: #74a9cf; stroke: #000000; stroke-width: 0.619677"/>
    </g>
    <g clip-path="url(#p14b763d05c)">
     <use xlink:href="#C0_0_17b6dded3f" x="118.444138" y="425.387041" style="fill: #74a9cf; stroke: #000000; stroke-width: 0.619677"/>
    </g>
    <g clip-path="url(#p14b763d05c)">
     <use xlink:href="#C0_0_17b6dded3f" x="127.416663" y="335.01458" style="fill: #74a9cf; stroke: #000000; stroke-width: 0.619677"/>
    </g>
    <g clip-path="url(#p14b763d05c)">
     <use xlink:href="#C0_0_17b6dded3f" x="104.682172" y="452.251717" style="fill: #74a9cf; stroke: #000000; stroke-width: 0.619677"/>
    </g>
    <g clip-path="url(#p14b763d05c)">
     <use xlink:href="#C0_0_17b6dded3f" x="137.619341" y="408.533568" style="fill: #74a9cf; stroke: #000000; stroke-width: 0.619677"/>
    </g>
    <g clip-path="url(#p14b763d05c)">
     <use xlink:href="#C0_0_17b6dded3f" x="132.457341" y="386.332908" style="fill: #74a9cf; stroke: #000000; stroke-width: 0.619677"/>
    </g>
    <g clip-path="url(#p14b763d05c)">
     <use xlink:href="#C0_0_17b6dded3f" x="102.437851" y="415.118291" style="fill: #74a9cf; stroke: #000000; stroke-width: 0.619677"/>
    </g>
    <g clip-path="url(#p14b763d05c)">
     <use xlink:href="#C0_0_17b6dded3f" x="114.946762" y="434.579007" style="fill: #74a9cf; stroke: #000000; stroke-width: 0.619677"/>
    </g>
    <g clip-path="url(#p14b763d05c)">
     <use xlink:href="#C0_0_17b6dded3f" x="105.419352" y="461.376587" style="fill: #74a9cf; stroke: #000000; stroke-width: 0.619677"/>
    </g>
    <g clip-path="url(#p14b763d05c)">
     <use xlink:href="#C0_0_17b6dded3f" x="128.257129" y="359.661416" style="fill: #74a9cf; stroke: #000000; stroke-width: 0.619677"/>
    </g>
    <g clip-path="url(#p14b763d05c)">
     <use xlink:href="#C0_0_17b6dded3f" x="116.900062" y="373.249501" style="fill: #74a9cf; stroke: #000000; stroke-width: 0.619677"/>
    </g>
    <g clip-path="url(#p14b763d05c)">
     <use xlink:href="#C0_0_17b6dded3f" x="106.26692" y="457.687036" style="fill: #74a9cf; stroke: #000000; stroke-width: 0.619677"/>
    </g>
    <g clip-path="url(#p14b763d05c)">
     <use xlink:href="#C0_0_17b6dded3f" x="126.612237" y="328.786413" style="fill: #74a9cf; stroke: #000000; stroke-width: 0.619677"/>
    </g>
    <g clip-path="url(#p14b763d05c)">
     <use xlink:href="#C0_0_17b6dded3f" x="109.60864" y="372.717047" style="fill: #74a9cf; stroke: #000000; stroke-width: 0.619677"/>
    </g>
    <g clip-path="url(#p14b763d05c)">
     <use xlink:href="#C0_0_17b6dded3f" x="104.323049" y="411.903072" style="fill: #74a9cf; stroke: #000000; stroke-width: 0.619677"/>
    </g>
    <g clip-path="url(#p14b763d05c)">
     <use xlink:href="#C0_0_17b6dded3f" x="112.196921" y="355.500382" style="fill: #74a9cf; stroke: #000000; stroke-width: 0.619677"/>
    </g>
    <g clip-path="url(#p14b763d05c)">
     <use xlink:href="#C0_0_17b6dded3f" x="108.432713" y="418.821758" style="fill: #74a9cf; stroke: #000000; stroke-width: 0.619677"/>
    </g>
    <g clip-path="url(#p14b763d05c)">
     <use xlink:href="#C0_0_17b6dded3f" x="109.729506" y="413.468159" style="fill: #74a9cf; stroke: #000000; stroke-width: 0.619677"/>
    </g>
    <g clip-path="url(#p14b763d05c)">
     <use xlink:href="#C0_0_17b6dded3f" x="109.929078" y="354.104701" style="fill: #74a9cf; stroke: #000000; stroke-width: 0.619677"/>
    </g>
    <g clip-path="url(#p14b763d05c)">
     <use xlink:href="#C0_0_17b6dded3f" x="115.023997" y="402.591804" style="fill: #74a9cf; stroke: #000000; stroke-width: 0.619677"/>
    </g>
    <g clip-path="url(#p14b763d05c)">
     <use xlink:href="#C0_0_17b6dded3f" x="134.301" y="362.354171" style="fill: #74a9cf; stroke: #000000; stroke-width: 0.619677"/>
    </g>
    <g clip-path="url(#p14b763d05c)">
     <use xlink:href="#C0_0_17b6dded3f" x="111.85707" y="418.995124" style="fill: #74a9cf; stroke: #000000; stroke-width: 0.619677"/>
    </g>
    <g clip-path="url(#p14b763d05c)">
     <use xlink:href="#C0_0_17b6dded3f" x="151.238759" y="277.112229" style="fill: #74a9cf; stroke: #000000; stroke-width: 0.619677"/>
    </g>
    <g clip-path="url(#p14b763d05c)">
     <use xlink:href="#C0_0_17b6dded3f" x="123.703035" y="300.179494" style="fill: #74a9cf; stroke: #000000; stroke-width: 0.619677"/>
    </g>
    <g clip-path="url(#p14b763d05c)">
     <use xlink:href="#C0_0_17b6dded3f" x="169.622935" y="354.189383" style="fill: #74a9cf; stroke: #000000; stroke-width: 0.619677"/>
    </g>
    <g clip-path="url(#p14b763d05c)">
     <use xlink:href="#C0_0_17b6dded3f" x="142.248093" y="249.082127" style="fill: #74a9cf; stroke: #000000; stroke-width: 0.619677"/>
    </g>
    <g clip-path="url(#p14b763d05c)">
     <use xlink:href="#C0_0_17b6dded3f" x="122.105028" y="396.680317" style="fill: #74a9cf; stroke: #000000; stroke-width: 0.619677"/>
    </g>
   </g>
   <g id="PathCollection_2"/>
   <g id="PathCollection_3"/>
   <g id="patch_3">
    <path d="M 78.52 505.94 
L 78.52 19.44 
" style="fill: none; stroke: #000000; stroke-width: 1.25; stroke-linejoin: miter; stroke-linecap: square"/>
   </g>
   <g id="patch_4">
    <path d="M 584.510196 505.94 
L 584.510196 19.44 
" style="fill: none; stroke: #000000; stroke-width: 1.25; stroke-linejoin: miter; stroke-linecap: square"/>
   </g>
   <g id="patch_5">
    <path d="M 78.52 505.94 
L 584.510196 505.94 
" style="fill: none; stroke: #000000; stroke-width: 1.25; stroke-linejoin: miter; stroke-linecap: square"/>
   </g>
   <g id="patch_6">
    <path d="M 78.52 19.44 
L 584.510196 19.44 
" style="fill: none; stroke: #000000; stroke-width: 1.25; stroke-linejoin: miter; stroke-linecap: square"/>
   </g>
   <g id="legend_1">
    <g id="patch_7">
     <path d="M 598.23 75.974062 
L 732.872813 75.974062 
Q 736.472813 75.974062 736.472813 72.374062 
L 736.472813 23.04 
Q 736.472813 19.44 732.872813 19.44 
L 598.23 19.44 
Q 594.63 19.44 594.63 23.04 
L 594.63 72.374062 
Q 594.63 75.974062 598.23 75.974062 
z
" style="fill: #ffffff; opacity: 0.8; stroke: #ffffff; stroke-linejoin: miter"/>
    </g>
    <g id="PathCollection_4">
     <defs>
      <path id="m82bfdff505" d="M 0 3 
C 0.795609 3 1.55874 2.683901 2.12132 2.12132 
C 2.683901 1.55874 3 0.795609 3 0 
C 3 -0.795609 2.683901 -1.55874 2.12132 -2.12132 
C 1.55874 -2.683901 0.795609 -3 0 -3 
C -0.795609 -3 -1.55874 -2.683901 -2.12132 -2.12132 
C -2.683901 -1.55874 -3 -0.795609 -3 0 
C -3 0.795609 -2.683901 1.55874 -2.12132 2.12132 
C -1.55874 2.683901 -0.795609 3 0 3 
z
" style="stroke: #0570b0"/>
     </defs>
     <g>
      <use xlink:href="#m82bfdff505" x="619.83" y="34.799062" style="fill: #0570b0; stroke: #0570b0"/>
     </g>
    </g>
    <g id="text_17">
     <!-- Biological -->
     <g style="fill: #262626" transform="translate(652.23 39.524062) scale(0.18 -0.18)">
      <defs>
       <path id="ArialMT-42" d="M 469 0 
L 469 4581 
L 2188 4581 
Q 2713 4581 3030 4442 
Q 3347 4303 3526 4014 
Q 3706 3725 3706 3409 
Q 3706 3116 3547 2856 
Q 3388 2597 3066 2438 
Q 3481 2316 3704 2022 
Q 3928 1728 3928 1328 
Q 3928 1006 3792 729 
Q 3656 453 3456 303 
Q 3256 153 2954 76 
Q 2653 0 2216 0 
L 469 0 
z
M 1075 2656 
L 2066 2656 
Q 2469 2656 2644 2709 
Q 2875 2778 2992 2937 
Q 3109 3097 3109 3338 
Q 3109 3566 3000 3739 
Q 2891 3913 2687 3977 
Q 2484 4041 1991 4041 
L 1075 4041 
L 1075 2656 
z
M 1075 541 
L 2216 541 
Q 2509 541 2628 563 
Q 2838 600 2978 687 
Q 3119 775 3209 942 
Q 3300 1109 3300 1328 
Q 3300 1584 3169 1773 
Q 3038 1963 2805 2039 
Q 2572 2116 2134 2116 
L 1075 2116 
L 1075 541 
z
" transform="scale(0.015625)"/>
       <path id="ArialMT-69" d="M 425 3934 
L 425 4581 
L 988 4581 
L 988 3934 
L 425 3934 
z
M 425 0 
L 425 3319 
L 988 3319 
L 988 0 
L 425 0 
z
" transform="scale(0.015625)"/>
       <path id="ArialMT-6f" d="M 213 1659 
Q 213 2581 725 3025 
Q 1153 3394 1769 3394 
Q 2453 3394 2887 2945 
Q 3322 2497 3322 1706 
Q 3322 1066 3130 698 
Q 2938 331 2570 128 
Q 2203 -75 1769 -75 
Q 1072 -75 642 372 
Q 213 819 213 1659 
z
M 791 1659 
Q 791 1022 1069 705 
Q 1347 388 1769 388 
Q 2188 388 2466 706 
Q 2744 1025 2744 1678 
Q 2744 2294 2464 2611 
Q 2184 2928 1769 2928 
Q 1347 2928 1069 2612 
Q 791 2297 791 1659 
z
" transform="scale(0.015625)"/>
       <path id="ArialMT-6c" d="M 409 0 
L 409 4581 
L 972 4581 
L 972 0 
L 409 0 
z
" transform="scale(0.015625)"/>
       <path id="ArialMT-67" d="M 319 -275 
L 866 -356 
Q 900 -609 1056 -725 
Q 1266 -881 1628 -881 
Q 2019 -881 2231 -725 
Q 2444 -569 2519 -288 
Q 2563 -116 2559 434 
Q 2191 0 1641 0 
Q 956 0 581 494 
Q 206 988 206 1678 
Q 206 2153 378 2554 
Q 550 2956 876 3175 
Q 1203 3394 1644 3394 
Q 2231 3394 2613 2919 
L 2613 3319 
L 3131 3319 
L 3131 450 
Q 3131 -325 2973 -648 
Q 2816 -972 2473 -1159 
Q 2131 -1347 1631 -1347 
Q 1038 -1347 672 -1080 
Q 306 -813 319 -275 
z
M 784 1719 
Q 784 1066 1043 766 
Q 1303 466 1694 466 
Q 2081 466 2343 764 
Q 2606 1063 2606 1700 
Q 2606 2309 2336 2618 
Q 2066 2928 1684 2928 
Q 1309 2928 1046 2623 
Q 784 2319 784 1719 
z
" transform="scale(0.015625)"/>
       <path id="ArialMT-63" d="M 2588 1216 
L 3141 1144 
Q 3050 572 2676 248 
Q 2303 -75 1759 -75 
Q 1078 -75 664 370 
Q 250 816 250 1647 
Q 250 2184 428 2587 
Q 606 2991 970 3192 
Q 1334 3394 1763 3394 
Q 2303 3394 2647 3120 
Q 2991 2847 3088 2344 
L 2541 2259 
Q 2463 2594 2264 2762 
Q 2066 2931 1784 2931 
Q 1359 2931 1093 2626 
Q 828 2322 828 1663 
Q 828 994 1084 691 
Q 1341 388 1753 388 
Q 2084 388 2306 591 
Q 2528 794 2588 1216 
z
" transform="scale(0.015625)"/>
       <path id="ArialMT-61" d="M 2588 409 
Q 2275 144 1986 34 
Q 1697 -75 1366 -75 
Q 819 -75 525 192 
Q 231 459 231 875 
Q 231 1119 342 1320 
Q 453 1522 633 1644 
Q 813 1766 1038 1828 
Q 1203 1872 1538 1913 
Q 2219 1994 2541 2106 
Q 2544 2222 2544 2253 
Q 2544 2597 2384 2738 
Q 2169 2928 1744 2928 
Q 1347 2928 1158 2789 
Q 969 2650 878 2297 
L 328 2372 
Q 403 2725 575 2942 
Q 747 3159 1072 3276 
Q 1397 3394 1825 3394 
Q 2250 3394 2515 3294 
Q 2781 3194 2906 3042 
Q 3031 2891 3081 2659 
Q 3109 2516 3109 2141 
L 3109 1391 
Q 3109 606 3145 398 
Q 3181 191 3288 0 
L 2700 0 
Q 2613 175 2588 409 
z
M 2541 1666 
Q 2234 1541 1622 1453 
Q 1275 1403 1131 1340 
Q 988 1278 909 1158 
Q 831 1038 831 891 
Q 831 666 1001 516 
Q 1172 366 1500 366 
Q 1825 366 2078 508 
Q 2331 650 2450 897 
Q 2541 1088 2541 1459 
L 2541 1666 
z
" transform="scale(0.015625)"/>
      </defs>
      <use xlink:href="#ArialMT-42"/>
      <use xlink:href="#ArialMT-69" x="66.699219"/>
      <use xlink:href="#ArialMT-6f" x="88.916016"/>
      <use xlink:href="#ArialMT-6c" x="144.53125"/>
      <use xlink:href="#ArialMT-6f" x="166.748047"/>
      <use xlink:href="#ArialMT-67" x="222.363281"/>
      <use xlink:href="#ArialMT-69" x="277.978516"/>
      <use xlink:href="#ArialMT-63" x="300.195312"/>
      <use xlink:href="#ArialMT-61" x="350.195312"/>
      <use xlink:href="#ArialMT-6c" x="405.810547"/>
     </g>
    </g>
    <g id="PathCollection_5">
     <defs>
      <path id="m7209e1f319" d="M 0 3 
C 0.795609 3 1.55874 2.683901 2.12132 2.12132 
C 2.683901 1.55874 3 0.795609 3 0 
C 3 -0.795609 2.683901 -1.55874 2.12132 -2.12132 
C 1.55874 -2.683901 0.795609 -3 0 -3 
C -0.795609 -3 -1.55874 -2.683901 -2.12132 -2.12132 
C -2.683901 -1.55874 -3 -0.795609 -3 0 
C -3 0.795609 -2.683901 1.55874 -2.12132 2.12132 
C -1.55874 2.683901 -0.795609 3 0 3 
z
" style="stroke: #74a9cf"/>
     </defs>
     <g>
      <use xlink:href="#m7209e1f319" x="619.83" y="60.471562" style="fill: #74a9cf; stroke: #74a9cf"/>
     </g>
    </g>
    <g id="text_18">
     <!-- Random -->
     <g style="fill: #262626" transform="translate(652.23 65.196562) scale(0.18 -0.18)">
      <defs>
       <path id="ArialMT-52" d="M 503 0 
L 503 4581 
L 2534 4581 
Q 3147 4581 3465 4457 
Q 3784 4334 3975 4021 
Q 4166 3709 4166 3331 
Q 4166 2844 3850 2509 
Q 3534 2175 2875 2084 
Q 3116 1969 3241 1856 
Q 3506 1613 3744 1247 
L 4541 0 
L 3778 0 
L 3172 953 
Q 2906 1366 2734 1584 
Q 2563 1803 2427 1890 
Q 2291 1978 2150 2013 
Q 2047 2034 1813 2034 
L 1109 2034 
L 1109 0 
L 503 0 
z
M 1109 2559 
L 2413 2559 
Q 2828 2559 3062 2645 
Q 3297 2731 3419 2920 
Q 3541 3109 3541 3331 
Q 3541 3656 3305 3865 
Q 3069 4075 2559 4075 
L 1109 4075 
L 1109 2559 
z
" transform="scale(0.015625)"/>
       <path id="ArialMT-6e" d="M 422 0 
L 422 3319 
L 928 3319 
L 928 2847 
Q 1294 3394 1984 3394 
Q 2284 3394 2536 3286 
Q 2788 3178 2913 3003 
Q 3038 2828 3088 2588 
Q 3119 2431 3119 2041 
L 3119 0 
L 2556 0 
L 2556 2019 
Q 2556 2363 2490 2533 
Q 2425 2703 2258 2804 
Q 2091 2906 1866 2906 
Q 1506 2906 1245 2678 
Q 984 2450 984 1813 
L 984 0 
L 422 0 
z
" transform="scale(0.015625)"/>
       <path id="ArialMT-64" d="M 2575 0 
L 2575 419 
Q 2259 -75 1647 -75 
Q 1250 -75 917 144 
Q 584 363 401 755 
Q 219 1147 219 1656 
Q 219 2153 384 2558 
Q 550 2963 881 3178 
Q 1213 3394 1622 3394 
Q 1922 3394 2156 3267 
Q 2391 3141 2538 2938 
L 2538 4581 
L 3097 4581 
L 3097 0 
L 2575 0 
z
M 797 1656 
Q 797 1019 1065 703 
Q 1334 388 1700 388 
Q 2069 388 2326 689 
Q 2584 991 2584 1609 
Q 2584 2291 2321 2609 
Q 2059 2928 1675 2928 
Q 1300 2928 1048 2622 
Q 797 2316 797 1656 
z
" transform="scale(0.015625)"/>
       <path id="ArialMT-6d" d="M 422 0 
L 422 3319 
L 925 3319 
L 925 2853 
Q 1081 3097 1340 3245 
Q 1600 3394 1931 3394 
Q 2300 3394 2536 3241 
Q 2772 3088 2869 2813 
Q 3263 3394 3894 3394 
Q 4388 3394 4653 3120 
Q 4919 2847 4919 2278 
L 4919 0 
L 4359 0 
L 4359 2091 
Q 4359 2428 4304 2576 
Q 4250 2725 4106 2815 
Q 3963 2906 3769 2906 
Q 3419 2906 3187 2673 
Q 2956 2441 2956 1928 
L 2956 0 
L 2394 0 
L 2394 2156 
Q 2394 2531 2256 2718 
Q 2119 2906 1806 2906 
Q 1569 2906 1367 2781 
Q 1166 2656 1075 2415 
Q 984 2175 984 1722 
L 984 0 
L 422 0 
z
" transform="scale(0.015625)"/>
      </defs>
      <use xlink:href="#ArialMT-52"/>
      <use xlink:href="#ArialMT-61" x="72.216797"/>
      <use xlink:href="#ArialMT-6e" x="127.832031"/>
      <use xlink:href="#ArialMT-64" x="183.447266"/>
      <use xlink:href="#ArialMT-6f" x="239.0625"/>
      <use xlink:href="#ArialMT-6d" x="294.677734"/>
     </g>
    </g>
   </g>
  </g>
 </g>
 <defs>
  <clipPath id="p14b763d05c">
   <rect x="78.52" y="19.44" width="505.990196" height="486.5"/>
  </clipPath>
 </defs>
</svg>
